<svg width="95" height="30" viewBox="0 0 95 30" fill="none" xmlns="http://www.w3.org/2000/svg">
<path d="M91.5455 0H3.45455C1.54665 0 0 1.79086 0 4V26C0 28.2091 1.54665 30 3.45455 30H91.5455C93.4533 30 95 28.2091 95 26V4C95 1.79086 93.4533 0 91.5455 0Z" fill="#161316"/>
<path d="M32 0H30V30H32V0Z" fill="#2C292D"/>
<path d="M20.1796 11.0993C20.5278 10.6127 20.9849 10.1631 21.4665 9.88503C22.9848 9.00857 24.5872 9.12842 25.34 10.3959C26.0938 11.6649 25.6813 13.0716 24.255 14.0365C23.5272 14.4753 22.8217 14.7408 22.0406 14.846M10.8485 11.0993C10.5003 10.6127 10.0432 10.1631 9.56156 9.88503C8.04332 9.00857 6.44085 9.12842 5.68806 10.3959C4.93434 11.6649 5.34675 13.0716 6.77313 14.0365C7.50091 14.4753 8.20641 14.7408 8.98748 14.846" stroke="url(#paint0_linear_302_3)" stroke-width="0.637687" stroke-linecap="round" stroke-linejoin="round"/>
<path d="M22.1012 15.9709C22.3632 12.5593 20.2645 10.166 15.5141 10.2435C10.7637 10.3211 8.72078 12.5812 8.92698 15.9709C9.12381 19.2067 12.9536 21.5826 15.4888 21.5826C18.024 21.5826 21.8532 19.2017 22.1012 15.9709Z" stroke="url(#paint1_linear_302_3)" stroke-width="0.637687" stroke-linecap="round" stroke-linejoin="round"/>
<path d="M17.7573 17.5063C17.7573 18.0327 18.1833 18.4594 18.7088 18.4594C19.2344 18.4594 19.6604 18.0327 19.6604 17.5063C19.6604 16.98 19.2344 16.5533 18.7088 16.5533C18.1833 16.5533 17.7573 16.98 17.7573 17.5063ZM11.3677 17.5063C11.3677 18.0376 11.7976 18.4682 12.328 18.4682C12.8583 18.4682 13.2883 18.0376 13.2883 17.5063C13.2883 16.9751 12.8583 16.5445 12.328 16.5445C11.7976 16.5445 11.3677 16.9751 11.3677 17.5063Z" fill="url(#paint2_linear_302_3)"/>
<path d="M11.5906 20.3522L10.3484 21.9971M19.4374 20.3522L20.6796 21.9971M9.85871 18.7255L7.86011 19.5414M21.0661 18.7255L23.0647 19.5414" stroke="url(#paint3_linear_302_3)" stroke-width="0.728786" stroke-linecap="round"/>
<path d="M15.514 19.0732C14.4695 19.0732 13.803 19.7985 13.8255 20.6925C13.8499 21.6607 14.565 22.3119 15.514 22.3119C16.4631 22.3119 17.2005 21.5604 17.2026 20.6925C17.2047 19.7982 16.5586 19.0732 15.514 19.0732Z" fill="white" stroke="url(#paint4_linear_302_3)" stroke-width="0.637687" stroke-linecap="round" stroke-linejoin="round"/>
<path d="M48.688 18.052C48.824 18.052 48.94 18.1 49.036 18.196C49.132 18.284 49.18 18.396 49.18 18.532C49.18 18.668 49.132 18.78 49.036 18.868C48.94 18.956 48.824 19 48.688 19H44.536C44.4 19 44.284 18.952 44.188 18.856C44.1 18.76 44.056 18.644 44.056 18.508V11.08C44.056 10.944 44.104 10.832 44.2 10.744C44.296 10.648 44.416 10.6 44.56 10.6C44.696 10.6 44.812 10.648 44.908 10.744C45.004 10.832 45.052 10.944 45.052 11.08V18.268L44.812 18.052H48.688ZM53.2599 19.12C52.6199 19.12 52.0599 18.984 51.5799 18.712C51.0999 18.44 50.7239 18.068 50.4519 17.596C50.1879 17.116 50.0559 16.564 50.0559 15.94C50.0559 15.244 50.1919 14.652 50.4639 14.164C50.7439 13.668 51.1039 13.292 51.5439 13.036C51.9919 12.772 52.4639 12.64 52.9599 12.64C53.3279 12.64 53.6839 12.708 54.0279 12.844C54.3719 12.98 54.6759 13.18 54.9399 13.444C55.2039 13.7 55.4159 14.012 55.5759 14.38C55.7359 14.74 55.8199 15.144 55.8279 15.592C55.8279 15.72 55.7799 15.828 55.6839 15.916C55.5879 16.004 55.4759 16.048 55.3479 16.048H50.6079L50.3919 15.22H55.0119L54.8199 15.388V15.124C54.7879 14.796 54.6759 14.516 54.4839 14.284C54.2999 14.044 54.0719 13.86 53.7999 13.732C53.5359 13.604 53.2559 13.54 52.9599 13.54C52.7199 13.54 52.4799 13.584 52.2399 13.672C52.0079 13.752 51.7959 13.888 51.6039 14.08C51.4199 14.264 51.2679 14.504 51.1479 14.8C51.0359 15.096 50.9799 15.452 50.9799 15.868C50.9799 16.332 51.0719 16.74 51.2559 17.092C51.4479 17.444 51.7119 17.724 52.0479 17.932C52.3839 18.132 52.7759 18.232 53.2239 18.232C53.5039 18.232 53.7479 18.196 53.9559 18.124C54.1639 18.052 54.3439 17.964 54.4959 17.86C54.6479 17.748 54.7759 17.636 54.8799 17.524C54.9839 17.452 55.0839 17.416 55.1799 17.416C55.2999 17.416 55.3959 17.456 55.4679 17.536C55.5479 17.616 55.5879 17.712 55.5879 17.824C55.5879 17.96 55.5239 18.08 55.3959 18.184C55.1719 18.432 54.8679 18.652 54.4839 18.844C54.0999 19.028 53.6919 19.12 53.2599 19.12ZM60.2348 12.7C60.7788 12.7 61.2188 12.84 61.5548 13.12C61.8988 13.392 62.1268 13.78 62.2388 14.284H62.0588L62.1428 14.068C62.2388 13.844 62.4028 13.628 62.6348 13.42C62.8668 13.212 63.1348 13.04 63.4388 12.904C63.7428 12.768 64.0588 12.7 64.3868 12.7C64.9148 12.7 65.3308 12.816 65.6348 13.048C65.9388 13.272 66.1548 13.576 66.2828 13.96C66.4188 14.336 66.4868 14.76 66.4868 15.232V18.508C66.4868 18.644 66.4388 18.76 66.3428 18.856C66.2548 18.952 66.1428 19 66.0068 19C65.8628 19 65.7468 18.952 65.6588 18.856C65.5708 18.76 65.5268 18.644 65.5268 18.508V15.256C65.5268 14.944 65.4788 14.664 65.3828 14.416C65.2948 14.16 65.1468 13.96 64.9388 13.816C64.7388 13.664 64.4628 13.588 64.1108 13.588C63.7828 13.588 63.4828 13.664 63.2108 13.816C62.9388 13.96 62.7228 14.16 62.5628 14.416C62.4028 14.664 62.3228 14.944 62.3228 15.256V18.508C62.3228 18.644 62.2788 18.76 62.1908 18.856C62.1028 18.952 61.9868 19 61.8428 19C61.7068 19 61.5908 18.952 61.4948 18.856C61.4068 18.76 61.3628 18.644 61.3628 18.508V15.22C61.3628 14.916 61.3188 14.644 61.2308 14.404C61.1508 14.156 61.0108 13.96 60.8108 13.816C60.6108 13.664 60.3348 13.588 59.9828 13.588C59.6628 13.588 59.3708 13.664 59.1068 13.816C58.8428 13.96 58.6308 14.156 58.4708 14.404C58.3108 14.644 58.2308 14.916 58.2308 15.22V18.508C58.2308 18.644 58.1828 18.76 58.0868 18.856C57.9988 18.952 57.8868 19 57.7508 19C57.6148 19 57.4988 18.952 57.4028 18.856C57.3148 18.76 57.2708 18.644 57.2708 18.508V13.276C57.2708 13.14 57.3148 13.028 57.4028 12.94C57.4988 12.844 57.6148 12.796 57.7508 12.796C57.8948 12.796 58.0108 12.844 58.0988 12.94C58.1868 13.028 58.2308 13.14 58.2308 13.276V14.188L57.9668 14.476C57.9988 14.268 58.0788 14.06 58.2068 13.852C58.3428 13.644 58.5148 13.452 58.7228 13.276C58.9308 13.1 59.1628 12.96 59.4188 12.856C59.6748 12.752 59.9468 12.7 60.2348 12.7ZM71.227 12.7C71.771 12.7 72.211 12.84 72.547 13.12C72.891 13.392 73.119 13.78 73.231 14.284H73.051L73.135 14.068C73.231 13.844 73.395 13.628 73.627 13.42C73.859 13.212 74.127 13.04 74.431 12.904C74.735 12.768 75.051 12.7 75.379 12.7C75.907 12.7 76.323 12.816 76.627 13.048C76.931 13.272 77.147 13.576 77.275 13.96C77.411 14.336 77.479 14.76 77.479 15.232V18.508C77.479 18.644 77.431 18.76 77.335 18.856C77.247 18.952 77.135 19 76.999 19C76.855 19 76.739 18.952 76.651 18.856C76.563 18.76 76.519 18.644 76.519 18.508V15.256C76.519 14.944 76.471 14.664 76.375 14.416C76.287 14.16 76.139 13.96 75.931 13.816C75.731 13.664 75.455 13.588 75.103 13.588C74.775 13.588 74.475 13.664 74.203 13.816C73.931 13.96 73.715 14.16 73.555 14.416C73.395 14.664 73.315 14.944 73.315 15.256V18.508C73.315 18.644 73.271 18.76 73.183 18.856C73.095 18.952 72.979 19 72.835 19C72.699 19 72.583 18.952 72.487 18.856C72.399 18.76 72.355 18.644 72.355 18.508V15.22C72.355 14.916 72.311 14.644 72.223 14.404C72.143 14.156 72.003 13.96 71.803 13.816C71.603 13.664 71.327 13.588 70.975 13.588C70.655 13.588 70.363 13.664 70.099 13.816C69.835 13.96 69.623 14.156 69.463 14.404C69.303 14.644 69.223 14.916 69.223 15.22V18.508C69.223 18.644 69.175 18.76 69.079 18.856C68.991 18.952 68.879 19 68.743 19C68.607 19 68.491 18.952 68.395 18.856C68.307 18.76 68.263 18.644 68.263 18.508V13.276C68.263 13.14 68.307 13.028 68.395 12.94C68.491 12.844 68.607 12.796 68.743 12.796C68.887 12.796 69.003 12.844 69.091 12.94C69.179 13.028 69.223 13.14 69.223 13.276V14.188L68.959 14.476C68.991 14.268 69.071 14.06 69.199 13.852C69.335 13.644 69.507 13.452 69.715 13.276C69.923 13.1 70.155 12.96 70.411 12.856C70.667 12.752 70.939 12.7 71.227 12.7ZM83.8406 12.7C83.9766 12.7 84.0886 12.748 84.1766 12.844C84.2726 12.932 84.3206 13.044 84.3206 13.18V18.412C84.3206 19.084 84.1886 19.64 83.9246 20.08C83.6606 20.528 83.3046 20.86 82.8566 21.076C82.4166 21.292 81.9166 21.4 81.3566 21.4C81.0446 21.4 80.7446 21.368 80.4566 21.304C80.1686 21.24 79.9326 21.156 79.7486 21.052C79.5966 20.98 79.4886 20.888 79.4246 20.776C79.3686 20.672 79.3606 20.56 79.4006 20.44C79.4566 20.296 79.5366 20.196 79.6406 20.14C79.7526 20.084 79.8686 20.084 79.9886 20.14C80.1166 20.196 80.3006 20.272 80.5406 20.368C80.7886 20.472 81.0646 20.524 81.3686 20.524C81.7846 20.524 82.1406 20.444 82.4366 20.284C82.7326 20.124 82.9606 19.888 83.1206 19.576C83.2806 19.272 83.3606 18.892 83.3606 18.436V17.584L83.5046 17.884C83.3766 18.132 83.2046 18.348 82.9886 18.532C82.7726 18.716 82.5246 18.86 82.2446 18.964C81.9646 19.068 81.6566 19.12 81.3206 19.12C80.8646 19.12 80.4766 19.024 80.1566 18.832C79.8446 18.632 79.6046 18.36 79.4366 18.016C79.2766 17.664 79.1966 17.26 79.1966 16.804V13.18C79.1966 13.044 79.2406 12.932 79.3286 12.844C79.4246 12.748 79.5406 12.7 79.6766 12.7C79.8206 12.7 79.9366 12.748 80.0246 12.844C80.1126 12.932 80.1566 13.044 80.1566 13.18V16.588C80.1566 17.132 80.2766 17.544 80.5166 17.824C80.7566 18.096 81.1286 18.232 81.6326 18.232C81.9526 18.232 82.2406 18.16 82.4966 18.016C82.7606 17.872 82.9686 17.676 83.1206 17.428C83.2806 17.172 83.3606 16.892 83.3606 16.588V13.18C83.3606 13.044 83.4046 12.932 83.4926 12.844C83.5806 12.748 83.6966 12.7 83.8406 12.7Z" fill="white"/>
<defs>
<linearGradient id="paint0_linear_302_3" x1="5.31738" y1="14.846" x2="17.3855" y2="1.68511" gradientUnits="userSpaceOnUse">
<stop stop-color="#FFD1A7"/>
<stop offset="1" stop-color="#FF5A8B"/>
</linearGradient>
<linearGradient id="paint1_linear_302_3" x1="8.91284" y1="21.5826" x2="24.2138" y2="16.3149" gradientUnits="userSpaceOnUse">
<stop stop-color="#FFD1A7"/>
<stop offset="1" stop-color="#FF5A8B"/>
</linearGradient>
<linearGradient id="paint2_linear_302_3" x1="11.3677" y1="18.4682" x2="15.4631" y2="13.2502" gradientUnits="userSpaceOnUse">
<stop stop-color="#FFD1A7"/>
<stop offset="1" stop-color="#FF5A8B"/>
</linearGradient>
<linearGradient id="paint3_linear_302_3" x1="7.8601" y1="21.9971" x2="14.6838" y2="12.6241" gradientUnits="userSpaceOnUse">
<stop stop-color="#FFD1A7"/>
<stop offset="1" stop-color="#FF5A8B"/>
</linearGradient>
<linearGradient id="paint4_linear_302_3" x1="13.825" y1="22.3119" x2="17.8212" y2="21.0801" gradientUnits="userSpaceOnUse">
<stop stop-color="#FFD1A7"/>
<stop offset="1" stop-color="#FF5A8B"/>
</linearGradient>
</defs>
</svg>
