<svg width="98" height="30" viewBox="0 0 98 30" fill="none" xmlns="http://www.w3.org/2000/svg">
<rect width="98" height="30" rx="4" fill="#161316"/>
<path d="M12.7498 13.4996C12.7576 12.9053 12.9972 12.3375 13.4174 11.9172C13.8377 11.4969 14.4055 11.2574 14.9998 11.2496C15.5942 11.2574 16.1619 11.4969 16.5822 11.9172C17.0025 12.3375 17.2421 12.9053 17.2498 13.4996C17.2421 14.0939 17.0025 14.6617 16.5822 15.082C16.1619 15.5023 15.5942 15.7418 14.9998 15.7496C14.4055 15.7418 13.8377 15.5023 13.4174 15.082C12.9972 14.6617 12.7576 14.0939 12.7498 13.4996ZM14.9998 20.2496L17.9998 20.9996V18.6896C17.0951 19.2344 16.0559 19.515 14.9998 19.4996C13.9438 19.515 12.9046 19.2344 11.9998 18.6896V20.9996L14.9998 20.2496ZM14.9998 8.9996C14.4088 8.98882 13.8218 9.09902 13.275 9.32344C12.7281 9.54786 12.2329 9.88176 11.8198 10.3046C11.3924 10.7181 11.0547 11.2152 10.8276 11.7648C10.6005 12.3145 10.4889 12.905 10.4998 13.4996C10.492 14.0905 10.6051 14.6767 10.8321 15.2222C11.0591 15.7678 11.3952 16.2612 11.8198 16.6721C12.231 17.099 12.7253 17.4371 13.2723 17.6654C13.8192 17.8937 14.4072 18.0075 14.9998 17.9996C15.5925 18.0075 16.1805 17.8937 16.7274 17.6654C17.2744 17.4371 17.7687 17.099 18.1798 16.6721C18.6045 16.2612 18.9406 15.7678 19.1676 15.2222C19.3946 14.6767 19.5077 14.0905 19.4998 13.4996C19.5107 12.905 19.3992 12.3145 19.1721 11.7648C18.945 11.2152 18.6073 10.7181 18.1798 10.3046C17.7668 9.88176 17.2716 9.54786 16.7247 9.32344C16.1778 9.09902 15.5909 8.98882 14.9998 8.9996V8.9996ZM20.9998 13.4996C20.9839 14.2195 20.8391 14.9307 20.5723 15.5996C20.332 16.2802 19.9685 16.9107 19.4998 17.4596V23.2496L14.9998 21.7496L10.4998 23.2496V17.4596C9.5291 16.3694 8.99496 14.9593 8.99984 13.4996C8.98662 12.7125 9.13486 11.9311 9.43542 11.2036C9.73598 10.4761 10.1825 9.81785 10.7473 9.2696C11.2976 8.69967 11.9589 8.24857 12.6903 7.94415C13.4217 7.63972 14.2077 7.48842 14.9998 7.4996C15.792 7.48842 16.578 7.63972 17.3094 7.94415C18.0408 8.24857 18.7021 8.69967 19.2523 9.2696C19.8172 9.81785 20.2637 10.4761 20.5642 11.2036C20.8648 11.9311 21.0131 12.7125 20.9998 13.4996V13.4996Z" fill="black"/>
<path d="M12.7498 13.4996C12.7576 12.9053 12.9972 12.3375 13.4174 11.9172C13.8377 11.4969 14.4055 11.2574 14.9998 11.2496C15.5942 11.2574 16.1619 11.4969 16.5822 11.9172C17.0025 12.3375 17.2421 12.9053 17.2498 13.4996C17.2421 14.0939 17.0025 14.6617 16.5822 15.082C16.1619 15.5023 15.5942 15.7418 14.9998 15.7496C14.4055 15.7418 13.8377 15.5023 13.4174 15.082C12.9972 14.6617 12.7576 14.0939 12.7498 13.4996ZM14.9998 20.2496L17.9998 20.9996V18.6896C17.0951 19.2344 16.0559 19.515 14.9998 19.4996C13.9438 19.515 12.9046 19.2344 11.9998 18.6896V20.9996L14.9998 20.2496ZM14.9998 8.9996C14.4088 8.98882 13.8218 9.09902 13.275 9.32344C12.7281 9.54786 12.2329 9.88176 11.8198 10.3046C11.3924 10.7181 11.0547 11.2152 10.8276 11.7648C10.6005 12.3145 10.4889 12.905 10.4998 13.4996C10.492 14.0905 10.6051 14.6767 10.8321 15.2222C11.0591 15.7678 11.3952 16.2612 11.8198 16.6721C12.231 17.099 12.7253 17.4371 13.2723 17.6654C13.8192 17.8937 14.4072 18.0075 14.9998 17.9996C15.5925 18.0075 16.1805 17.8937 16.7274 17.6654C17.2744 17.4371 17.7687 17.099 18.1798 16.6721C18.6045 16.2612 18.9406 15.7678 19.1676 15.2222C19.3946 14.6767 19.5077 14.0905 19.4998 13.4996C19.5107 12.905 19.3992 12.3145 19.1721 11.7648C18.945 11.2152 18.6073 10.7181 18.1798 10.3046C17.7668 9.88176 17.2716 9.54786 16.7247 9.32344C16.1778 9.09902 15.5909 8.98882 14.9998 8.9996V8.9996ZM20.9998 13.4996C20.9839 14.2195 20.8391 14.9307 20.5723 15.5996C20.332 16.2802 19.9685 16.9107 19.4998 17.4596V23.2496L14.9998 21.7496L10.4998 23.2496V17.4596C9.5291 16.3694 8.99496 14.9593 8.99984 13.4996C8.98662 12.7125 9.13486 11.9311 9.43542 11.2036C9.73598 10.4761 10.1825 9.81785 10.7473 9.2696C11.2976 8.69967 11.9589 8.24857 12.6903 7.94415C13.4217 7.63972 14.2077 7.48842 14.9998 7.4996C15.792 7.48842 16.578 7.63972 17.3094 7.94415C18.0408 8.24857 18.7021 8.69967 19.2523 9.2696C19.8172 9.81785 20.2637 10.4761 20.5642 11.2036C20.8648 11.9311 21.0131 12.7125 20.9998 13.4996V13.4996Z" fill="url(#paint0_linear_265_43)"/>
<rect x="30" width="2" height="30" fill="#F2EEFF" fill-opacity="0.1"/>
<path d="M48.872 19.12C48.264 19.12 47.696 19.012 47.168 18.796C46.64 18.572 46.176 18.264 45.776 17.872C45.384 17.472 45.076 17.012 44.852 16.492C44.628 15.972 44.516 15.408 44.516 14.8C44.516 14.192 44.628 13.628 44.852 13.108C45.076 12.588 45.384 12.132 45.776 11.74C46.176 11.34 46.64 11.032 47.168 10.816C47.696 10.592 48.264 10.48 48.872 10.48C49.264 10.48 49.644 10.524 50.012 10.612C50.38 10.7 50.712 10.828 51.008 10.996C51.112 11.052 51.188 11.128 51.236 11.224C51.284 11.312 51.308 11.4 51.308 11.488C51.308 11.656 51.252 11.804 51.14 11.932C51.036 12.052 50.904 12.112 50.744 12.112C50.688 12.112 50.628 12.104 50.564 12.088C50.508 12.072 50.456 12.052 50.408 12.028C50.184 11.916 49.944 11.832 49.688 11.776C49.432 11.712 49.16 11.68 48.872 11.68C48.296 11.68 47.776 11.82 47.312 12.1C46.848 12.372 46.48 12.744 46.208 13.216C45.944 13.688 45.812 14.216 45.812 14.8C45.812 15.376 45.944 15.904 46.208 16.384C46.48 16.856 46.848 17.232 47.312 17.512C47.776 17.784 48.296 17.92 48.872 17.92C49.152 17.92 49.448 17.888 49.76 17.824C50.072 17.752 50.336 17.66 50.552 17.548L50.456 17.872V15.592L50.648 15.76H49.076C48.9 15.76 48.752 15.704 48.632 15.592C48.52 15.48 48.464 15.336 48.464 15.16C48.464 14.984 48.52 14.84 48.632 14.728C48.752 14.616 48.9 14.56 49.076 14.56H51.152C51.32 14.56 51.46 14.62 51.572 14.74C51.692 14.852 51.752 14.996 51.752 15.172V17.836C51.752 17.964 51.72 18.072 51.656 18.16C51.592 18.248 51.52 18.32 51.44 18.376C51.08 18.6 50.68 18.78 50.24 18.916C49.808 19.052 49.352 19.12 48.872 19.12ZM56.7115 10.6C57.1355 10.6 57.5275 10.716 57.8875 10.948C58.2475 11.172 58.5355 11.48 58.7515 11.872C58.9675 12.264 59.0755 12.704 59.0755 13.192C59.0755 13.68 58.9675 14.124 58.7515 14.524C58.5355 14.916 58.2475 15.232 57.8875 15.472C57.5275 15.704 57.1355 15.82 56.7115 15.82H54.3955L54.4915 15.628V18.388C54.4915 18.564 54.4355 18.712 54.3235 18.832C54.2195 18.944 54.0795 19 53.9035 19C53.7355 19 53.5955 18.944 53.4835 18.832C53.3795 18.712 53.3275 18.564 53.3275 18.388V11.212C53.3275 11.036 53.3875 10.892 53.5075 10.78C53.6275 10.66 53.7715 10.6 53.9395 10.6H56.7115ZM56.7115 14.668C56.9195 14.668 57.1075 14.6 57.2755 14.464C57.4515 14.328 57.5915 14.148 57.6955 13.924C57.8075 13.7 57.8635 13.456 57.8635 13.192C57.8635 12.928 57.8075 12.688 57.6955 12.472C57.5915 12.256 57.4515 12.084 57.2755 11.956C57.1075 11.82 56.9195 11.752 56.7115 11.752H54.3715L54.4915 11.572V14.824L54.3835 14.668H56.7115ZM65.1785 17.824C65.3465 17.824 65.4865 17.88 65.5985 17.992C65.7185 18.104 65.7785 18.244 65.7785 18.412C65.7785 18.58 65.7185 18.72 65.5985 18.832C65.4865 18.944 65.3465 19 65.1785 19H61.1465C60.9705 19 60.8225 18.944 60.7025 18.832C60.5905 18.712 60.5345 18.564 60.5345 18.388V11.212C60.5345 11.036 60.5945 10.892 60.7145 10.78C60.8345 10.66 60.9905 10.6 61.1825 10.6C61.3425 10.6 61.4825 10.66 61.6025 10.78C61.7305 10.892 61.7945 11.036 61.7945 11.212V18.028L61.5425 17.824H65.1785ZM67.4196 15.892C67.2516 15.892 67.1076 15.836 66.9876 15.724C66.8756 15.604 66.8196 15.46 66.8196 15.292C66.8196 15.116 66.8756 14.976 66.9876 14.872C67.1076 14.76 67.2516 14.704 67.4196 14.704H69.6756C69.8436 14.704 69.9876 14.764 70.1076 14.884C70.2276 14.996 70.2876 15.14 70.2876 15.316C70.2876 15.476 70.2276 15.612 70.1076 15.724C69.9876 15.836 69.8436 15.892 69.6756 15.892H67.4196ZM77.9983 10.576C78.1663 10.576 78.3103 10.632 78.4303 10.744C78.5503 10.856 78.6103 10.992 78.6103 11.152C78.6103 11.24 78.5903 11.332 78.5503 11.428L75.5143 18.604C75.4503 18.74 75.3623 18.84 75.2503 18.904C75.1463 18.968 75.0383 19 74.9263 19C74.8143 18.992 74.7063 18.956 74.6023 18.892C74.5063 18.828 74.4303 18.736 74.3743 18.616L71.3383 11.428C71.3223 11.388 71.3103 11.348 71.3022 11.308C71.2943 11.26 71.2903 11.212 71.2903 11.164C71.2903 10.98 71.3583 10.836 71.4943 10.732C71.6303 10.628 71.7623 10.576 71.8903 10.576C72.1463 10.576 72.3343 10.708 72.4543 10.972L75.2023 17.488H74.8543L77.4463 10.96C77.5583 10.704 77.7423 10.576 77.9983 10.576ZM80.2402 17.464C80.3042 17.464 80.3722 17.476 80.4442 17.5C80.5162 17.516 80.5962 17.556 80.6842 17.62C80.8282 17.748 81.0002 17.856 81.2002 17.944C81.4082 18.024 81.6442 18.064 81.9082 18.064C82.2042 18.064 82.4802 17.996 82.7362 17.86C82.9922 17.716 83.2002 17.516 83.3602 17.26C83.5202 17.004 83.6002 16.7 83.6002 16.348C83.6002 15.988 83.5242 15.696 83.3722 15.472C83.2202 15.24 83.0242 15.068 82.7842 14.956C82.5442 14.836 82.2922 14.776 82.0282 14.776C81.8762 14.776 81.7482 14.792 81.6442 14.824C81.5402 14.848 81.4402 14.876 81.3442 14.908C81.2482 14.932 81.1442 14.944 81.0322 14.944C80.8802 14.944 80.7602 14.892 80.6722 14.788C80.5842 14.676 80.5402 14.544 80.5402 14.392C80.5402 14.296 80.5602 14.212 80.6002 14.14C80.6402 14.068 80.6962 13.988 80.7682 13.9L82.9882 11.524L83.2522 11.764H80.0722C79.9122 11.764 79.7762 11.712 79.6642 11.608C79.5602 11.496 79.5082 11.36 79.5082 11.2C79.5082 11.048 79.5602 10.92 79.6642 10.816C79.7762 10.712 79.9122 10.66 80.0722 10.66H83.8642C84.0722 10.66 84.2242 10.72 84.3202 10.84C84.4242 10.96 84.4762 11.1 84.4762 11.26C84.4762 11.348 84.4522 11.432 84.4042 11.512C84.3642 11.592 84.3122 11.668 84.2482 11.74L82.0162 14.14L81.7162 13.816C81.7802 13.784 81.8882 13.752 82.0402 13.72C82.1922 13.688 82.3162 13.672 82.4122 13.672C82.8682 13.672 83.2762 13.788 83.6362 14.02C84.0042 14.252 84.2882 14.564 84.4882 14.956C84.6962 15.34 84.8002 15.776 84.8002 16.264C84.8002 16.848 84.6682 17.356 84.4042 17.788C84.1402 18.212 83.7722 18.54 83.3002 18.772C82.8362 19.004 82.3002 19.12 81.6922 19.12C81.3882 19.12 81.0842 19.08 80.7802 19C80.4842 18.912 80.2282 18.788 80.0122 18.628C79.8762 18.548 79.7842 18.464 79.7362 18.376C79.6882 18.28 79.6642 18.188 79.6642 18.1C79.6642 17.948 79.7162 17.804 79.8202 17.668C79.9322 17.532 80.0722 17.464 80.2402 17.464Z" fill="#F2EEFF"/>
<defs>
<linearGradient id="paint0_linear_265_43" x1="8.99902" y1="23.2496" x2="23.7973" y2="19.9169" gradientUnits="userSpaceOnUse">
<stop stop-color="#FFD1A7"/>
<stop offset="1" stop-color="#FF5A8B"/>
</linearGradient>
</defs>
</svg>
