<svg width="113" height="30" viewBox="0 0 113 30" fill="none" xmlns="http://www.w3.org/2000/svg">
<rect width="113" height="30" rx="4" fill="#161316"/>
<path d="M45.596 10.588C45.692 10.588 45.792 10.612 45.896 10.66C46 10.708 46.08 10.776 46.136 10.864L49.184 15.508L48.668 15.484L51.776 10.864C51.904 10.68 52.068 10.588 52.268 10.588C52.428 10.588 52.568 10.648 52.688 10.768C52.816 10.88 52.88 11.024 52.88 11.2V18.388C52.88 18.564 52.824 18.712 52.712 18.832C52.6 18.944 52.452 19 52.268 19C52.076 19 51.92 18.944 51.8 18.832C51.688 18.712 51.632 18.564 51.632 18.388V12.304L52.016 12.388L49.376 16.408C49.32 16.48 49.248 16.544 49.16 16.6C49.072 16.648 48.98 16.668 48.884 16.66C48.796 16.668 48.704 16.648 48.608 16.6C48.52 16.544 48.448 16.48 48.392 16.408L45.848 12.448L46.136 11.968V18.388C46.136 18.564 46.08 18.712 45.968 18.832C45.864 18.944 45.724 19 45.548 19C45.38 19 45.24 18.944 45.128 18.832C45.024 18.712 44.972 18.564 44.972 18.388V11.2C44.972 11.032 45.032 10.888 45.152 10.768C45.28 10.648 45.428 10.588 45.596 10.588ZM59.8792 12.592C60.0552 12.592 60.1992 12.652 60.3112 12.772C60.4232 12.884 60.4792 13.028 60.4792 13.204V18.388C60.4792 18.564 60.4232 18.712 60.3112 18.832C60.1992 18.944 60.0552 19 59.8792 19C59.7112 19 59.5672 18.944 59.4472 18.832C59.3352 18.712 59.2792 18.564 59.2792 18.388V17.524L59.5312 17.56C59.5312 17.704 59.4712 17.864 59.3512 18.04C59.2392 18.216 59.0832 18.388 58.8832 18.556C58.6832 18.716 58.4472 18.852 58.1752 18.964C57.9032 19.068 57.6112 19.12 57.2992 19.12C56.7472 19.12 56.2512 18.98 55.8112 18.7C55.3712 18.412 55.0232 18.02 54.7672 17.524C54.5112 17.028 54.3832 16.464 54.3832 15.832C54.3832 15.184 54.5112 14.616 54.7672 14.128C55.0232 13.632 55.3672 13.244 55.7992 12.964C56.2392 12.684 56.7272 12.544 57.2632 12.544C57.6072 12.544 57.9232 12.6 58.2112 12.712C58.5072 12.824 58.7632 12.968 58.9792 13.144C59.1952 13.32 59.3592 13.508 59.4712 13.708C59.5912 13.9 59.6512 14.084 59.6512 14.26L59.2792 14.296V13.204C59.2792 13.036 59.3352 12.892 59.4472 12.772C59.5672 12.652 59.7112 12.592 59.8792 12.592ZM57.4312 18.016C57.8072 18.016 58.1392 17.92 58.4272 17.728C58.7152 17.536 58.9392 17.276 59.0992 16.948C59.2592 16.612 59.3392 16.24 59.3392 15.832C59.3392 15.416 59.2592 15.044 59.0992 14.716C58.9392 14.388 58.7152 14.128 58.4272 13.936C58.1392 13.744 57.8072 13.648 57.4312 13.648C57.0632 13.648 56.7352 13.744 56.4472 13.936C56.1672 14.128 55.9432 14.388 55.7752 14.716C55.6152 15.044 55.5352 15.416 55.5352 15.832C55.5352 16.24 55.6152 16.612 55.7752 16.948C55.9432 17.276 56.1672 17.536 56.4472 17.728C56.7352 17.92 57.0632 18.016 57.4312 18.016ZM61.7883 18.016C61.7163 17.904 61.6843 17.776 61.6923 17.632C61.7003 17.48 61.7843 17.352 61.9443 17.248C62.0563 17.176 62.1723 17.148 62.2923 17.164C62.4203 17.172 62.5403 17.232 62.6523 17.344C62.8763 17.592 63.1243 17.788 63.3963 17.932C63.6763 18.076 64.0123 18.148 64.4043 18.148C64.5643 18.14 64.7283 18.116 64.8963 18.076C65.0643 18.028 65.2083 17.948 65.3283 17.836C65.4483 17.716 65.5083 17.544 65.5083 17.32C65.5083 17.12 65.4443 16.96 65.3163 16.84C65.1883 16.72 65.0203 16.624 64.8123 16.552C64.6043 16.472 64.3803 16.4 64.1403 16.336C63.8843 16.264 63.6243 16.184 63.3603 16.096C63.1043 16.008 62.8723 15.896 62.6643 15.76C62.4563 15.616 62.2843 15.432 62.1483 15.208C62.0203 14.984 61.9563 14.708 61.9563 14.38C61.9563 14.004 62.0603 13.68 62.2683 13.408C62.4843 13.136 62.7603 12.924 63.0963 12.772C63.4403 12.62 63.8123 12.544 64.2123 12.544C64.4443 12.544 64.6883 12.576 64.9443 12.64C65.2003 12.696 65.4483 12.788 65.6883 12.916C65.9283 13.044 66.1363 13.212 66.3123 13.42C66.3923 13.524 66.4363 13.648 66.4443 13.792C66.4603 13.936 66.3963 14.064 66.2523 14.176C66.1563 14.256 66.0403 14.292 65.9043 14.284C65.7683 14.276 65.6563 14.232 65.5683 14.152C65.4163 13.96 65.2203 13.812 64.9803 13.708C64.7403 13.596 64.4683 13.54 64.1643 13.54C64.0123 13.54 63.8523 13.564 63.6843 13.612C63.5243 13.652 63.3883 13.728 63.2763 13.84C63.1643 13.952 63.1083 14.116 63.1083 14.332C63.1083 14.532 63.1723 14.692 63.3003 14.812C63.4363 14.932 63.6123 15.032 63.8283 15.112C64.0443 15.192 64.2803 15.264 64.5363 15.328C64.7843 15.392 65.0283 15.468 65.2683 15.556C65.5163 15.644 65.7363 15.76 65.9283 15.904C66.1283 16.04 66.2883 16.22 66.4083 16.444C66.5363 16.66 66.6003 16.936 66.6003 17.272C66.6003 17.664 66.4843 18 66.2523 18.28C66.0283 18.552 65.7403 18.76 65.3883 18.904C65.0443 19.048 64.6803 19.12 64.2963 19.12C63.8403 19.12 63.3843 19.04 62.9283 18.88C62.4803 18.712 62.1003 18.424 61.7883 18.016ZM67.8068 12.76H70.6268C70.7868 12.76 70.9188 12.816 71.0228 12.928C71.1348 13.032 71.1908 13.164 71.1908 13.324C71.1908 13.476 71.1348 13.604 71.0228 13.708C70.9188 13.812 70.7868 13.864 70.6268 13.864H67.8068C67.6468 13.864 67.5108 13.812 67.3988 13.708C67.2948 13.596 67.2428 13.464 67.2428 13.312C67.2428 13.152 67.2948 13.02 67.3988 12.916C67.5108 12.812 67.6468 12.76 67.8068 12.76ZM69.0668 11.2C69.2428 11.2 69.3868 11.26 69.4988 11.38C69.6108 11.492 69.6668 11.636 69.6668 11.812V17.38C69.6668 17.524 69.6908 17.64 69.7388 17.728C69.7868 17.816 69.8508 17.876 69.9308 17.908C70.0188 17.94 70.1068 17.956 70.1948 17.956C70.2828 17.956 70.3588 17.94 70.4228 17.908C70.4948 17.876 70.5788 17.86 70.6748 17.86C70.7708 17.86 70.8588 17.904 70.9388 17.992C71.0188 18.08 71.0588 18.2 71.0588 18.352C71.0588 18.544 70.9548 18.7 70.7468 18.82C70.5388 18.94 70.3148 19 70.0748 19C69.9388 19 69.7788 18.988 69.5948 18.964C69.4108 18.94 69.2308 18.88 69.0548 18.784C68.8868 18.688 68.7468 18.536 68.6348 18.328C68.5228 18.112 68.4668 17.812 68.4668 17.428V11.812C68.4668 11.636 68.5228 11.492 68.6348 11.38C68.7548 11.26 68.8988 11.2 69.0668 11.2ZM78.5091 15.844C78.5091 16.484 78.3691 17.052 78.0891 17.548C77.8091 18.036 77.4291 18.42 76.9491 18.7C76.4691 18.98 75.9291 19.12 75.3291 19.12C74.7291 19.12 74.1891 18.98 73.7091 18.7C73.2291 18.42 72.8451 18.036 72.5571 17.548C72.2771 17.052 72.1371 16.484 72.1371 15.844C72.1371 15.196 72.2771 14.628 72.5571 14.14C72.8451 13.644 73.2291 13.256 73.7091 12.976C74.1891 12.688 74.7291 12.544 75.3291 12.544C75.9291 12.544 76.4691 12.688 76.9491 12.976C77.4291 13.256 77.8091 13.644 78.0891 14.14C78.3691 14.628 78.5091 15.196 78.5091 15.844ZM77.3091 15.844C77.3091 15.404 77.2211 15.024 77.0451 14.704C76.8691 14.376 76.6291 14.12 76.3251 13.936C76.0291 13.744 75.6971 13.648 75.3291 13.648C74.9611 13.648 74.6251 13.744 74.3211 13.936C74.0171 14.12 73.7771 14.376 73.6011 14.704C73.4251 15.024 73.3371 15.404 73.3371 15.844C73.3371 16.268 73.4251 16.644 73.6011 16.972C73.7771 17.3 74.0171 17.556 74.3211 17.74C74.6251 17.924 74.9611 18.016 75.3291 18.016C75.6971 18.016 76.0291 17.924 76.3251 17.74C76.6291 17.556 76.8691 17.3 77.0451 16.972C77.2211 16.644 77.3091 16.268 77.3091 15.844ZM85.0393 10.12C85.2153 10.12 85.3593 10.176 85.4713 10.288C85.5833 10.4 85.6393 10.548 85.6393 10.732V18.388C85.6393 18.564 85.5833 18.712 85.4713 18.832C85.3593 18.944 85.2153 19 85.0393 19C84.8713 19 84.7273 18.944 84.6073 18.832C84.4953 18.712 84.4393 18.564 84.4393 18.388V17.524L84.6913 17.536C84.6913 17.68 84.6313 17.844 84.5113 18.028C84.3993 18.204 84.2433 18.376 84.0433 18.544C83.8433 18.712 83.6073 18.852 83.3353 18.964C83.0633 19.068 82.7713 19.12 82.4593 19.12C81.9073 19.12 81.4113 18.98 80.9713 18.7C80.5313 18.412 80.1833 18.024 79.9273 17.536C79.6713 17.04 79.5433 16.472 79.5433 15.832C79.5433 15.192 79.6713 14.628 79.9273 14.14C80.1833 13.644 80.5273 13.256 80.9593 12.976C81.3993 12.688 81.8873 12.544 82.4233 12.544C82.7593 12.544 83.0713 12.6 83.3593 12.712C83.6553 12.824 83.9113 12.968 84.1273 13.144C84.3433 13.32 84.5113 13.508 84.6313 13.708C84.7513 13.9 84.8113 14.084 84.8113 14.26L84.4393 14.296V10.732C84.4393 10.556 84.4953 10.412 84.6073 10.3C84.7273 10.18 84.8713 10.12 85.0393 10.12ZM82.5913 18.016C82.9753 18.016 83.3073 17.92 83.5873 17.728C83.8753 17.536 84.0993 17.276 84.2593 16.948C84.4193 16.62 84.4993 16.248 84.4993 15.832C84.4993 15.416 84.4193 15.044 84.2593 14.716C84.0993 14.388 83.8753 14.128 83.5873 13.936C83.2993 13.744 82.9673 13.648 82.5913 13.648C82.2233 13.648 81.8953 13.744 81.6073 13.936C81.3273 14.128 81.1033 14.388 80.9353 14.716C80.7753 15.044 80.6953 15.416 80.6953 15.832C80.6953 16.248 80.7753 16.62 80.9353 16.948C81.1033 17.276 81.3273 17.536 81.6073 17.728C81.8953 17.92 82.2233 18.016 82.5913 18.016ZM93.3685 15.844C93.3685 16.484 93.2285 17.052 92.9485 17.548C92.6685 18.036 92.2885 18.42 91.8085 18.7C91.3285 18.98 90.7885 19.12 90.1885 19.12C89.5885 19.12 89.0485 18.98 88.5685 18.7C88.0885 18.42 87.7045 18.036 87.4165 17.548C87.1365 17.052 86.9965 16.484 86.9965 15.844C86.9965 15.196 87.1365 14.628 87.4165 14.14C87.7045 13.644 88.0885 13.256 88.5685 12.976C89.0485 12.688 89.5885 12.544 90.1885 12.544C90.7885 12.544 91.3285 12.688 91.8085 12.976C92.2885 13.256 92.6685 13.644 92.9485 14.14C93.2285 14.628 93.3685 15.196 93.3685 15.844ZM92.1685 15.844C92.1685 15.404 92.0805 15.024 91.9045 14.704C91.7285 14.376 91.4885 14.12 91.1845 13.936C90.8885 13.744 90.5565 13.648 90.1885 13.648C89.8205 13.648 89.4845 13.744 89.1805 13.936C88.8765 14.12 88.6365 14.376 88.4605 14.704C88.2845 15.024 88.1965 15.404 88.1965 15.844C88.1965 16.268 88.2845 16.644 88.4605 16.972C88.6365 17.3 88.8765 17.556 89.1805 17.74C89.4845 17.924 89.8205 18.016 90.1885 18.016C90.5565 18.016 90.8885 17.924 91.1845 17.74C91.4885 17.556 91.7285 17.3 91.9045 16.972C92.0805 16.644 92.1685 16.268 92.1685 15.844ZM97.9787 12.544C98.5467 12.544 98.9867 12.664 99.2987 12.904C99.6107 13.136 99.8267 13.452 99.9467 13.852C100.075 14.244 100.139 14.684 100.139 15.172V18.388C100.139 18.564 100.079 18.712 99.9587 18.832C99.8467 18.944 99.7067 19 99.5387 19C99.3627 19 99.2187 18.944 99.1067 18.832C98.9947 18.712 98.9387 18.564 98.9387 18.388V15.184C98.9387 14.896 98.8987 14.64 98.8187 14.416C98.7387 14.184 98.5987 14 98.3987 13.864C98.2067 13.72 97.9347 13.648 97.5827 13.648C97.2547 13.648 96.9667 13.72 96.7187 13.864C96.4707 14 96.2747 14.184 96.1307 14.416C95.9947 14.64 95.9267 14.896 95.9267 15.184V18.388C95.9267 18.564 95.8667 18.712 95.7467 18.832C95.6347 18.944 95.4947 19 95.3267 19C95.1507 19 95.0067 18.944 94.8947 18.832C94.7827 18.712 94.7267 18.564 94.7267 18.388V13.3C94.7267 13.124 94.7827 12.98 94.8947 12.868C95.0067 12.748 95.1507 12.688 95.3267 12.688C95.4947 12.688 95.6347 12.748 95.7467 12.868C95.8667 12.98 95.9267 13.124 95.9267 13.3V13.972L95.7107 14.092C95.7667 13.916 95.8627 13.74 95.9987 13.564C96.1427 13.38 96.3147 13.212 96.5147 13.06C96.7147 12.9 96.9387 12.776 97.1867 12.688C97.4347 12.592 97.6987 12.544 97.9787 12.544Z" fill="#F2EEFF"/>
<path d="M21.7049 16.5C21.4949 17.5575 19.8749 18.72 17.9774 18.945C16.9949 19.0575 16.0274 19.17 14.9999 19.125C13.3124 19.0425 11.9999 18.72 11.9999 18.72V19.185C12.2399 20.85 13.6649 20.9475 15.0224 21C16.3874 21.0375 17.6024 20.655 17.6024 20.655L17.6624 21.8925C17.6624 21.8925 16.7024 22.4025 14.9999 22.5C14.0624 22.5525 12.8924 22.4775 11.5349 22.125C8.59494 21.3375 8.08494 18.195 8.00994 15L8.00244 12.4275C8.00244 9.1725 10.1249 8.22 10.1249 8.22C11.2124 7.725 13.0574 7.5 14.9774 7.5H15.0224C16.9424 7.5 18.7874 7.725 19.8749 8.22C19.8749 8.22 21.9974 9.1725 21.9974 12.4275C21.9974 12.4275 22.0274 14.835 21.7049 16.5ZM19.4999 12.6825C19.4999 11.8725 19.2749 11.25 18.8624 10.7625C18.4424 10.29 17.8874 10.0425 17.1899 10.0425C16.3949 10.0425 15.7874 10.35 15.3749 10.965L14.9999 11.625L14.6249 10.965C14.2049 10.35 13.6049 10.0425 12.8024 10.0425C12.1124 10.0425 11.5574 10.29 11.1299 10.7625C10.7174 11.25 10.4999 11.8725 10.4999 12.6825V16.6275H12.0749V12.795C12.0749 12 12.4124 11.58 13.0949 11.58C13.8449 11.58 14.2199 12.0675 14.2199 13.0275V15.12H15.7724V13.0275C15.7724 12.0675 16.1474 11.58 16.9049 11.58C17.5799 11.58 17.9174 12 17.9174 12.795V16.6275H19.4999V12.6825Z" fill="url(#paint0_linear_701_2)"/>
<rect x="30" width="2" height="30" fill="#F2EEFF" fill-opacity="0.1"/>
<defs>
<linearGradient id="paint0_linear_701_2" x1="8.00244" y1="22.5151" x2="24.8556" y2="17.8722" gradientUnits="userSpaceOnUse">
<stop stop-color="#FFD1A7"/>
<stop offset="1" stop-color="#FF5A8B"/>
</linearGradient>
</defs>
</svg>
