<svg width="92" height="30" viewBox="0 0 92 30" fill="none" xmlns="http://www.w3.org/2000/svg">
<rect width="92" height="30" rx="4" fill="#161316"/>
<g clip-path="url(#clip0_265_35)">
<path d="M6.47475 6.414V23.5877H7.71056V24.0011H6V6.00113H7.71056V6.41456L6.47475 6.414ZM11.7572 11.8573V12.7275H11.7803C11.9964 12.4094 12.283 12.1455 12.6178 11.9563C12.9435 11.7746 13.3215 11.6841 13.7428 11.6841C14.1473 11.6841 14.5191 11.7634 14.8537 11.9186C15.1907 12.0767 15.4427 12.3551 15.6182 12.7506C15.8089 12.4693 16.0699 12.2201 16.3944 12.0064C16.7201 11.7926 17.1071 11.6841 17.5549 11.6841C17.8737 11.6808 18.1914 11.7233 18.4982 11.8101C18.7912 11.8916 19.0376 12.0238 19.2452 12.2055C19.4505 12.3906 19.6114 12.6279 19.7289 12.921C19.8431 13.2135 19.9016 13.5684 19.9016 13.9847V18.2794H18.1416V14.6411C18.1421 14.4376 18.1331 14.2341 18.1146 14.0314C18.1038 13.859 18.0581 13.6905 17.9801 13.5364C17.9067 13.3947 17.7922 13.2784 17.6516 13.2028C17.5082 13.1173 17.3091 13.0768 17.0627 13.0768C16.8135 13.0768 16.6144 13.1235 16.4619 13.2169C16.3125 13.3099 16.1887 13.4389 16.1019 13.5921C16.0118 13.7534 15.953 13.9303 15.9287 14.1135C15.9003 14.3088 15.8847 14.5057 15.882 14.703V18.2799H14.1208V14.6794C14.1208 14.4887 14.118 14.3014 14.1067 14.1169C14.1016 13.94 14.0649 13.7655 13.9982 13.6016C13.9395 13.4447 13.8302 13.3117 13.6877 13.2236C13.5442 13.1297 13.3299 13.0802 13.0487 13.0802C12.9638 13.0802 12.8529 13.0976 12.7179 13.1359C12.5829 13.1736 12.4485 13.2439 12.3225 13.3468C12.18 13.4696 12.0668 13.6228 11.9912 13.7951C11.9006 13.9881 11.8567 14.2429 11.8567 14.5596V18.2833H10.0956V11.859L11.7572 11.8573ZM23.5253 23.5871V6.41344H22.2894V6H24V24H22.2894V23.5866L23.5253 23.5871Z" fill="black"/>
<path d="M6.47475 6.414V23.5877H7.71056V24.0011H6V6.00113H7.71056V6.41456L6.47475 6.414ZM11.7572 11.8573V12.7275H11.7803C11.9964 12.4094 12.283 12.1455 12.6178 11.9563C12.9435 11.7746 13.3215 11.6841 13.7428 11.6841C14.1473 11.6841 14.5191 11.7634 14.8537 11.9186C15.1907 12.0767 15.4427 12.3551 15.6182 12.7506C15.8089 12.4693 16.0699 12.2201 16.3944 12.0064C16.7201 11.7926 17.1071 11.6841 17.5549 11.6841C17.8737 11.6808 18.1914 11.7233 18.4982 11.8101C18.7912 11.8916 19.0376 12.0238 19.2452 12.2055C19.4505 12.3906 19.6114 12.6279 19.7289 12.921C19.8431 13.2135 19.9016 13.5684 19.9016 13.9847V18.2794H18.1416V14.6411C18.1421 14.4376 18.1331 14.2341 18.1146 14.0314C18.1038 13.859 18.0581 13.6905 17.9801 13.5364C17.9067 13.3947 17.7922 13.2784 17.6516 13.2028C17.5082 13.1173 17.3091 13.0768 17.0627 13.0768C16.8135 13.0768 16.6144 13.1235 16.4619 13.2169C16.3125 13.3099 16.1887 13.4389 16.1019 13.5921C16.0118 13.7534 15.953 13.9303 15.9287 14.1135C15.9003 14.3088 15.8847 14.5057 15.882 14.703V18.2799H14.1208V14.6794C14.1208 14.4887 14.118 14.3014 14.1067 14.1169C14.1016 13.94 14.0649 13.7655 13.9982 13.6016C13.9395 13.4447 13.8302 13.3117 13.6877 13.2236C13.5442 13.1297 13.3299 13.0802 13.0487 13.0802C12.9638 13.0802 12.8529 13.0976 12.7179 13.1359C12.5829 13.1736 12.4485 13.2439 12.3225 13.3468C12.18 13.4696 12.0668 13.6228 11.9912 13.7951C11.9006 13.9881 11.8567 14.2429 11.8567 14.5596V18.2833H10.0956V11.859L11.7572 11.8573ZM23.5253 23.5871V6.41344H22.2894V6H24V24H22.2894V23.5866L23.5253 23.5871Z" fill="url(#paint0_linear_265_35)"/>
</g>
<rect x="30" width="2" height="30" fill="#F2EEFF" fill-opacity="0.1"/>
<path d="M45.596 10.588C45.692 10.588 45.792 10.612 45.896 10.66C46 10.708 46.08 10.776 46.136 10.864L49.184 15.508L48.668 15.484L51.776 10.864C51.904 10.68 52.068 10.588 52.268 10.588C52.428 10.588 52.568 10.648 52.688 10.768C52.816 10.88 52.88 11.024 52.88 11.2V18.388C52.88 18.564 52.824 18.712 52.712 18.832C52.6 18.944 52.452 19 52.268 19C52.076 19 51.92 18.944 51.8 18.832C51.688 18.712 51.632 18.564 51.632 18.388V12.304L52.016 12.388L49.376 16.408C49.32 16.48 49.248 16.544 49.16 16.6C49.072 16.648 48.98 16.668 48.884 16.66C48.796 16.668 48.704 16.648 48.608 16.6C48.52 16.544 48.448 16.48 48.392 16.408L45.848 12.448L46.136 11.968V18.388C46.136 18.564 46.08 18.712 45.968 18.832C45.864 18.944 45.724 19 45.548 19C45.38 19 45.24 18.944 45.128 18.832C45.024 18.712 44.972 18.564 44.972 18.388V11.2C44.972 11.032 45.032 10.888 45.152 10.768C45.28 10.648 45.428 10.588 45.596 10.588ZM59.8792 12.592C60.0552 12.592 60.1992 12.652 60.3112 12.772C60.4232 12.884 60.4792 13.028 60.4792 13.204V18.388C60.4792 18.564 60.4232 18.712 60.3112 18.832C60.1992 18.944 60.0552 19 59.8792 19C59.7112 19 59.5672 18.944 59.4472 18.832C59.3352 18.712 59.2792 18.564 59.2792 18.388V17.524L59.5312 17.56C59.5312 17.704 59.4712 17.864 59.3512 18.04C59.2392 18.216 59.0832 18.388 58.8832 18.556C58.6832 18.716 58.4472 18.852 58.1752 18.964C57.9032 19.068 57.6112 19.12 57.2992 19.12C56.7472 19.12 56.2512 18.98 55.8112 18.7C55.3712 18.412 55.0232 18.02 54.7672 17.524C54.5112 17.028 54.3832 16.464 54.3832 15.832C54.3832 15.184 54.5112 14.616 54.7672 14.128C55.0232 13.632 55.3672 13.244 55.7992 12.964C56.2392 12.684 56.7272 12.544 57.2632 12.544C57.6072 12.544 57.9232 12.6 58.2112 12.712C58.5072 12.824 58.7632 12.968 58.9792 13.144C59.1952 13.32 59.3592 13.508 59.4712 13.708C59.5912 13.9 59.6512 14.084 59.6512 14.26L59.2792 14.296V13.204C59.2792 13.036 59.3352 12.892 59.4472 12.772C59.5672 12.652 59.7112 12.592 59.8792 12.592ZM57.4312 18.016C57.8072 18.016 58.1392 17.92 58.4272 17.728C58.7152 17.536 58.9392 17.276 59.0992 16.948C59.2592 16.612 59.3392 16.24 59.3392 15.832C59.3392 15.416 59.2592 15.044 59.0992 14.716C58.9392 14.388 58.7152 14.128 58.4272 13.936C58.1392 13.744 57.8072 13.648 57.4312 13.648C57.0632 13.648 56.7352 13.744 56.4472 13.936C56.1672 14.128 55.9432 14.388 55.7752 14.716C55.6152 15.044 55.5352 15.416 55.5352 15.832C55.5352 16.24 55.6152 16.612 55.7752 16.948C55.9432 17.276 56.1672 17.536 56.4472 17.728C56.7352 17.92 57.0632 18.016 57.4312 18.016ZM62.0763 12.76H64.8963C65.0563 12.76 65.1883 12.816 65.2923 12.928C65.4043 13.032 65.4603 13.164 65.4603 13.324C65.4603 13.476 65.4043 13.604 65.2923 13.708C65.1883 13.812 65.0563 13.864 64.8963 13.864H62.0763C61.9163 13.864 61.7803 13.812 61.6683 13.708C61.5643 13.596 61.5123 13.464 61.5123 13.312C61.5123 13.152 61.5643 13.02 61.6683 12.916C61.7803 12.812 61.9163 12.76 62.0763 12.76ZM63.3363 11.2C63.5123 11.2 63.6563 11.26 63.7683 11.38C63.8803 11.492 63.9363 11.636 63.9363 11.812V17.38C63.9363 17.524 63.9603 17.64 64.0083 17.728C64.0563 17.816 64.1203 17.876 64.2003 17.908C64.2883 17.94 64.3763 17.956 64.4643 17.956C64.5523 17.956 64.6283 17.94 64.6923 17.908C64.7643 17.876 64.8483 17.86 64.9443 17.86C65.0403 17.86 65.1283 17.904 65.2083 17.992C65.2883 18.08 65.3283 18.2 65.3283 18.352C65.3283 18.544 65.2243 18.7 65.0163 18.82C64.8083 18.94 64.5843 19 64.3443 19C64.2083 19 64.0483 18.988 63.8643 18.964C63.6803 18.94 63.5003 18.88 63.3243 18.784C63.1563 18.688 63.0163 18.536 62.9043 18.328C62.7923 18.112 62.7363 17.812 62.7363 17.428V11.812C62.7363 11.636 62.7923 11.492 62.9043 11.38C63.0243 11.26 63.1683 11.2 63.3363 11.2ZM67.3892 19C67.2132 19 67.0692 18.944 66.9572 18.832C66.8452 18.712 66.7892 18.564 66.7892 18.388V13.3C66.7892 13.124 66.8452 12.98 66.9572 12.868C67.0692 12.748 67.2132 12.688 67.3892 12.688C67.5572 12.688 67.6972 12.748 67.8092 12.868C67.9292 12.98 67.9892 13.124 67.9892 13.3V14.644L67.8692 14.128C67.9332 13.904 68.0292 13.696 68.1572 13.504C68.2932 13.312 68.4532 13.144 68.6372 13C68.8212 12.856 69.0252 12.744 69.2492 12.664C69.4812 12.584 69.7212 12.544 69.9692 12.544C70.1772 12.544 70.3572 12.6 70.5092 12.712C70.6612 12.824 70.7372 12.964 70.7372 13.132C70.7372 13.348 70.6812 13.508 70.5692 13.612C70.4572 13.708 70.3332 13.756 70.1972 13.756C70.0772 13.756 69.9612 13.732 69.8492 13.684C69.7372 13.628 69.6052 13.6 69.4532 13.6C69.2852 13.6 69.1132 13.644 68.9372 13.732C68.7612 13.82 68.6012 13.952 68.4572 14.128C68.3132 14.296 68.1972 14.496 68.1092 14.728C68.0292 14.96 67.9892 15.22 67.9892 15.508V18.388C67.9892 18.564 67.9292 18.712 67.8092 18.832C67.6972 18.944 67.5572 19 67.3892 19ZM72.9328 18.388C72.9328 18.564 72.8768 18.712 72.7648 18.832C72.6528 18.944 72.5088 19 72.3328 19C72.1648 19 72.0208 18.944 71.9008 18.832C71.7888 18.712 71.7328 18.564 71.7328 18.388V13.252C71.7328 13.076 71.7888 12.932 71.9008 12.82C72.0208 12.7 72.1648 12.64 72.3328 12.64C72.5088 12.64 72.6528 12.7 72.7648 12.82C72.8768 12.932 72.9328 13.076 72.9328 13.252V18.388ZM72.3208 11.848C72.0888 11.848 71.9208 11.808 71.8168 11.728C71.7128 11.64 71.6608 11.496 71.6608 11.296V11.104C71.6608 10.904 71.7168 10.764 71.8288 10.684C71.9408 10.604 72.1088 10.564 72.3328 10.564C72.5728 10.564 72.7448 10.608 72.8488 10.696C72.9528 10.776 73.0048 10.912 73.0048 11.104V11.296C73.0048 11.504 72.9488 11.648 72.8368 11.728C72.7328 11.808 72.5608 11.848 72.3208 11.848ZM74.571 12.652C74.771 12.652 74.935 12.736 75.063 12.904L79.155 18.064C79.243 18.168 79.287 18.288 79.287 18.424C79.287 18.584 79.223 18.724 79.095 18.844C78.967 18.964 78.827 19.024 78.675 19.024C78.483 19.024 78.319 18.94 78.183 18.772L74.091 13.612C74.003 13.508 73.959 13.388 73.959 13.252C73.959 13.084 74.019 12.944 74.139 12.832C74.267 12.712 74.411 12.652 74.571 12.652ZM74.583 19.024C74.447 19.024 74.315 18.972 74.187 18.868C74.059 18.764 73.995 18.636 73.995 18.484C73.995 18.348 74.043 18.224 74.139 18.112L76.047 15.748L76.659 16.732L75.063 18.772C74.935 18.94 74.775 19.024 74.583 19.024ZM78.663 12.652C78.831 12.652 78.967 12.708 79.071 12.82C79.183 12.924 79.239 13.048 79.239 13.192C79.239 13.256 79.227 13.324 79.203 13.396C79.187 13.46 79.151 13.52 79.095 13.576L77.211 15.94L76.587 15.052L78.183 12.928C78.319 12.744 78.479 12.652 78.663 12.652Z" fill="#F2EEFF"/>
<defs>
<linearGradient id="paint0_linear_265_35" x1="6" y1="24.0011" x2="27.4468" y2="17.6628" gradientUnits="userSpaceOnUse">
<stop stop-color="#FFD1A7"/>
<stop offset="1" stop-color="#FF5A8B"/>
</linearGradient>
<clipPath id="clip0_265_35">
<rect width="18" height="18" fill="white" transform="translate(6 6)"/>
</clipPath>
</defs>
</svg>
