<svg width="646" height="250" viewBox="0 0 646 250" fill="none" xmlns="http://www.w3.org/2000/svg">
<g clip-path="url(#clip0_10_17)">
<path d="M636.68 229H9.32031C9.99939 229.951 10.6756 230.905 11.418 231.805C12.4369 233.039 13.5135 234.224 14.6445 235.355C15.7756 236.486 16.9606 237.563 18.1953 238.582C19.43 239.601 20.7149 240.562 22.0449 241.461C23.3749 242.359 24.751 243.195 26.168 243.965C27.5849 244.735 29.0416 245.438 30.5371 246.07C32.0326 246.703 33.5652 247.265 35.1309 247.752C36.6965 248.239 38.2964 248.651 39.9238 248.984C41.5513 249.317 43.2078 249.571 44.8887 249.742C46.5695 249.913 48.2741 250 50 250H596C597.726 250 599.43 249.913 601.111 249.742C602.792 249.571 604.449 249.317 606.076 248.984C607.704 248.651 609.304 248.239 610.869 247.752C612.435 247.265 613.967 246.703 615.463 246.07C616.958 245.438 618.415 244.735 619.832 243.965C621.249 243.195 622.625 242.359 623.955 241.461C625.285 240.562 626.57 239.601 627.805 238.582C629.039 237.563 630.224 236.486 631.355 235.355C632.486 234.224 633.563 233.039 634.582 231.805C635.324 230.905 636.001 229.951 636.68 229Z" fill="url(#paint0_linear_10_17)"/>
<path d="M50 0C48.2741 0 46.5695 0.0871124 44.8887 0.257812C43.2078 0.428513 41.5513 0.682602 39.9238 1.01562C38.2964 1.34865 36.6965 1.76108 35.1309 2.24805C33.5652 2.73501 32.0326 3.29715 30.5371 3.92969C29.0416 4.56222 27.5849 5.26543 26.168 6.03516C24.751 6.80488 23.3749 7.64053 22.0449 8.53906C20.7149 9.4376 19.43 10.399 18.1953 11.418C16.9606 12.4369 15.7756 13.5135 14.6445 14.6445C13.5135 15.7756 12.4369 16.9606 11.418 18.1953C10.399 19.43 9.4376 20.7149 8.53906 22.0449C7.64053 23.3749 6.80488 24.751 6.03516 26.168C5.26543 27.5849 4.56222 29.0416 3.92969 30.5371C3.29715 32.0326 2.73501 33.5652 2.24805 35.1309C1.76108 36.6965 1.34865 38.2964 1.01562 39.9238C0.682602 41.5513 0.428513 43.2078 0.257812 44.8887C0.0871124 46.5695 0 48.2741 0 50V200C0 201.726 0.0871124 203.43 0.257812 205.111C0.428513 206.792 0.682602 208.449 1.01562 210.076C1.34865 211.704 1.76108 213.304 2.24805 214.869C2.73501 216.435 3.29715 217.967 3.92969 219.463C4.56222 220.958 5.26543 222.415 6.03516 223.832C6.80488 225.249 7.64053 226.625 8.53906 227.955C8.78294 228.316 9.06734 228.646 9.32031 229H636.68C636.933 228.646 637.217 228.316 637.461 227.955C638.359 226.625 639.195 225.249 639.965 223.832C640.735 222.415 641.438 220.958 642.07 219.463C642.703 217.967 643.265 216.435 643.752 214.869C644.239 213.304 644.651 211.704 644.984 210.076C645.317 208.449 645.571 206.792 645.742 205.111C645.913 203.43 646 201.726 646 200V50C646 48.2741 645.913 46.5695 645.742 44.8887C645.571 43.2078 645.317 41.5513 644.984 39.9238C644.651 38.2964 644.239 36.6965 643.752 35.1309C643.265 33.5652 642.703 32.0326 642.07 30.5371C641.438 29.0416 640.735 27.5849 639.965 26.168C639.195 24.751 638.359 23.3749 637.461 22.0449C636.562 20.7149 635.601 19.43 634.582 18.1953C633.563 16.9606 632.486 15.7756 631.355 14.6445C630.224 13.5135 629.039 12.4369 627.805 11.418C626.57 10.399 625.285 9.4376 623.955 8.53906C622.625 7.64053 621.249 6.80488 619.832 6.03516C618.415 5.26543 616.958 4.56222 615.463 3.92969C613.967 3.29715 612.435 2.73501 610.869 2.24805C609.304 1.76108 607.704 1.34865 606.076 1.01562C604.449 0.682602 602.792 0.428513 601.111 0.257812C599.43 0.0871124 597.726 0 596 0H50Z" fill="#161316"/>
<path fill-rule="evenodd" clip-rule="evenodd" d="M125.044 73C95.712 73 72 96.8332 72 126.318C72 149.887 87.1931 169.838 108.27 176.899C110.905 177.43 111.87 175.752 111.87 174.34C111.87 173.104 111.783 168.867 111.783 164.452C97.0279 167.631 93.9552 158.097 93.9552 158.097C91.5839 151.917 88.0704 150.329 88.0704 150.329C83.2409 147.063 88.4222 147.063 88.4222 147.063C93.7793 147.416 96.5904 152.536 96.5904 152.536C101.332 160.656 108.972 158.362 112.046 156.949C112.485 153.506 113.891 151.123 115.384 149.799C103.615 148.563 91.2332 143.973 91.2332 123.493C91.2332 117.667 93.3396 112.9 96.6772 109.193C96.1506 107.869 94.3059 102.395 97.2049 95.0685C97.2049 95.0685 101.684 93.6558 111.782 100.541C116.106 99.3744 120.565 98.7806 125.044 98.7756C129.523 98.7756 134.088 99.3942 138.304 100.541C148.404 93.6558 152.883 95.0685 152.883 95.0685C155.782 102.395 153.936 107.869 153.409 109.193C156.835 112.9 158.855 117.667 158.855 123.493C158.855 143.973 146.472 148.474 134.616 149.799C136.549 151.476 138.216 154.654 138.216 159.686C138.216 166.836 138.129 172.574 138.129 174.339C138.129 175.752 139.096 177.43 141.73 176.9C162.807 169.837 178 149.887 178 126.318C178.087 96.8332 154.288 73 125.044 73Z" fill="#F2EEFF"/>
<path d="M252.619 147H237.666V104.818H252.743C256.986 104.818 260.638 105.663 263.7 107.352C266.762 109.027 269.117 111.437 270.765 114.581C272.426 117.725 273.257 121.488 273.257 125.868C273.257 130.262 272.426 134.038 270.765 137.196C269.117 140.354 266.749 142.778 263.659 144.467C260.583 146.156 256.903 147 252.619 147ZM246.585 139.359H252.249C254.885 139.359 257.103 138.892 258.901 137.958C260.714 137.011 262.073 135.548 262.979 133.571C263.899 131.58 264.359 129.012 264.359 125.868C264.359 122.751 263.899 120.204 262.979 118.227C262.073 116.249 260.721 114.794 258.922 113.86C257.123 112.926 254.906 112.46 252.269 112.46H246.585V139.359ZM318.626 125.909C318.626 130.509 317.754 134.422 316.01 137.649C314.28 140.876 311.919 143.341 308.925 145.043C305.946 146.732 302.595 147.577 298.874 147.577C295.126 147.577 291.761 146.725 288.782 145.023C285.802 143.32 283.447 140.855 281.717 137.629C279.987 134.402 279.122 130.495 279.122 125.909C279.122 121.309 279.987 117.396 281.717 114.169C283.447 110.942 285.802 108.484 288.782 106.795C291.761 105.093 295.126 104.241 298.874 104.241C302.595 104.241 305.946 105.093 308.925 106.795C311.919 108.484 314.28 110.942 316.01 114.169C317.754 117.396 318.626 121.309 318.626 125.909ZM309.584 125.909C309.584 122.929 309.138 120.417 308.246 118.371C307.367 116.325 306.124 114.773 304.518 113.716C302.911 112.659 301.03 112.13 298.874 112.13C296.718 112.13 294.837 112.659 293.231 113.716C291.624 114.773 290.375 116.325 289.482 118.371C288.603 120.417 288.164 122.929 288.164 125.909C288.164 128.889 288.603 131.402 289.482 133.447C290.375 135.493 291.624 137.045 293.231 138.102C294.837 139.16 296.718 139.688 298.874 139.688C301.03 139.688 302.911 139.16 304.518 138.102C306.124 137.045 307.367 135.493 308.246 133.447C309.138 131.402 309.584 128.889 309.584 125.909ZM333.142 147L321.072 104.818H330.814L337.797 134.127H338.147L345.85 104.818H354.191L361.874 134.189H362.245L369.227 104.818H378.969L366.9 147H358.208L350.175 119.421H349.846L341.833 147H333.142ZM419.024 104.818V147H411.321L392.97 120.451H392.661V147H383.742V104.818H391.569L409.776 131.347H410.147V104.818H419.024ZM426.393 147V104.818H435.311V139.647H453.395V147H426.393ZM496.421 125.909C496.421 130.509 495.549 134.422 493.805 137.649C492.075 140.876 489.714 143.341 486.72 145.043C483.741 146.732 480.39 147.577 476.669 147.577C472.92 147.577 469.556 146.725 466.577 145.023C463.597 143.32 461.242 140.855 459.512 137.629C457.782 134.402 456.917 130.495 456.917 125.909C456.917 121.309 457.782 117.396 459.512 114.169C461.242 110.942 463.597 108.484 466.577 106.795C469.556 105.093 472.92 104.241 476.669 104.241C480.39 104.241 483.741 105.093 486.72 106.795C489.714 108.484 492.075 110.942 493.805 114.169C495.549 117.396 496.421 121.309 496.421 125.909ZM487.379 125.909C487.379 122.929 486.933 120.417 486.04 118.371C485.162 116.325 483.919 114.773 482.312 113.716C480.706 112.659 478.825 112.13 476.669 112.13C474.513 112.13 472.632 112.659 471.026 113.716C469.419 114.773 468.17 116.325 467.277 118.371C466.398 120.417 465.959 122.929 465.959 125.909C465.959 128.889 466.398 131.402 467.277 133.447C468.17 135.493 469.419 137.045 471.026 138.102C472.632 139.16 474.513 139.688 476.669 139.688C478.825 139.688 480.706 139.16 482.312 138.102C483.919 137.045 485.162 135.493 486.04 133.447C486.933 131.402 487.379 128.889 487.379 125.909ZM507.919 147H498.362L512.924 104.818H524.417L538.958 147H529.401L518.835 114.457H518.506L507.919 147ZM507.322 130.42H529.896V137.381H507.322V130.42ZM558.988 147H544.035V104.818H559.112C563.355 104.818 567.007 105.663 570.069 107.352C573.131 109.027 575.486 111.437 577.134 114.581C578.796 117.725 579.626 121.488 579.626 125.868C579.626 130.262 578.796 134.038 577.134 137.196C575.486 140.354 573.118 142.778 570.028 144.467C566.952 146.156 563.273 147 558.988 147ZM552.954 139.359H558.618C561.254 139.359 563.472 138.892 565.27 137.958C567.083 137.011 568.442 135.548 569.349 133.571C570.269 131.58 570.729 129.012 570.729 125.868C570.729 122.751 570.269 120.204 569.349 118.227C568.442 116.249 567.09 114.794 565.291 113.86C563.492 112.926 561.275 112.46 558.638 112.46H552.954V139.359Z" fill="#F2EEFF"/>
<path d="M303.46 180.22C302.769 180.22 302.146 180.097 301.592 179.851C301.043 179.6 300.607 179.231 300.286 178.743C299.968 178.255 299.81 177.654 299.81 176.939C299.81 176.323 299.923 175.814 300.151 175.412C300.378 175.009 300.688 174.688 301.081 174.446C301.474 174.205 301.917 174.022 302.409 173.899C302.906 173.771 303.42 173.679 303.95 173.622C304.589 173.556 305.108 173.497 305.506 173.445C305.903 173.388 306.192 173.303 306.372 173.189C306.557 173.071 306.649 172.888 306.649 172.642V172.599C306.649 172.064 306.491 171.65 306.173 171.357C305.856 171.063 305.399 170.916 304.803 170.916C304.173 170.916 303.673 171.054 303.304 171.328C302.939 171.603 302.693 171.927 302.565 172.301L300.165 171.96C300.354 171.297 300.667 170.743 301.102 170.298C301.538 169.848 302.071 169.512 302.7 169.29C303.33 169.062 304.026 168.949 304.788 168.949C305.314 168.949 305.837 169.01 306.358 169.134C306.879 169.257 307.355 169.46 307.786 169.744C308.216 170.024 308.562 170.405 308.822 170.888C309.088 171.371 309.22 171.974 309.22 172.699V180H306.749V178.501H306.663C306.507 178.804 306.287 179.089 306.003 179.354C305.723 179.614 305.371 179.825 304.945 179.986C304.523 180.142 304.028 180.22 303.46 180.22ZM304.128 178.331C304.644 178.331 305.091 178.229 305.47 178.026C305.849 177.817 306.14 177.543 306.344 177.202C306.552 176.861 306.656 176.489 306.656 176.087V174.801C306.576 174.867 306.438 174.929 306.244 174.986C306.055 175.043 305.842 175.092 305.605 175.135C305.368 175.178 305.134 175.215 304.902 175.249C304.67 175.282 304.469 175.31 304.298 175.334C303.915 175.386 303.571 175.471 303.268 175.589C302.965 175.708 302.726 175.874 302.551 176.087C302.376 176.295 302.288 176.565 302.288 176.896C302.288 177.37 302.461 177.727 302.807 177.969C303.152 178.21 303.593 178.331 304.128 178.331ZM311.805 180V169.091H314.298V170.909H314.412C314.611 170.279 314.952 169.794 315.435 169.453C315.922 169.107 316.479 168.935 317.104 168.935C317.246 168.935 317.404 168.942 317.58 168.956C317.759 168.965 317.909 168.982 318.027 169.006V171.371C317.918 171.333 317.745 171.3 317.509 171.271C317.277 171.238 317.052 171.222 316.834 171.222C316.365 171.222 315.944 171.323 315.57 171.527C315.2 171.726 314.909 172.003 314.696 172.358C314.483 172.713 314.376 173.123 314.376 173.587V180H311.805ZM319.735 180V169.091H322.192V170.945H322.32C322.548 170.32 322.924 169.832 323.45 169.482C323.975 169.126 324.603 168.949 325.332 168.949C326.07 168.949 326.693 169.129 327.2 169.489C327.711 169.844 328.071 170.329 328.279 170.945H328.393C328.634 170.339 329.041 169.856 329.614 169.496C330.192 169.131 330.876 168.949 331.667 168.949C332.671 168.949 333.49 169.266 334.124 169.901C334.759 170.535 335.076 171.461 335.076 172.678V180H332.498V173.075C332.498 172.398 332.318 171.903 331.958 171.591C331.598 171.274 331.158 171.115 330.637 171.115C330.017 171.115 329.531 171.309 329.181 171.697C328.835 172.081 328.663 172.58 328.663 173.196V180H326.141V172.969C326.141 172.405 325.971 171.955 325.63 171.619C325.294 171.283 324.853 171.115 324.309 171.115C323.94 171.115 323.603 171.21 323.3 171.399C322.997 171.584 322.756 171.847 322.576 172.188C322.396 172.524 322.306 172.917 322.306 173.366V180H319.735ZM342.983 180.199C342.287 180.194 341.607 180.073 340.944 179.837C340.281 179.595 339.685 179.205 339.154 178.665C338.624 178.12 338.203 177.398 337.89 176.499C337.578 175.594 337.424 174.474 337.429 173.139C337.429 171.894 337.561 170.784 337.826 169.808C338.092 168.833 338.473 168.009 338.97 167.337C339.467 166.66 340.066 166.143 340.767 165.788C341.472 165.433 342.261 165.256 343.132 165.256C344.046 165.256 344.855 165.436 345.561 165.795C346.271 166.155 346.844 166.648 347.279 167.273C347.715 167.893 347.985 168.594 348.089 169.375H345.497C345.364 168.816 345.092 168.371 344.68 168.04C344.273 167.704 343.757 167.536 343.132 167.536C342.123 167.536 341.347 167.973 340.802 168.849C340.262 169.725 339.99 170.928 339.985 172.457H340.085C340.317 172.041 340.618 171.683 340.987 171.385C341.356 171.087 341.773 170.857 342.237 170.696C342.706 170.53 343.2 170.447 343.721 170.447C344.574 170.447 345.338 170.651 346.015 171.058C346.697 171.465 347.237 172.027 347.635 172.741C348.032 173.452 348.229 174.266 348.224 175.185C348.229 176.141 348.011 177 347.571 177.763C347.13 178.52 346.517 179.117 345.731 179.553C344.945 179.988 344.029 180.204 342.983 180.199ZM342.968 178.068C343.484 178.068 343.946 177.943 344.353 177.692C344.761 177.441 345.083 177.102 345.319 176.676C345.556 176.25 345.672 175.772 345.667 175.241C345.672 174.721 345.558 174.25 345.326 173.828C345.099 173.407 344.784 173.073 344.382 172.827C343.979 172.58 343.52 172.457 343.004 172.457C342.62 172.457 342.263 172.531 341.931 172.678C341.6 172.824 341.311 173.028 341.065 173.288C340.819 173.544 340.625 173.842 340.483 174.183C340.345 174.519 340.274 174.879 340.27 175.263C340.274 175.769 340.393 176.236 340.625 176.662C340.857 177.088 341.176 177.429 341.583 177.685C341.991 177.94 342.452 178.068 342.968 178.068ZM350.362 177.301V175.206L356.534 165.455H358.281V168.438H357.216L353.061 175.021V175.135H361.676V177.301H350.362ZM357.301 180V176.662L357.329 175.724V165.455H359.815V180H357.301ZM370.586 172.884V175H364.037V172.884H370.586ZM383.034 169.091L379.149 180H376.308L372.423 169.091H375.165L377.672 177.195H377.786L380.3 169.091H383.034ZM389.955 180.199C388.899 180.199 387.962 180.021 387.143 179.666C386.328 179.311 385.689 178.826 385.225 178.21C384.766 177.59 384.539 176.887 384.543 176.101C384.539 175.49 384.671 174.929 384.941 174.418C385.211 173.906 385.576 173.48 386.035 173.139C386.499 172.794 387.015 172.573 387.583 172.479V172.379C386.835 172.214 386.229 171.832 385.765 171.236C385.306 170.634 385.078 169.941 385.083 169.155C385.078 168.407 385.287 167.739 385.708 167.152C386.129 166.565 386.707 166.103 387.441 165.767C388.175 165.426 389.013 165.256 389.955 165.256C390.888 165.256 391.719 165.426 392.448 165.767C393.182 166.103 393.76 166.565 394.181 167.152C394.607 167.739 394.82 168.407 394.82 169.155C394.82 169.941 394.586 170.634 394.117 171.236C393.653 171.832 393.054 172.214 392.32 172.379V172.479C392.888 172.573 393.4 172.794 393.854 173.139C394.314 173.48 394.678 173.906 394.948 174.418C395.223 174.929 395.36 175.49 395.36 176.101C395.36 176.887 395.128 177.59 394.664 178.21C394.2 178.826 393.561 179.311 392.746 179.666C391.937 180.021 391.006 180.199 389.955 180.199ZM389.955 178.168C390.5 178.168 390.973 178.075 391.376 177.891C391.778 177.701 392.091 177.436 392.313 177.095C392.536 176.754 392.649 176.361 392.654 175.916C392.649 175.452 392.529 175.043 392.292 174.688C392.06 174.328 391.74 174.046 391.333 173.842C390.931 173.639 390.471 173.537 389.955 173.537C389.434 173.537 388.97 173.639 388.563 173.842C388.156 174.046 387.834 174.328 387.597 174.688C387.365 175.043 387.252 175.452 387.256 175.916C387.252 176.361 387.361 176.754 387.583 177.095C387.806 177.431 388.118 177.694 388.521 177.884C388.928 178.073 389.406 178.168 389.955 178.168ZM389.955 171.541C390.4 171.541 390.793 171.451 391.134 171.271C391.48 171.091 391.752 170.84 391.951 170.518C392.15 170.196 392.252 169.825 392.256 169.403C392.252 168.987 392.152 168.622 391.958 168.31C391.764 167.992 391.494 167.749 391.148 167.578C390.803 167.403 390.405 167.315 389.955 167.315C389.496 167.315 389.091 167.403 388.741 167.578C388.395 167.749 388.125 167.992 387.931 168.31C387.742 168.622 387.649 168.987 387.654 169.403C387.649 169.825 387.744 170.196 387.938 170.518C388.137 170.836 388.409 171.087 388.755 171.271C389.105 171.451 389.505 171.541 389.955 171.541ZM400.863 180.22C400.171 180.22 399.549 180.097 398.995 179.851C398.445 179.6 398.01 179.231 397.688 178.743C397.371 178.255 397.212 177.654 397.212 176.939C397.212 176.323 397.326 175.814 397.553 175.412C397.78 175.009 398.09 174.688 398.483 174.446C398.876 174.205 399.319 174.022 399.811 173.899C400.309 173.771 400.822 173.679 401.353 173.622C401.992 173.556 402.51 173.497 402.908 173.445C403.306 173.388 403.595 173.303 403.775 173.189C403.959 173.071 404.051 172.888 404.051 172.642V172.599C404.051 172.064 403.893 171.65 403.576 171.357C403.258 171.063 402.801 170.916 402.205 170.916C401.575 170.916 401.076 171.054 400.706 171.328C400.342 171.603 400.096 171.927 399.968 172.301L397.567 171.96C397.757 171.297 398.069 170.743 398.505 170.298C398.94 169.848 399.473 169.512 400.103 169.29C400.732 169.062 401.428 168.949 402.191 168.949C402.716 168.949 403.239 169.01 403.76 169.134C404.281 169.257 404.757 169.46 405.188 169.744C405.619 170.024 405.964 170.405 406.225 170.888C406.49 171.371 406.623 171.974 406.623 172.699V180H404.151V178.501H404.066C403.909 178.804 403.689 179.089 403.405 179.354C403.126 179.614 402.773 179.825 402.347 179.986C401.926 180.142 401.431 180.22 400.863 180.22ZM401.53 178.331C402.046 178.331 402.494 178.229 402.873 178.026C403.251 177.817 403.542 177.543 403.746 177.202C403.954 176.861 404.059 176.489 404.059 176.087V174.801C403.978 174.867 403.841 174.929 403.647 174.986C403.457 175.043 403.244 175.092 403.007 175.135C402.771 175.178 402.536 175.215 402.304 175.249C402.072 175.282 401.871 175.31 401.701 175.334C401.317 175.386 400.974 175.471 400.671 175.589C400.368 175.708 400.129 175.874 399.953 176.087C399.778 176.295 399.691 176.565 399.691 176.896C399.691 177.37 399.864 177.727 400.209 177.969C400.555 178.21 400.995 178.331 401.53 178.331ZM415.82 172.884V175H409.272V172.884H415.82ZM422.572 180.192C421.715 180.192 420.948 179.972 420.271 179.531C419.594 179.091 419.059 178.452 418.666 177.614C418.273 176.776 418.077 175.758 418.077 174.56C418.077 173.348 418.276 172.325 418.673 171.491C419.076 170.653 419.618 170.021 420.3 169.595C420.982 169.164 421.741 168.949 422.58 168.949C423.219 168.949 423.744 169.058 424.156 169.276C424.568 169.489 424.895 169.747 425.136 170.05C425.378 170.348 425.565 170.63 425.697 170.895H425.804V165.455H428.382V180H425.854V178.281H425.697C425.565 178.546 425.373 178.828 425.122 179.126C424.871 179.42 424.54 179.671 424.128 179.879C423.716 180.088 423.197 180.192 422.572 180.192ZM423.29 178.082C423.834 178.082 424.298 177.936 424.682 177.642C425.065 177.344 425.357 176.929 425.555 176.399C425.754 175.869 425.854 175.251 425.854 174.545C425.854 173.84 425.754 173.227 425.555 172.706C425.361 172.185 425.072 171.78 424.689 171.491C424.31 171.203 423.844 171.058 423.29 171.058C422.717 171.058 422.239 171.207 421.855 171.506C421.472 171.804 421.183 172.216 420.989 172.741C420.795 173.267 420.697 173.868 420.697 174.545C420.697 175.227 420.795 175.836 420.989 176.371C421.188 176.901 421.479 177.32 421.862 177.628C422.25 177.931 422.726 178.082 423.29 178.082ZM435.951 180.213C434.858 180.213 433.913 179.986 433.118 179.531C432.327 179.072 431.718 178.423 431.292 177.585C430.866 176.742 430.653 175.75 430.653 174.609C430.653 173.487 430.866 172.502 431.292 171.655C431.723 170.803 432.324 170.14 433.096 169.666C433.868 169.188 434.775 168.949 435.816 168.949C436.489 168.949 437.123 169.058 437.72 169.276C438.321 169.489 438.851 169.82 439.311 170.27C439.775 170.72 440.139 171.293 440.404 171.989C440.67 172.68 440.802 173.504 440.802 174.46V175.249H431.86V173.516H438.338C438.333 173.023 438.226 172.585 438.018 172.202C437.81 171.813 437.519 171.508 437.145 171.286C436.775 171.063 436.344 170.952 435.852 170.952C435.326 170.952 434.865 171.08 434.467 171.335C434.069 171.586 433.759 171.918 433.537 172.33C433.319 172.737 433.208 173.184 433.203 173.672V175.185C433.203 175.819 433.319 176.364 433.551 176.818C433.783 177.268 434.107 177.614 434.524 177.855C434.94 178.092 435.428 178.21 435.987 178.21C436.361 178.21 436.699 178.158 437.002 178.054C437.306 177.945 437.568 177.786 437.791 177.578C438.013 177.37 438.181 177.112 438.295 176.804L440.696 177.074C440.544 177.708 440.255 178.262 439.829 178.736C439.408 179.205 438.868 179.569 438.21 179.83C437.552 180.085 436.799 180.213 435.951 180.213ZM443.091 180V165.455H445.662V170.895H445.768C445.901 170.63 446.088 170.348 446.33 170.05C446.571 169.747 446.898 169.489 447.31 169.276C447.722 169.058 448.247 168.949 448.886 168.949C449.729 168.949 450.489 169.164 451.166 169.595C451.848 170.021 452.388 170.653 452.786 171.491C453.188 172.325 453.389 173.348 453.389 174.56C453.389 175.758 453.193 176.776 452.8 177.614C452.407 178.452 451.872 179.091 451.195 179.531C450.518 179.972 449.75 180.192 448.893 180.192C448.268 180.192 447.75 180.088 447.338 179.879C446.926 179.671 446.595 179.42 446.344 179.126C446.098 178.828 445.906 178.546 445.768 178.281H445.619V180H443.091ZM445.612 174.545C445.612 175.251 445.712 175.869 445.911 176.399C446.114 176.929 446.405 177.344 446.784 177.642C447.168 177.936 447.632 178.082 448.176 178.082C448.744 178.082 449.22 177.931 449.604 177.628C449.987 177.32 450.276 176.901 450.47 176.371C450.669 175.836 450.768 175.227 450.768 174.545C450.768 173.868 450.671 173.267 450.477 172.741C450.283 172.216 449.994 171.804 449.611 171.506C449.227 171.207 448.749 171.058 448.176 171.058C447.627 171.058 447.161 171.203 446.777 171.491C446.393 171.78 446.102 172.185 445.903 172.706C445.709 173.227 445.612 173.84 445.612 174.545ZM462.528 175.412V169.091H465.099V180H462.606V178.061H462.493C462.246 178.672 461.842 179.171 461.278 179.56C460.719 179.948 460.03 180.142 459.211 180.142C458.496 180.142 457.864 179.983 457.315 179.666C456.77 179.344 456.344 178.878 456.037 178.267C455.729 177.652 455.575 176.908 455.575 176.037V169.091H458.146V175.639C458.146 176.33 458.335 176.88 458.714 177.287C459.093 177.694 459.59 177.898 460.206 177.898C460.584 177.898 460.951 177.805 461.306 177.621C461.662 177.436 461.953 177.161 462.18 176.797C462.412 176.428 462.528 175.966 462.528 175.412ZM472.487 184.318C471.564 184.318 470.771 184.193 470.108 183.942C469.445 183.696 468.912 183.364 468.51 182.947C468.107 182.531 467.828 182.069 467.672 181.562L469.987 181.001C470.091 181.214 470.243 181.425 470.442 181.634C470.641 181.847 470.908 182.022 471.244 182.159C471.585 182.301 472.014 182.372 472.53 182.372C473.259 182.372 473.863 182.195 474.341 181.839C474.819 181.489 475.058 180.911 475.058 180.107V178.04H474.93C474.798 178.305 474.604 178.577 474.348 178.857C474.097 179.136 473.763 179.37 473.347 179.56C472.935 179.749 472.416 179.844 471.791 179.844C470.953 179.844 470.193 179.647 469.511 179.254C468.834 178.857 468.295 178.265 467.892 177.479C467.494 176.688 467.295 175.698 467.295 174.51C467.295 173.312 467.494 172.301 467.892 171.477C468.295 170.649 468.837 170.021 469.518 169.595C470.2 169.164 470.96 168.949 471.798 168.949C472.438 168.949 472.963 169.058 473.375 169.276C473.792 169.489 474.123 169.747 474.369 170.05C474.616 170.348 474.803 170.63 474.93 170.895H475.072V169.091H477.608V180.178C477.608 181.11 477.385 181.882 476.94 182.493C476.495 183.104 475.887 183.561 475.115 183.864C474.343 184.167 473.467 184.318 472.487 184.318ZM472.509 177.827C473.053 177.827 473.517 177.694 473.901 177.429C474.284 177.164 474.575 176.783 474.774 176.286C474.973 175.788 475.072 175.192 475.072 174.496C475.072 173.809 474.973 173.208 474.774 172.692C474.58 172.176 474.291 171.776 473.908 171.491C473.529 171.203 473.063 171.058 472.509 171.058C471.936 171.058 471.457 171.207 471.074 171.506C470.69 171.804 470.402 172.214 470.207 172.734C470.013 173.25 469.916 173.838 469.916 174.496C469.916 175.163 470.013 175.748 470.207 176.25C470.406 176.747 470.697 177.135 471.081 177.415C471.469 177.689 471.945 177.827 472.509 177.827ZM481.827 180.156C481.396 180.156 481.027 180.005 480.719 179.702C480.411 179.399 480.259 179.029 480.264 178.594C480.259 178.168 480.411 177.803 480.719 177.5C481.027 177.197 481.396 177.045 481.827 177.045C482.243 177.045 482.606 177.197 482.913 177.5C483.226 177.803 483.384 178.168 483.389 178.594C483.384 178.883 483.309 179.145 483.162 179.382C483.02 179.619 482.83 179.808 482.594 179.95C482.362 180.088 482.106 180.156 481.827 180.156ZM489.183 180.22C488.492 180.22 487.869 180.097 487.315 179.851C486.766 179.6 486.33 179.231 486.008 178.743C485.691 178.255 485.532 177.654 485.532 176.939C485.532 176.323 485.646 175.814 485.873 175.412C486.1 175.009 486.411 174.688 486.804 174.446C487.197 174.205 487.639 174.022 488.132 173.899C488.629 173.771 489.143 173.679 489.673 173.622C490.312 173.556 490.831 173.497 491.228 173.445C491.626 173.388 491.915 173.303 492.095 173.189C492.279 173.071 492.372 172.888 492.372 172.642V172.599C492.372 172.064 492.213 171.65 491.896 171.357C491.579 171.063 491.122 170.916 490.525 170.916C489.895 170.916 489.396 171.054 489.027 171.328C488.662 171.603 488.416 171.927 488.288 172.301L485.887 171.96C486.077 171.297 486.389 170.743 486.825 170.298C487.261 169.848 487.793 169.512 488.423 169.29C489.053 169.062 489.749 168.949 490.511 168.949C491.037 168.949 491.56 169.01 492.081 169.134C492.601 169.257 493.077 169.46 493.508 169.744C493.939 170.024 494.285 170.405 494.545 170.888C494.81 171.371 494.943 171.974 494.943 172.699V180H492.471V178.501H492.386C492.23 178.804 492.01 179.089 491.725 179.354C491.446 179.614 491.093 179.825 490.667 179.986C490.246 180.142 489.751 180.22 489.183 180.22ZM489.85 178.331C490.367 178.331 490.814 178.229 491.193 178.026C491.572 177.817 491.863 177.543 492.066 177.202C492.275 176.861 492.379 176.489 492.379 176.087V174.801C492.298 174.867 492.161 174.929 491.967 174.986C491.778 175.043 491.565 175.092 491.328 175.135C491.091 175.178 490.857 175.215 490.625 175.249C490.393 175.282 490.191 175.31 490.021 175.334C489.637 175.386 489.294 175.471 488.991 175.589C488.688 175.708 488.449 175.874 488.274 176.087C488.099 176.295 488.011 176.565 488.011 176.896C488.011 177.37 488.184 177.727 488.529 177.969C488.875 178.21 489.315 178.331 489.85 178.331ZM497.528 184.091V169.091H500.056V170.895H500.206C500.338 170.63 500.525 170.348 500.767 170.05C501.008 169.747 501.335 169.489 501.747 169.276C502.159 169.058 502.684 168.949 503.324 168.949C504.166 168.949 504.926 169.164 505.603 169.595C506.285 170.021 506.825 170.653 507.223 171.491C507.625 172.325 507.826 173.348 507.826 174.56C507.826 175.758 507.63 176.776 507.237 177.614C506.844 178.452 506.309 179.091 505.632 179.531C504.955 179.972 504.188 180.192 503.331 180.192C502.706 180.192 502.187 180.088 501.775 179.879C501.363 179.671 501.032 179.42 500.781 179.126C500.535 178.828 500.343 178.546 500.206 178.281H500.099V184.091H497.528ZM500.049 174.545C500.049 175.251 500.149 175.869 500.348 176.399C500.551 176.929 500.842 177.344 501.221 177.642C501.605 177.936 502.069 178.082 502.613 178.082C503.181 178.082 503.657 177.931 504.041 177.628C504.424 177.32 504.713 176.901 504.907 176.371C505.106 175.836 505.206 175.227 505.206 174.545C505.206 173.868 505.109 173.267 504.914 172.741C504.72 172.216 504.431 171.804 504.048 171.506C503.664 171.207 503.186 171.058 502.613 171.058C502.064 171.058 501.598 171.203 501.214 171.491C500.831 171.78 500.539 172.185 500.341 172.706C500.146 173.227 500.049 173.84 500.049 174.545ZM512.372 176.577L512.365 173.473H512.777L516.697 169.091H519.701L514.879 174.46H514.346L512.372 176.577ZM510.028 180V165.455H512.599V180H510.028ZM516.875 180L513.324 175.036L515.056 173.224L519.95 180H516.875Z" fill="#F2EEFF"/>
</g>
<defs>
<linearGradient id="paint0_linear_10_17" x1="9.32031" y1="250" x2="19.614" y2="159.112" gradientUnits="userSpaceOnUse">
<stop stop-color="#FFD1A7"/>
<stop offset="1" stop-color="#FF5A8B"/>
</linearGradient>
<clipPath id="clip0_10_17">
<rect width="646" height="250" fill="white"/>
</clipPath>
</defs>
</svg>
