<svg width="646" height="250" viewBox="0 0 646 250" fill="none" xmlns="http://www.w3.org/2000/svg">
<g clip-path="url(#clip0_10_17)">
<path d="M636.68 229H9.32031C9.99939 229.951 10.6756 230.905 11.418 231.805C12.4369 233.039 13.5135 234.224 14.6445 235.355C15.7756 236.486 16.9606 237.563 18.1953 238.582C19.43 239.601 20.7149 240.562 22.0449 241.461C23.3749 242.359 24.751 243.195 26.168 243.965C27.5849 244.735 29.0416 245.438 30.5371 246.07C32.0326 246.703 33.5652 247.265 35.1309 247.752C36.6965 248.239 38.2964 248.651 39.9238 248.984C41.5513 249.317 43.2078 249.571 44.8887 249.742C46.5695 249.913 48.2741 250 50 250H596C597.726 250 599.43 249.913 601.111 249.742C602.792 249.571 604.449 249.317 606.076 248.984C607.704 248.651 609.304 248.239 610.869 247.752C612.435 247.265 613.967 246.703 615.463 246.07C616.958 245.438 618.415 244.735 619.832 243.965C621.249 243.195 622.625 242.359 623.955 241.461C625.285 240.562 626.57 239.601 627.805 238.582C629.039 237.563 630.224 236.486 631.355 235.355C632.486 234.224 633.563 233.039 634.582 231.805C635.324 230.905 636.001 229.951 636.68 229Z" fill="url(#paint0_linear_10_17)"/>
<path d="M50 0C48.2741 0 46.5695 0.0871124 44.8887 0.257812C43.2078 0.428513 41.5513 0.682602 39.9238 1.01562C38.2964 1.34865 36.6965 1.76108 35.1309 2.24805C33.5652 2.73501 32.0326 3.29715 30.5371 3.92969C29.0416 4.56222 27.5849 5.26543 26.168 6.03516C24.751 6.80488 23.3749 7.64053 22.0449 8.53906C20.7149 9.4376 19.43 10.399 18.1953 11.418C16.9606 12.4369 15.7756 13.5135 14.6445 14.6445C13.5135 15.7756 12.4369 16.9606 11.418 18.1953C10.399 19.43 9.4376 20.7149 8.53906 22.0449C7.64053 23.3749 6.80488 24.751 6.03516 26.168C5.26543 27.5849 4.56222 29.0416 3.92969 30.5371C3.29715 32.0326 2.73501 33.5652 2.24805 35.1309C1.76108 36.6965 1.34865 38.2964 1.01562 39.9238C0.682602 41.5513 0.428513 43.2078 0.257812 44.8887C0.0871124 46.5695 0 48.2741 0 50V200C0 201.726 0.0871124 203.43 0.257812 205.111C0.428513 206.792 0.682602 208.449 1.01562 210.076C1.34865 211.704 1.76108 213.304 2.24805 214.869C2.73501 216.435 3.29715 217.967 3.92969 219.463C4.56222 220.958 5.26543 222.415 6.03516 223.832C6.80488 225.249 7.64053 226.625 8.53906 227.955C8.78294 228.316 9.06734 228.646 9.32031 229H636.68C636.933 228.646 637.217 228.316 637.461 227.955C638.359 226.625 639.195 225.249 639.965 223.832C640.735 222.415 641.438 220.958 642.07 219.463C642.703 217.967 643.265 216.435 643.752 214.869C644.239 213.304 644.651 211.704 644.984 210.076C645.317 208.449 645.571 206.792 645.742 205.111C645.913 203.43 646 201.726 646 200V50C646 48.2741 645.913 46.5695 645.742 44.8887C645.571 43.2078 645.317 41.5513 644.984 39.9238C644.651 38.2964 644.239 36.6965 643.752 35.1309C643.265 33.5652 642.703 32.0326 642.07 30.5371C641.438 29.0416 640.735 27.5849 639.965 26.168C639.195 24.751 638.359 23.3749 637.461 22.0449C636.562 20.7149 635.601 19.43 634.582 18.1953C633.563 16.9606 632.486 15.7756 631.355 14.6445C630.224 13.5135 629.039 12.4369 627.805 11.418C626.57 10.399 625.285 9.4376 623.955 8.53906C622.625 7.64053 621.249 6.80488 619.832 6.03516C618.415 5.26543 616.958 4.56222 615.463 3.92969C613.967 3.29715 612.435 2.73501 610.869 2.24805C609.304 1.76108 607.704 1.34865 606.076 1.01562C604.449 0.682602 602.792 0.428513 601.111 0.257812C599.43 0.0871124 597.726 0 596 0H50Z" fill="#161316"/>
<path fill-rule="evenodd" clip-rule="evenodd" d="M125.044 73C95.712 73 72 96.8332 72 126.318C72 149.887 87.1931 169.838 108.27 176.899C110.905 177.43 111.87 175.752 111.87 174.34C111.87 173.104 111.783 168.867 111.783 164.452C97.0279 167.631 93.9552 158.097 93.9552 158.097C91.5839 151.917 88.0704 150.329 88.0704 150.329C83.2409 147.063 88.4222 147.063 88.4222 147.063C93.7793 147.416 96.5904 152.536 96.5904 152.536C101.332 160.656 108.972 158.362 112.046 156.949C112.485 153.506 113.891 151.123 115.384 149.799C103.615 148.563 91.2332 143.973 91.2332 123.493C91.2332 117.667 93.3396 112.9 96.6772 109.193C96.1506 107.869 94.3059 102.395 97.2049 95.0685C97.2049 95.0685 101.684 93.6558 111.782 100.541C116.106 99.3744 120.565 98.7806 125.044 98.7756C129.523 98.7756 134.088 99.3942 138.304 100.541C148.404 93.6558 152.883 95.0685 152.883 95.0685C155.782 102.395 153.936 107.869 153.409 109.193C156.835 112.9 158.855 117.667 158.855 123.493C158.855 143.973 146.472 148.474 134.616 149.799C136.549 151.476 138.216 154.654 138.216 159.686C138.216 166.836 138.129 172.574 138.129 174.339C138.129 175.752 139.096 177.43 141.73 176.9C162.807 169.837 178 149.887 178 126.318C178.087 96.8332 154.288 73 125.044 73Z" fill="#F2EEFF"/>
<path d="M252.619 147H237.666V104.818H252.743C256.986 104.818 260.638 105.663 263.7 107.352C266.762 109.027 269.117 111.437 270.765 114.581C272.426 117.725 273.257 121.488 273.257 125.868C273.257 130.262 272.426 134.038 270.765 137.196C269.117 140.354 266.749 142.778 263.659 144.467C260.583 146.156 256.903 147 252.619 147ZM246.585 139.359H252.249C254.885 139.359 257.103 138.892 258.901 137.958C260.714 137.011 262.073 135.548 262.979 133.571C263.899 131.58 264.359 129.012 264.359 125.868C264.359 122.751 263.899 120.204 262.979 118.227C262.073 116.249 260.721 114.794 258.922 113.86C257.123 112.926 254.906 112.46 252.269 112.46H246.585V139.359ZM319.206 125.909C319.206 130.509 318.334 134.422 316.59 137.649C314.86 140.876 312.499 143.341 309.505 145.043C306.526 146.732 303.175 147.577 299.454 147.577C295.706 147.577 292.341 146.725 289.362 145.023C286.382 143.32 284.027 140.855 282.297 137.629C280.567 134.402 279.702 130.495 279.702 125.909C279.702 121.309 280.567 117.396 282.297 114.169C284.027 110.942 286.382 108.484 289.362 106.795C292.341 105.093 295.706 104.241 299.454 104.241C303.175 104.241 306.526 105.093 309.505 106.795C312.499 108.484 314.86 110.942 316.59 114.169C318.334 117.396 319.206 121.309 319.206 125.909ZM310.164 125.909C310.164 122.929 309.718 120.417 308.826 118.371C307.947 116.325 306.704 114.773 305.098 113.716C303.491 112.659 301.61 112.13 299.454 112.13C297.298 112.13 295.417 112.659 293.811 113.716C292.204 114.773 290.955 116.325 290.062 118.371C289.183 120.417 288.744 122.929 288.744 125.909C288.744 128.889 289.183 131.402 290.062 133.447C290.955 135.493 292.204 137.045 293.811 138.102C295.417 139.16 297.298 139.688 299.454 139.688C301.61 139.688 303.491 139.16 305.098 138.102C306.704 137.045 307.947 135.493 308.826 133.447C309.718 131.402 310.164 128.889 310.164 125.909ZM334.302 147L322.232 104.818H331.974L338.957 134.127H339.307L347.01 104.818H355.351L363.034 134.189H363.405L370.387 104.818H380.129L368.06 147H359.368L351.335 119.421H351.006L342.993 147H334.302ZM420.764 104.818V147H413.061L394.71 120.451H394.401V147H385.482V104.818H393.309L411.516 131.347H411.887V104.818H420.764ZM428.713 147V104.818H437.631V139.647H455.715V147H428.713ZM499.321 125.909C499.321 130.509 498.449 134.422 496.705 137.649C494.975 140.876 492.614 143.341 489.62 145.043C486.641 146.732 483.29 147.577 479.569 147.577C475.82 147.577 472.456 146.725 469.477 145.023C466.497 143.32 464.142 140.855 462.412 137.629C460.682 134.402 459.817 130.495 459.817 125.909C459.817 121.309 460.682 117.396 462.412 114.169C464.142 110.942 466.497 108.484 469.477 106.795C472.456 105.093 475.82 104.241 479.569 104.241C483.29 104.241 486.641 105.093 489.62 106.795C492.614 108.484 494.975 110.942 496.705 114.169C498.449 117.396 499.321 121.309 499.321 125.909ZM490.279 125.909C490.279 122.929 489.833 120.417 488.94 118.371C488.062 116.325 486.819 114.773 485.212 113.716C483.606 112.659 481.725 112.13 479.569 112.13C477.413 112.13 475.532 112.659 473.926 113.716C472.319 114.773 471.07 116.325 470.177 118.371C469.298 120.417 468.859 122.929 468.859 125.909C468.859 128.889 469.298 131.402 470.177 133.447C471.07 135.493 472.319 137.045 473.926 138.102C475.532 139.16 477.413 139.688 479.569 139.688C481.725 139.688 483.606 139.16 485.212 138.102C486.819 137.045 488.062 135.493 488.94 133.447C489.833 131.402 490.279 128.889 490.279 125.909ZM511.399 147H501.842L516.404 104.818H527.897L542.438 147H532.881L522.315 114.457H521.986L511.399 147ZM510.802 130.42H533.376V137.381H510.802V130.42ZM563.048 147H548.095V104.818H563.172C567.415 104.818 571.067 105.663 574.129 107.352C577.191 109.027 579.546 111.437 581.194 114.581C582.856 117.725 583.686 121.488 583.686 125.868C583.686 130.262 582.856 134.038 581.194 137.196C579.546 140.354 577.178 142.778 574.088 144.467C571.012 146.156 567.333 147 563.048 147ZM557.014 139.359H562.678C565.314 139.359 567.532 138.892 569.33 137.958C571.143 137.011 572.502 135.548 573.409 133.571C574.329 131.58 574.789 129.012 574.789 125.868C574.789 122.751 574.329 120.204 573.409 118.227C572.502 116.249 571.15 114.794 569.351 113.86C567.552 112.926 565.335 112.46 562.698 112.46H557.014V139.359Z" fill="#F2EEFF"/>
<path d="M298.46 180.22C297.769 180.22 297.146 180.097 296.592 179.851C296.043 179.6 295.607 179.231 295.286 178.743C294.968 178.255 294.81 177.654 294.81 176.939C294.81 176.323 294.923 175.814 295.151 175.412C295.378 175.009 295.688 174.688 296.081 174.446C296.474 174.205 296.917 174.022 297.409 173.899C297.906 173.771 298.42 173.679 298.95 173.622C299.589 173.556 300.108 173.497 300.506 173.445C300.903 173.388 301.192 173.303 301.372 173.189C301.557 173.071 301.649 172.888 301.649 172.642V172.599C301.649 172.064 301.491 171.65 301.173 171.357C300.856 171.063 300.399 170.916 299.803 170.916C299.173 170.916 298.673 171.054 298.304 171.328C297.939 171.603 297.693 171.927 297.565 172.301L295.165 171.96C295.354 171.297 295.667 170.743 296.102 170.298C296.538 169.848 297.071 169.512 297.7 169.29C298.33 169.062 299.026 168.949 299.788 168.949C300.314 168.949 300.837 169.01 301.358 169.134C301.879 169.257 302.355 169.46 302.786 169.744C303.216 170.024 303.562 170.405 303.822 170.888C304.088 171.371 304.22 171.974 304.22 172.699V180H301.749V178.501H301.663C301.507 178.804 301.287 179.089 301.003 179.354C300.723 179.614 300.371 179.825 299.945 179.986C299.523 180.142 299.028 180.22 298.46 180.22ZM299.128 178.331C299.644 178.331 300.091 178.229 300.47 178.026C300.849 177.817 301.14 177.543 301.344 177.202C301.552 176.861 301.656 176.489 301.656 176.087V174.801C301.576 174.867 301.438 174.929 301.244 174.986C301.055 175.043 300.842 175.092 300.605 175.135C300.368 175.178 300.134 175.215 299.902 175.249C299.67 175.282 299.469 175.31 299.298 175.334C298.915 175.386 298.571 175.471 298.268 175.589C297.965 175.708 297.726 175.874 297.551 176.087C297.376 176.295 297.288 176.565 297.288 176.896C297.288 177.37 297.461 177.727 297.807 177.969C298.152 178.21 298.593 178.331 299.128 178.331ZM306.805 180V169.091H309.298V170.909H309.412C309.611 170.279 309.952 169.794 310.435 169.453C310.922 169.107 311.479 168.935 312.104 168.935C312.246 168.935 312.404 168.942 312.58 168.956C312.759 168.965 312.909 168.982 313.027 169.006V171.371C312.918 171.333 312.745 171.3 312.509 171.271C312.277 171.238 312.052 171.222 311.834 171.222C311.365 171.222 310.944 171.323 310.57 171.527C310.2 171.726 309.909 172.003 309.696 172.358C309.483 172.713 309.376 173.123 309.376 173.587V180H306.805ZM314.735 180V169.091H317.192V170.945H317.32C317.548 170.32 317.924 169.832 318.45 169.482C318.975 169.126 319.603 168.949 320.332 168.949C321.07 168.949 321.693 169.129 322.2 169.489C322.711 169.844 323.071 170.329 323.279 170.945H323.393C323.634 170.339 324.041 169.856 324.614 169.496C325.192 169.131 325.876 168.949 326.667 168.949C327.671 168.949 328.49 169.266 329.124 169.901C329.759 170.535 330.076 171.461 330.076 172.678V180H327.498V173.075C327.498 172.398 327.318 171.903 326.958 171.591C326.598 171.274 326.158 171.115 325.637 171.115C325.017 171.115 324.531 171.309 324.181 171.697C323.835 172.081 323.663 172.58 323.663 173.196V180H321.141V172.969C321.141 172.405 320.971 171.955 320.63 171.619C320.294 171.283 319.853 171.115 319.309 171.115C318.94 171.115 318.603 171.21 318.3 171.399C317.997 171.584 317.756 171.847 317.576 172.188C317.396 172.524 317.306 172.917 317.306 173.366V180H314.735ZM337.514 180.213C336.42 180.213 335.475 179.986 334.68 179.531C333.889 179.072 333.281 178.423 332.855 177.585C332.429 176.742 332.216 175.75 332.216 174.609C332.216 173.487 332.429 172.502 332.855 171.655C333.286 170.803 333.887 170.14 334.659 169.666C335.431 169.188 336.337 168.949 337.379 168.949C338.051 168.949 338.686 169.058 339.282 169.276C339.884 169.489 340.414 169.82 340.873 170.27C341.337 170.72 341.702 171.293 341.967 171.989C342.232 172.68 342.365 173.504 342.365 174.46V175.249H333.423V173.516H339.9C339.895 173.023 339.789 172.585 339.581 172.202C339.372 171.813 339.081 171.508 338.707 171.286C338.338 171.063 337.907 170.952 337.414 170.952C336.889 170.952 336.427 171.08 336.029 171.335C335.632 171.586 335.322 171.918 335.099 172.33C334.881 172.737 334.77 173.184 334.765 173.672V175.185C334.765 175.819 334.881 176.364 335.113 176.818C335.345 177.268 335.67 177.614 336.086 177.855C336.503 178.092 336.991 178.21 337.549 178.21C337.923 178.21 338.262 178.158 338.565 178.054C338.868 177.945 339.131 177.786 339.353 177.578C339.576 177.37 339.744 177.112 339.858 176.804L342.258 177.074C342.107 177.708 341.818 178.262 341.392 178.736C340.97 179.205 340.431 179.569 339.772 179.83C339.114 180.085 338.361 180.213 337.514 180.213ZM347.679 180.22C346.988 180.22 346.365 180.097 345.811 179.851C345.262 179.6 344.826 179.231 344.504 178.743C344.187 178.255 344.028 177.654 344.028 176.939C344.028 176.323 344.142 175.814 344.369 175.412C344.597 175.009 344.907 174.688 345.3 174.446C345.693 174.205 346.135 174.022 346.628 173.899C347.125 173.771 347.639 173.679 348.169 173.622C348.808 173.556 349.327 173.497 349.724 173.445C350.122 173.388 350.411 173.303 350.591 173.189C350.776 173.071 350.868 172.888 350.868 172.642V172.599C350.868 172.064 350.709 171.65 350.392 171.357C350.075 171.063 349.618 170.916 349.021 170.916C348.392 170.916 347.892 171.054 347.523 171.328C347.158 171.603 346.912 171.927 346.784 172.301L344.384 171.96C344.573 171.297 344.885 170.743 345.321 170.298C345.757 169.848 346.289 169.512 346.919 169.29C347.549 169.062 348.245 168.949 349.007 168.949C349.533 168.949 350.056 169.01 350.577 169.134C351.098 169.257 351.573 169.46 352.004 169.744C352.435 170.024 352.781 170.405 353.041 170.888C353.306 171.371 353.439 171.974 353.439 172.699V180H350.967V178.501H350.882C350.726 178.804 350.506 179.089 350.222 179.354C349.942 179.614 349.589 179.825 349.163 179.986C348.742 180.142 348.247 180.22 347.679 180.22ZM348.347 178.331C348.863 178.331 349.31 178.229 349.689 178.026C350.068 177.817 350.359 177.543 350.562 177.202C350.771 176.861 350.875 176.489 350.875 176.087V174.801C350.795 174.867 350.657 174.929 350.463 174.986C350.274 175.043 350.061 175.092 349.824 175.135C349.587 175.178 349.353 175.215 349.121 175.249C348.889 175.282 348.688 175.31 348.517 175.334C348.134 175.386 347.79 175.471 347.487 175.589C347.184 175.708 346.945 175.874 346.77 176.087C346.595 176.295 346.507 176.565 346.507 176.896C346.507 177.37 346.68 177.727 347.026 177.969C347.371 178.21 347.812 178.331 348.347 178.331ZM356.138 180V165.455H358.709V170.895H358.815C358.948 170.63 359.135 170.348 359.376 170.05C359.618 169.747 359.945 169.489 360.357 169.276C360.768 169.058 361.294 168.949 361.933 168.949C362.776 168.949 363.536 169.164 364.213 169.595C364.895 170.021 365.435 170.653 365.832 171.491C366.235 172.325 366.436 173.348 366.436 174.56C366.436 175.758 366.24 176.776 365.847 177.614C365.454 178.452 364.919 179.091 364.241 179.531C363.564 179.972 362.797 180.192 361.94 180.192C361.315 180.192 360.797 180.088 360.385 179.879C359.973 179.671 359.642 179.42 359.391 179.126C359.144 178.828 358.953 178.546 358.815 178.281H358.666V180H356.138ZM358.659 174.545C358.659 175.251 358.759 175.869 358.957 176.399C359.161 176.929 359.452 177.344 359.831 177.642C360.214 177.936 360.679 178.082 361.223 178.082C361.791 178.082 362.267 177.931 362.651 177.628C363.034 177.32 363.323 176.901 363.517 176.371C363.716 175.836 363.815 175.227 363.815 174.545C363.815 173.868 363.718 173.267 363.524 172.741C363.33 172.216 363.041 171.804 362.658 171.506C362.274 171.207 361.796 171.058 361.223 171.058C360.674 171.058 360.207 171.203 359.824 171.491C359.44 171.78 359.149 172.185 358.95 172.706C358.756 173.227 358.659 173.84 358.659 174.545ZM368.622 180V169.091H371.193V180H368.622ZM369.914 167.543C369.507 167.543 369.157 167.408 368.863 167.138C368.57 166.863 368.423 166.534 368.423 166.151C368.423 165.762 368.57 165.433 368.863 165.163C369.157 164.889 369.507 164.751 369.914 164.751C370.326 164.751 370.677 164.889 370.966 165.163C371.259 165.433 371.406 165.762 371.406 166.151C371.406 166.534 371.259 166.863 370.966 167.138C370.677 167.408 370.326 167.543 369.914 167.543ZM380.449 172.884V175H373.901V172.884H380.449ZM392.897 169.091L389.012 180H386.172L382.287 169.091H385.028L387.535 177.195H387.649L390.163 169.091H392.897ZM395.181 180L401.367 167.756V167.656H394.186V165.455H404.094V167.706L397.915 180H395.181ZM408.636 180.22C407.945 180.22 407.322 180.097 406.768 179.851C406.219 179.6 405.783 179.231 405.461 178.743C405.144 178.255 404.985 177.654 404.985 176.939C404.985 176.323 405.099 175.814 405.326 175.412C405.554 175.009 405.864 174.688 406.257 174.446C406.65 174.205 407.092 174.022 407.585 173.899C408.082 173.771 408.596 173.679 409.126 173.622C409.765 173.556 410.284 173.497 410.681 173.445C411.079 173.388 411.368 173.303 411.548 173.189C411.733 173.071 411.825 172.888 411.825 172.642V172.599C411.825 172.064 411.666 171.65 411.349 171.357C411.032 171.063 410.575 170.916 409.978 170.916C409.349 170.916 408.849 171.054 408.48 171.328C408.115 171.603 407.869 171.927 407.741 172.301L405.341 171.96C405.53 171.297 405.842 170.743 406.278 170.298C406.714 169.848 407.246 169.512 407.876 169.29C408.506 169.062 409.202 168.949 409.964 168.949C410.49 168.949 411.013 169.01 411.534 169.134C412.055 169.257 412.53 169.46 412.961 169.744C413.392 170.024 413.738 170.405 413.998 170.888C414.263 171.371 414.396 171.974 414.396 172.699V180H411.924V178.501H411.839C411.683 178.804 411.463 179.089 411.179 179.354C410.899 179.614 410.547 179.825 410.12 179.986C409.699 180.142 409.204 180.22 408.636 180.22ZM409.304 178.331C409.82 178.331 410.267 178.229 410.646 178.026C411.025 177.817 411.316 177.543 411.52 177.202C411.728 176.861 411.832 176.489 411.832 176.087V174.801C411.752 174.867 411.614 174.929 411.42 174.986C411.231 175.043 411.018 175.092 410.781 175.135C410.544 175.178 410.31 175.215 410.078 175.249C409.846 175.282 409.645 175.31 409.474 175.334C409.091 175.386 408.747 175.471 408.444 175.589C408.141 175.708 407.902 175.874 407.727 176.087C407.552 176.295 407.464 176.565 407.464 176.896C407.464 177.37 407.637 177.727 407.983 177.969C408.328 178.21 408.769 178.331 409.304 178.331ZM423.593 172.884V175H417.045V172.884H423.593ZM430.346 180.192C429.489 180.192 428.722 179.972 428.045 179.531C427.368 179.091 426.833 178.452 426.44 177.614C426.047 176.776 425.85 175.758 425.85 174.56C425.85 173.348 426.049 172.325 426.447 171.491C426.849 170.653 427.391 170.021 428.073 169.595C428.755 169.164 429.515 168.949 430.353 168.949C430.992 168.949 431.518 169.058 431.93 169.276C432.342 169.489 432.668 169.747 432.91 170.05C433.151 170.348 433.338 170.63 433.471 170.895H433.577V165.455H436.156V180H433.627V178.281H433.471C433.338 178.546 433.147 178.828 432.896 179.126C432.645 179.42 432.313 179.671 431.901 179.879C431.489 180.088 430.971 180.192 430.346 180.192ZM431.063 178.082C431.608 178.082 432.072 177.936 432.455 177.642C432.839 177.344 433.13 176.929 433.329 176.399C433.528 175.869 433.627 175.251 433.627 174.545C433.627 173.84 433.528 173.227 433.329 172.706C433.135 172.185 432.846 171.78 432.462 171.491C432.084 171.203 431.617 171.058 431.063 171.058C430.49 171.058 430.012 171.207 429.629 171.506C429.245 171.804 428.956 172.216 428.762 172.741C428.568 173.267 428.471 173.868 428.471 174.545C428.471 175.227 428.568 175.836 428.762 176.371C428.961 176.901 429.252 177.32 429.636 177.628C430.024 177.931 430.5 178.082 431.063 178.082ZM443.725 180.213C442.631 180.213 441.686 179.986 440.891 179.531C440.1 179.072 439.492 178.423 439.066 177.585C438.64 176.742 438.426 175.75 438.426 174.609C438.426 173.487 438.64 172.502 439.066 171.655C439.497 170.803 440.098 170.14 440.87 169.666C441.641 169.188 442.548 168.949 443.59 168.949C444.262 168.949 444.897 169.058 445.493 169.276C446.095 169.489 446.625 169.82 447.084 170.27C447.548 170.72 447.913 171.293 448.178 171.989C448.443 172.68 448.576 173.504 448.576 174.46V175.249H439.634V173.516H446.111C446.106 173.023 446 172.585 445.792 172.202C445.583 171.813 445.292 171.508 444.918 171.286C444.549 171.063 444.118 170.952 443.625 170.952C443.1 170.952 442.638 171.08 442.24 171.335C441.843 171.586 441.533 171.918 441.31 172.33C441.092 172.737 440.981 173.184 440.976 173.672V175.185C440.976 175.819 441.092 176.364 441.324 176.818C441.556 177.268 441.881 177.614 442.297 177.855C442.714 178.092 443.202 178.21 443.76 178.21C444.134 178.21 444.473 178.158 444.776 178.054C445.079 177.945 445.342 177.786 445.564 177.578C445.787 177.37 445.955 177.112 446.069 176.804L448.469 177.074C448.318 177.708 448.029 178.262 447.603 178.736C447.181 179.205 446.641 179.569 445.983 179.83C445.325 180.085 444.572 180.213 443.725 180.213ZM450.864 180V165.455H453.435V170.895H453.542C453.674 170.63 453.862 170.348 454.103 170.05C454.344 169.747 454.671 169.489 455.083 169.276C455.495 169.058 456.021 168.949 456.66 168.949C457.503 168.949 458.263 169.164 458.94 169.595C459.621 170.021 460.161 170.653 460.559 171.491C460.961 172.325 461.163 173.348 461.163 174.56C461.163 175.758 460.966 176.776 460.573 177.614C460.18 178.452 459.645 179.091 458.968 179.531C458.291 179.972 457.524 180.192 456.667 180.192C456.042 180.192 455.523 180.088 455.112 179.879C454.7 179.671 454.368 179.42 454.117 179.126C453.871 178.828 453.679 178.546 453.542 178.281H453.393V180H450.864ZM453.386 174.545C453.386 175.251 453.485 175.869 453.684 176.399C453.888 176.929 454.179 177.344 454.558 177.642C454.941 177.936 455.405 178.082 455.95 178.082C456.518 178.082 456.994 177.931 457.377 177.628C457.761 177.32 458.049 176.901 458.244 176.371C458.442 175.836 458.542 175.227 458.542 174.545C458.542 173.868 458.445 173.267 458.251 172.741C458.057 172.216 457.768 171.804 457.384 171.506C457.001 171.207 456.522 171.058 455.95 171.058C455.4 171.058 454.934 171.203 454.55 171.491C454.167 171.78 453.876 172.185 453.677 172.706C453.483 173.227 453.386 173.84 453.386 174.545ZM470.301 175.412V169.091H472.873V180H470.38V178.061H470.266C470.02 178.672 469.615 179.171 469.051 179.56C468.493 179.948 467.804 180.142 466.985 180.142C466.27 180.142 465.638 179.983 465.088 179.666C464.544 179.344 464.118 178.878 463.81 178.267C463.502 177.652 463.348 176.908 463.348 176.037V169.091H465.919V175.639C465.919 176.33 466.109 176.88 466.488 177.287C466.866 177.694 467.364 177.898 467.979 177.898C468.358 177.898 468.725 177.805 469.08 177.621C469.435 177.436 469.726 177.161 469.953 176.797C470.185 176.428 470.301 175.966 470.301 175.412ZM480.261 184.318C479.337 184.318 478.544 184.193 477.881 183.942C477.219 183.696 476.686 183.364 476.283 182.947C475.881 182.531 475.602 182.069 475.445 181.562L477.761 181.001C477.865 181.214 478.016 181.425 478.215 181.634C478.414 181.847 478.682 182.022 479.018 182.159C479.359 182.301 479.787 182.372 480.303 182.372C481.032 182.372 481.636 182.195 482.114 181.839C482.593 181.489 482.832 180.911 482.832 180.107V178.04H482.704C482.571 178.305 482.377 178.577 482.121 178.857C481.871 179.136 481.537 179.37 481.12 179.56C480.708 179.749 480.19 179.844 479.565 179.844C478.727 179.844 477.967 179.647 477.285 179.254C476.608 178.857 476.068 178.265 475.665 177.479C475.268 176.688 475.069 175.698 475.069 174.51C475.069 173.312 475.268 172.301 475.665 171.477C476.068 170.649 476.61 170.021 477.292 169.595C477.974 169.164 478.734 168.949 479.572 168.949C480.211 168.949 480.737 169.058 481.148 169.276C481.565 169.489 481.897 169.747 482.143 170.05C482.389 170.348 482.576 170.63 482.704 170.895H482.846V169.091H485.381V180.178C485.381 181.11 485.159 181.882 484.714 182.493C484.269 183.104 483.66 183.561 482.888 183.864C482.117 184.167 481.241 184.318 480.261 184.318ZM480.282 177.827C480.826 177.827 481.29 177.694 481.674 177.429C482.058 177.164 482.349 176.783 482.548 176.286C482.746 175.788 482.846 175.192 482.846 174.496C482.846 173.809 482.746 173.208 482.548 172.692C482.353 172.176 482.065 171.776 481.681 171.491C481.302 171.203 480.836 171.058 480.282 171.058C479.709 171.058 479.231 171.207 478.847 171.506C478.464 171.804 478.175 172.214 477.981 172.734C477.787 173.25 477.69 173.838 477.69 174.496C477.69 175.163 477.787 175.748 477.981 176.25C478.18 176.747 478.471 177.135 478.854 177.415C479.243 177.689 479.719 177.827 480.282 177.827ZM489.6 180.156C489.169 180.156 488.8 180.005 488.492 179.702C488.184 179.399 488.033 179.029 488.038 178.594C488.033 178.168 488.184 177.803 488.492 177.5C488.8 177.197 489.169 177.045 489.6 177.045C490.017 177.045 490.379 177.197 490.687 177.5C490.999 177.803 491.158 178.168 491.163 178.594C491.158 178.883 491.082 179.145 490.935 179.382C490.793 179.619 490.604 179.808 490.367 179.95C490.135 180.088 489.879 180.156 489.6 180.156ZM496.956 180.22C496.265 180.22 495.642 180.097 495.088 179.851C494.539 179.6 494.104 179.231 493.782 178.743C493.464 178.255 493.306 177.654 493.306 176.939C493.306 176.323 493.419 175.814 493.647 175.412C493.874 175.009 494.184 174.688 494.577 174.446C494.97 174.205 495.413 174.022 495.905 173.899C496.402 173.771 496.916 173.679 497.446 173.622C498.086 173.556 498.604 173.497 499.002 173.445C499.4 173.388 499.688 173.303 499.868 173.189C500.053 173.071 500.145 172.888 500.145 172.642V172.599C500.145 172.064 499.987 171.65 499.669 171.357C499.352 171.063 498.895 170.916 498.299 170.916C497.669 170.916 497.169 171.054 496.8 171.328C496.435 171.603 496.189 171.927 496.061 172.301L493.661 171.96C493.85 171.297 494.163 170.743 494.598 170.298C495.034 169.848 495.567 169.512 496.196 169.29C496.826 169.062 497.522 168.949 498.284 168.949C498.81 168.949 499.333 169.01 499.854 169.134C500.375 169.257 500.851 169.46 501.282 169.744C501.712 170.024 502.058 170.405 502.319 170.888C502.584 171.371 502.716 171.974 502.716 172.699V180H500.245V178.501H500.159C500.003 178.804 499.783 179.089 499.499 179.354C499.22 179.614 498.867 179.825 498.441 179.986C498.019 180.142 497.525 180.22 496.956 180.22ZM497.624 178.331C498.14 178.331 498.587 178.229 498.966 178.026C499.345 177.817 499.636 177.543 499.84 177.202C500.048 176.861 500.152 176.489 500.152 176.087V174.801C500.072 174.867 499.935 174.929 499.74 174.986C499.551 175.043 499.338 175.092 499.101 175.135C498.864 175.178 498.63 175.215 498.398 175.249C498.166 175.282 497.965 175.31 497.794 175.334C497.411 175.386 497.068 175.471 496.765 175.589C496.462 175.708 496.222 175.874 496.047 176.087C495.872 176.295 495.784 176.565 495.784 176.896C495.784 177.37 495.957 177.727 496.303 177.969C496.649 178.21 497.089 178.331 497.624 178.331ZM505.301 184.091V169.091H507.83V170.895H507.979C508.112 170.63 508.299 170.348 508.54 170.05C508.782 169.747 509.108 169.489 509.52 169.276C509.932 169.058 510.458 168.949 511.097 168.949C511.94 168.949 512.7 169.164 513.377 169.595C514.059 170.021 514.598 170.653 514.996 171.491C515.399 172.325 515.6 173.348 515.6 174.56C515.6 175.758 515.403 176.776 515.01 177.614C514.617 178.452 514.082 179.091 513.405 179.531C512.728 179.972 511.961 180.192 511.104 180.192C510.479 180.192 509.961 180.088 509.549 179.879C509.137 179.671 508.805 179.42 508.554 179.126C508.308 178.828 508.116 178.546 507.979 178.281H507.873V184.091H505.301ZM507.823 174.545C507.823 175.251 507.922 175.869 508.121 176.399C508.325 176.929 508.616 177.344 508.995 177.642C509.378 177.936 509.842 178.082 510.387 178.082C510.955 178.082 511.431 177.931 511.814 177.628C512.198 177.32 512.487 176.901 512.681 176.371C512.88 175.836 512.979 175.227 512.979 174.545C512.979 173.868 512.882 173.267 512.688 172.741C512.494 172.216 512.205 171.804 511.821 171.506C511.438 171.207 510.96 171.058 510.387 171.058C509.837 171.058 509.371 171.203 508.988 171.491C508.604 171.78 508.313 172.185 508.114 172.706C507.92 173.227 507.823 173.84 507.823 174.545ZM520.145 176.577L520.138 173.473H520.55L524.471 169.091H527.475L522.652 174.46H522.12L520.145 176.577ZM517.801 180V165.455H520.373V180H517.801ZM524.648 180L521.097 175.036L522.83 173.224L527.723 180H524.648Z" fill="#F2EEFF"/>
</g>
<defs>
<linearGradient id="paint0_linear_10_17" x1="9.32031" y1="250" x2="19.614" y2="159.112" gradientUnits="userSpaceOnUse">
<stop stop-color="#FFD1A7"/>
<stop offset="1" stop-color="#FF5A8B"/>
</linearGradient>
<clipPath id="clip0_10_17">
<rect width="646" height="250" fill="white"/>
</clipPath>
</defs>
</svg>
