<svg width="646" height="250" viewBox="0 0 646 250" fill="none" xmlns="http://www.w3.org/2000/svg">
<g clip-path="url(#clip0_10_17)">
<path d="M636.68 229H9.32031C9.99939 229.951 10.6756 230.905 11.418 231.805C12.4369 233.039 13.5135 234.224 14.6445 235.355C15.7756 236.486 16.9606 237.563 18.1953 238.582C19.43 239.601 20.7149 240.562 22.0449 241.461C23.3749 242.359 24.751 243.195 26.168 243.965C27.5849 244.735 29.0416 245.438 30.5371 246.07C32.0326 246.703 33.5652 247.265 35.1309 247.752C36.6965 248.239 38.2964 248.651 39.9238 248.984C41.5513 249.317 43.2078 249.571 44.8887 249.742C46.5695 249.913 48.2741 250 50 250H596C597.726 250 599.43 249.913 601.111 249.742C602.792 249.571 604.449 249.317 606.076 248.984C607.704 248.651 609.304 248.239 610.869 247.752C612.435 247.265 613.967 246.703 615.463 246.07C616.958 245.438 618.415 244.735 619.832 243.965C621.249 243.195 622.625 242.359 623.955 241.461C625.285 240.562 626.57 239.601 627.805 238.582C629.039 237.563 630.224 236.486 631.355 235.355C632.486 234.224 633.563 233.039 634.582 231.805C635.324 230.905 636.001 229.951 636.68 229Z" fill="url(#paint0_linear_10_17)"/>
<path d="M50 0C48.2741 0 46.5695 0.0871124 44.8887 0.257812C43.2078 0.428513 41.5513 0.682602 39.9238 1.01562C38.2964 1.34865 36.6965 1.76108 35.1309 2.24805C33.5652 2.73501 32.0326 3.29715 30.5371 3.92969C29.0416 4.56222 27.5849 5.26543 26.168 6.03516C24.751 6.80488 23.3749 7.64053 22.0449 8.53906C20.7149 9.4376 19.43 10.399 18.1953 11.418C16.9606 12.4369 15.7756 13.5135 14.6445 14.6445C13.5135 15.7756 12.4369 16.9606 11.418 18.1953C10.399 19.43 9.4376 20.7149 8.53906 22.0449C7.64053 23.3749 6.80488 24.751 6.03516 26.168C5.26543 27.5849 4.56222 29.0416 3.92969 30.5371C3.29715 32.0326 2.73501 33.5652 2.24805 35.1309C1.76108 36.6965 1.34865 38.2964 1.01562 39.9238C0.682602 41.5513 0.428513 43.2078 0.257812 44.8887C0.0871124 46.5695 0 48.2741 0 50V200C0 201.726 0.0871124 203.43 0.257812 205.111C0.428513 206.792 0.682602 208.449 1.01562 210.076C1.34865 211.704 1.76108 213.304 2.24805 214.869C2.73501 216.435 3.29715 217.967 3.92969 219.463C4.56222 220.958 5.26543 222.415 6.03516 223.832C6.80488 225.249 7.64053 226.625 8.53906 227.955C8.78294 228.316 9.06734 228.646 9.32031 229H636.68C636.933 228.646 637.217 228.316 637.461 227.955C638.359 226.625 639.195 225.249 639.965 223.832C640.735 222.415 641.438 220.958 642.07 219.463C642.703 217.967 643.265 216.435 643.752 214.869C644.239 213.304 644.651 211.704 644.984 210.076C645.317 208.449 645.571 206.792 645.742 205.111C645.913 203.43 646 201.726 646 200V50C646 48.2741 645.913 46.5695 645.742 44.8887C645.571 43.2078 645.317 41.5513 644.984 39.9238C644.651 38.2964 644.239 36.6965 643.752 35.1309C643.265 33.5652 642.703 32.0326 642.07 30.5371C641.438 29.0416 640.735 27.5849 639.965 26.168C639.195 24.751 638.359 23.3749 637.461 22.0449C636.562 20.7149 635.601 19.43 634.582 18.1953C633.563 16.9606 632.486 15.7756 631.355 14.6445C630.224 13.5135 629.039 12.4369 627.805 11.418C626.57 10.399 625.285 9.4376 623.955 8.53906C622.625 7.64053 621.249 6.80488 619.832 6.03516C618.415 5.26543 616.958 4.56222 615.463 3.92969C613.967 3.29715 612.435 2.73501 610.869 2.24805C609.304 1.76108 607.704 1.34865 606.076 1.01562C604.449 0.682602 602.792 0.428513 601.111 0.257812C599.43 0.0871124 597.726 0 596 0H50Z" fill="#161316"/>
<path fill-rule="evenodd" clip-rule="evenodd" d="M125.044 73C95.712 73 72 96.8332 72 126.318C72 149.887 87.1931 169.838 108.27 176.899C110.905 177.43 111.87 175.752 111.87 174.34C111.87 173.104 111.783 168.867 111.783 164.452C97.0279 167.631 93.9552 158.097 93.9552 158.097C91.5839 151.917 88.0704 150.329 88.0704 150.329C83.2409 147.063 88.4222 147.063 88.4222 147.063C93.7793 147.416 96.5904 152.536 96.5904 152.536C101.332 160.656 108.972 158.362 112.046 156.949C112.485 153.506 113.891 151.123 115.384 149.799C103.615 148.563 91.2332 143.973 91.2332 123.493C91.2332 117.667 93.3396 112.9 96.6772 109.193C96.1506 107.869 94.3059 102.395 97.2049 95.0685C97.2049 95.0685 101.684 93.6558 111.782 100.541C116.106 99.3744 120.565 98.7806 125.044 98.7756C129.523 98.7756 134.088 99.3942 138.304 100.541C148.404 93.6558 152.883 95.0685 152.883 95.0685C155.782 102.395 153.936 107.869 153.409 109.193C156.835 112.9 158.855 117.667 158.855 123.493C158.855 143.973 146.472 148.474 134.616 149.799C136.549 151.476 138.216 154.654 138.216 159.686C138.216 166.836 138.129 172.574 138.129 174.339C138.129 175.752 139.096 177.43 141.73 176.9C162.807 169.837 178 149.887 178 126.318C178.087 96.8332 154.288 73 125.044 73Z" fill="#F2EEFF"/>
<path d="M252.619 147H237.666V104.818H252.743C256.986 104.818 260.638 105.663 263.7 107.352C266.762 109.027 269.117 111.437 270.765 114.581C272.426 117.725 273.257 121.488 273.257 125.868C273.257 130.262 272.426 134.038 270.765 137.196C269.117 140.354 266.749 142.778 263.659 144.467C260.583 146.156 256.903 147 252.619 147ZM246.585 139.359H252.249C254.885 139.359 257.103 138.892 258.901 137.958C260.714 137.011 262.073 135.548 262.979 133.571C263.899 131.58 264.359 129.012 264.359 125.868C264.359 122.751 263.899 120.204 262.979 118.227C262.073 116.249 260.721 114.794 258.922 113.86C257.123 112.926 254.906 112.46 252.269 112.46H246.585V139.359ZM319.206 125.909C319.206 130.509 318.334 134.422 316.59 137.649C314.86 140.876 312.499 143.341 309.505 145.043C306.526 146.732 303.175 147.577 299.454 147.577C295.706 147.577 292.341 146.725 289.362 145.023C286.382 143.32 284.027 140.855 282.297 137.629C280.567 134.402 279.702 130.495 279.702 125.909C279.702 121.309 280.567 117.396 282.297 114.169C284.027 110.942 286.382 108.484 289.362 106.795C292.341 105.093 295.706 104.241 299.454 104.241C303.175 104.241 306.526 105.093 309.505 106.795C312.499 108.484 314.86 110.942 316.59 114.169C318.334 117.396 319.206 121.309 319.206 125.909ZM310.164 125.909C310.164 122.929 309.718 120.417 308.826 118.371C307.947 116.325 306.704 114.773 305.098 113.716C303.491 112.659 301.61 112.13 299.454 112.13C297.298 112.13 295.417 112.659 293.811 113.716C292.204 114.773 290.955 116.325 290.062 118.371C289.183 120.417 288.744 122.929 288.744 125.909C288.744 128.889 289.183 131.402 290.062 133.447C290.955 135.493 292.204 137.045 293.811 138.102C295.417 139.16 297.298 139.688 299.454 139.688C301.61 139.688 303.491 139.16 305.098 138.102C306.704 137.045 307.947 135.493 308.826 133.447C309.718 131.402 310.164 128.889 310.164 125.909ZM334.302 147L322.232 104.818H331.974L338.957 134.127H339.307L347.01 104.818H355.351L363.034 134.189H363.405L370.387 104.818H380.129L368.06 147H359.368L351.335 119.421H351.006L342.993 147H334.302ZM420.764 104.818V147H413.061L394.71 120.451H394.401V147H385.482V104.818H393.309L411.516 131.347H411.887V104.818H420.764ZM428.713 147V104.818H437.631V139.647H455.715V147H428.713ZM499.321 125.909C499.321 130.509 498.449 134.422 496.705 137.649C494.975 140.876 492.614 143.341 489.62 145.043C486.641 146.732 483.29 147.577 479.569 147.577C475.82 147.577 472.456 146.725 469.477 145.023C466.497 143.32 464.142 140.855 462.412 137.629C460.682 134.402 459.817 130.495 459.817 125.909C459.817 121.309 460.682 117.396 462.412 114.169C464.142 110.942 466.497 108.484 469.477 106.795C472.456 105.093 475.82 104.241 479.569 104.241C483.29 104.241 486.641 105.093 489.62 106.795C492.614 108.484 494.975 110.942 496.705 114.169C498.449 117.396 499.321 121.309 499.321 125.909ZM490.279 125.909C490.279 122.929 489.833 120.417 488.94 118.371C488.062 116.325 486.819 114.773 485.212 113.716C483.606 112.659 481.725 112.13 479.569 112.13C477.413 112.13 475.532 112.659 473.926 113.716C472.319 114.773 471.07 116.325 470.177 118.371C469.298 120.417 468.859 122.929 468.859 125.909C468.859 128.889 469.298 131.402 470.177 133.447C471.07 135.493 472.319 137.045 473.926 138.102C475.532 139.16 477.413 139.688 479.569 139.688C481.725 139.688 483.606 139.16 485.212 138.102C486.819 137.045 488.062 135.493 488.94 133.447C489.833 131.402 490.279 128.889 490.279 125.909ZM511.399 147H501.842L516.404 104.818H527.897L542.438 147H532.881L522.315 114.457H521.986L511.399 147ZM510.802 130.42H533.376V137.381H510.802V130.42ZM563.048 147H548.095V104.818H563.172C567.415 104.818 571.067 105.663 574.129 107.352C577.191 109.027 579.546 111.437 581.194 114.581C582.856 117.725 583.686 121.488 583.686 125.868C583.686 130.262 582.856 134.038 581.194 137.196C579.546 140.354 577.178 142.778 574.088 144.467C571.012 146.156 567.333 147 563.048 147ZM557.014 139.359H562.678C565.314 139.359 567.532 138.892 569.33 137.958C571.143 137.011 572.502 135.548 573.409 133.571C574.329 131.58 574.789 129.012 574.789 125.868C574.789 122.751 574.329 120.204 573.409 118.227C572.502 116.249 571.15 114.794 569.351 113.86C567.552 112.926 565.335 112.46 562.698 112.46H557.014V139.359Z" fill="#F2EEFF"/>
<path d="M319.274 175.412V169.091H321.845V180H319.352V178.061H319.239C318.992 178.672 318.588 179.171 318.024 179.56C317.465 179.948 316.777 180.142 315.957 180.142C315.242 180.142 314.61 179.983 314.061 179.666C313.517 179.344 313.09 178.878 312.783 178.267C312.475 177.652 312.321 176.908 312.321 176.037V169.091H314.892V175.639C314.892 176.33 315.081 176.88 315.46 177.287C315.839 177.694 316.336 177.898 316.952 177.898C317.33 177.898 317.697 177.805 318.053 177.621C318.408 177.436 318.699 177.161 318.926 176.797C319.158 176.428 319.274 175.966 319.274 175.412ZM327.06 173.608V180H324.489V169.091H326.946V170.945H327.074C327.325 170.334 327.725 169.848 328.275 169.489C328.828 169.129 329.513 168.949 330.327 168.949C331.08 168.949 331.736 169.11 332.294 169.432C332.858 169.754 333.293 170.22 333.601 170.831C333.914 171.442 334.068 172.183 334.063 173.054V180H331.492V173.452C331.492 172.723 331.302 172.152 330.924 171.74C330.55 171.328 330.031 171.122 329.368 171.122C328.918 171.122 328.518 171.222 328.168 171.42C327.822 171.615 327.55 171.896 327.351 172.266C327.157 172.635 327.06 173.082 327.06 173.608ZM336.676 180V169.091H339.248V180H336.676ZM337.969 167.543C337.562 167.543 337.212 167.408 336.918 167.138C336.624 166.863 336.478 166.534 336.478 166.151C336.478 165.762 336.624 165.433 336.918 165.163C337.212 164.889 337.562 164.751 337.969 164.751C338.381 164.751 338.731 164.889 339.02 165.163C339.314 165.433 339.461 165.762 339.461 166.151C339.461 166.534 339.314 166.863 339.02 167.138C338.731 167.408 338.381 167.543 337.969 167.543ZM351.636 169.091L347.751 180H344.91L341.025 169.091H343.766L346.273 177.195H346.387L348.901 169.091H351.636ZM357.873 180.213C356.779 180.213 355.835 179.986 355.039 179.531C354.249 179.072 353.64 178.423 353.214 177.585C352.788 176.742 352.575 175.75 352.575 174.609C352.575 173.487 352.788 172.502 353.214 171.655C353.645 170.803 354.246 170.14 355.018 169.666C355.79 169.188 356.697 168.949 357.738 168.949C358.411 168.949 359.045 169.058 359.642 169.276C360.243 169.489 360.773 169.82 361.233 170.27C361.697 170.72 362.061 171.293 362.326 171.989C362.592 172.68 362.724 173.504 362.724 174.46V175.249H353.782V173.516H360.26C360.255 173.023 360.148 172.585 359.94 172.202C359.732 171.813 359.44 171.508 359.066 171.286C358.697 171.063 358.266 170.952 357.774 170.952C357.248 170.952 356.787 171.08 356.389 171.335C355.991 171.586 355.681 171.918 355.458 172.33C355.241 172.737 355.129 173.184 355.125 173.672V175.185C355.125 175.819 355.241 176.364 355.473 176.818C355.705 177.268 356.029 177.614 356.446 177.855C356.862 178.092 357.35 178.21 357.909 178.21C358.283 178.21 358.621 178.158 358.924 178.054C359.227 177.945 359.49 177.786 359.713 177.578C359.935 177.37 360.103 177.112 360.217 176.804L362.618 177.074C362.466 177.708 362.177 178.262 361.751 178.736C361.33 179.205 360.79 179.569 360.132 179.83C359.474 180.085 358.721 180.213 357.873 180.213ZM364.899 180V169.091H367.392V170.909H367.506C367.705 170.279 368.045 169.794 368.528 169.453C369.016 169.107 369.572 168.935 370.197 168.935C370.339 168.935 370.498 168.942 370.673 168.956C370.853 168.965 371.002 168.982 371.121 169.006V171.371C371.012 171.333 370.839 171.3 370.602 171.271C370.37 171.238 370.145 171.222 369.928 171.222C369.459 171.222 369.037 171.323 368.663 171.527C368.294 171.726 368.003 172.003 367.79 172.358C367.577 172.713 367.47 173.123 367.47 173.587V180H364.899ZM381.451 171.974L379.107 172.23C379.041 171.993 378.925 171.771 378.759 171.562C378.598 171.354 378.38 171.186 378.106 171.058C377.831 170.93 377.495 170.866 377.097 170.866C376.562 170.866 376.112 170.982 375.748 171.214C375.388 171.446 375.21 171.747 375.215 172.116C375.21 172.434 375.326 172.692 375.563 172.891C375.805 173.089 376.202 173.253 376.756 173.381L378.617 173.778C379.649 174.001 380.416 174.354 380.918 174.837C381.425 175.32 381.681 175.952 381.685 176.733C381.681 177.42 381.479 178.026 381.082 178.551C380.689 179.072 380.142 179.479 379.441 179.773C378.74 180.066 377.935 180.213 377.026 180.213C375.691 180.213 374.616 179.934 373.802 179.375C372.987 178.812 372.502 178.028 372.346 177.024L374.853 176.783C374.967 177.275 375.208 177.647 375.577 177.898C375.947 178.149 376.427 178.274 377.019 178.274C377.63 178.274 378.12 178.149 378.489 177.898C378.863 177.647 379.05 177.337 379.05 176.967C379.05 176.655 378.93 176.397 378.688 176.193C378.451 175.99 378.082 175.833 377.58 175.724L375.719 175.334C374.673 175.116 373.899 174.749 373.397 174.233C372.895 173.712 372.647 173.054 372.651 172.259C372.647 171.586 372.829 171.004 373.198 170.511C373.572 170.014 374.091 169.631 374.754 169.361C375.421 169.086 376.191 168.949 377.062 168.949C378.34 168.949 379.346 169.221 380.08 169.766C380.819 170.31 381.276 171.046 381.451 171.974ZM386.945 180.22C386.253 180.22 385.631 180.097 385.077 179.851C384.527 179.6 384.092 179.231 383.77 178.743C383.453 178.255 383.294 177.654 383.294 176.939C383.294 176.323 383.408 175.814 383.635 175.412C383.862 175.009 384.172 174.688 384.565 174.446C384.958 174.205 385.401 174.022 385.893 173.899C386.391 173.771 386.904 173.679 387.435 173.622C388.074 173.556 388.592 173.497 388.99 173.445C389.388 173.388 389.677 173.303 389.857 173.189C390.041 173.071 390.134 172.888 390.134 172.642V172.599C390.134 172.064 389.975 171.65 389.658 171.357C389.34 171.063 388.884 170.916 388.287 170.916C387.657 170.916 387.158 171.054 386.788 171.328C386.424 171.603 386.178 171.927 386.05 172.301L383.649 171.96C383.839 171.297 384.151 170.743 384.587 170.298C385.022 169.848 385.555 169.512 386.185 169.29C386.814 169.062 387.51 168.949 388.273 168.949C388.798 168.949 389.321 169.01 389.842 169.134C390.363 169.257 390.839 169.46 391.27 169.744C391.701 170.024 392.046 170.405 392.307 170.888C392.572 171.371 392.705 171.974 392.705 172.699V180H390.233V178.501H390.148C389.991 178.804 389.771 179.089 389.487 179.354C389.208 179.614 388.855 179.825 388.429 179.986C388.008 180.142 387.513 180.22 386.945 180.22ZM387.612 178.331C388.128 178.331 388.576 178.229 388.955 178.026C389.333 177.817 389.625 177.543 389.828 177.202C390.036 176.861 390.141 176.489 390.141 176.087V174.801C390.06 174.867 389.923 174.929 389.729 174.986C389.539 175.043 389.326 175.092 389.089 175.135C388.853 175.178 388.618 175.215 388.386 175.249C388.154 175.282 387.953 175.31 387.783 175.334C387.399 175.386 387.056 175.471 386.753 175.589C386.45 175.708 386.211 175.874 386.036 176.087C385.86 176.295 385.773 176.565 385.773 176.896C385.773 177.37 385.946 177.727 386.291 177.969C386.637 178.21 387.077 178.331 387.612 178.331ZM397.861 165.455V180H395.29V165.455H397.861ZM407.117 172.884V175H400.569V172.884H407.117ZM413.869 180.192C413.012 180.192 412.245 179.972 411.568 179.531C410.891 179.091 410.356 178.452 409.963 177.614C409.57 176.776 409.374 175.758 409.374 174.56C409.374 173.348 409.572 172.325 409.97 171.491C410.373 170.653 410.915 170.021 411.597 169.595C412.278 169.164 413.038 168.949 413.876 168.949C414.516 168.949 415.041 169.058 415.453 169.276C415.865 169.489 416.192 169.747 416.433 170.05C416.675 170.348 416.862 170.63 416.994 170.895H417.101V165.455H419.679V180H417.151V178.281H416.994C416.862 178.546 416.67 178.828 416.419 179.126C416.168 179.42 415.837 179.671 415.425 179.879C415.013 180.088 414.494 180.192 413.869 180.192ZM414.587 178.082C415.131 178.082 415.595 177.936 415.979 177.642C416.362 177.344 416.653 176.929 416.852 176.399C417.051 175.869 417.151 175.251 417.151 174.545C417.151 173.84 417.051 173.227 416.852 172.706C416.658 172.185 416.369 171.78 415.986 171.491C415.607 171.203 415.141 171.058 414.587 171.058C414.014 171.058 413.536 171.207 413.152 171.506C412.768 171.804 412.48 172.216 412.286 172.741C412.091 173.267 411.994 173.868 411.994 174.545C411.994 175.227 412.091 175.836 412.286 176.371C412.484 176.901 412.776 177.32 413.159 177.628C413.547 177.931 414.023 178.082 414.587 178.082ZM427.248 180.213C426.154 180.213 425.21 179.986 424.414 179.531C423.624 179.072 423.015 178.423 422.589 177.585C422.163 176.742 421.95 175.75 421.95 174.609C421.95 173.487 422.163 172.502 422.589 171.655C423.02 170.803 423.621 170.14 424.393 169.666C425.165 169.188 426.072 168.949 427.113 168.949C427.786 168.949 428.42 169.058 429.017 169.276C429.618 169.489 430.148 169.82 430.608 170.27C431.072 170.72 431.436 171.293 431.701 171.989C431.967 172.68 432.099 173.504 432.099 174.46V175.249H423.157V173.516H429.635C429.63 173.023 429.523 172.585 429.315 172.202C429.107 171.813 428.815 171.508 428.441 171.286C428.072 171.063 427.641 170.952 427.149 170.952C426.623 170.952 426.162 171.08 425.764 171.335C425.366 171.586 425.056 171.918 424.833 172.33C424.616 172.737 424.504 173.184 424.5 173.672V175.185C424.5 175.819 424.616 176.364 424.848 176.818C425.08 177.268 425.404 177.614 425.821 177.855C426.237 178.092 426.725 178.21 427.284 178.21C427.658 178.21 427.996 178.158 428.299 178.054C428.602 177.945 428.865 177.786 429.088 177.578C429.31 177.37 429.478 177.112 429.592 176.804L431.993 177.074C431.841 177.708 431.552 178.262 431.126 178.736C430.705 179.205 430.165 179.569 429.507 179.83C428.849 180.085 428.096 180.213 427.248 180.213ZM434.388 180V165.455H436.959V170.895H437.065C437.198 170.63 437.385 170.348 437.626 170.05C437.868 169.747 438.195 169.489 438.607 169.276C439.018 169.058 439.544 168.949 440.183 168.949C441.026 168.949 441.786 169.164 442.463 169.595C443.145 170.021 443.685 170.653 444.082 171.491C444.485 172.325 444.686 173.348 444.686 174.56C444.686 175.758 444.49 176.776 444.097 177.614C443.704 178.452 443.169 179.091 442.491 179.531C441.814 179.972 441.047 180.192 440.19 180.192C439.565 180.192 439.047 180.088 438.635 179.879C438.223 179.671 437.892 179.42 437.641 179.126C437.394 178.828 437.203 178.546 437.065 178.281H436.916V180H434.388ZM436.909 174.545C436.909 175.251 437.009 175.869 437.207 176.399C437.411 176.929 437.702 177.344 438.081 177.642C438.464 177.936 438.929 178.082 439.473 178.082C440.041 178.082 440.517 177.931 440.901 177.628C441.284 177.32 441.573 176.901 441.767 176.371C441.966 175.836 442.065 175.227 442.065 174.545C442.065 173.868 441.968 173.267 441.774 172.741C441.58 172.216 441.291 171.804 440.908 171.506C440.524 171.207 440.046 171.058 439.473 171.058C438.924 171.058 438.457 171.203 438.074 171.491C437.69 171.78 437.399 172.185 437.2 172.706C437.006 173.227 436.909 173.84 436.909 174.545ZM453.825 175.412V169.091H456.396V180H453.903V178.061H453.789C453.543 178.672 453.138 179.171 452.575 179.56C452.016 179.948 451.327 180.142 450.508 180.142C449.793 180.142 449.161 179.983 448.612 179.666C448.067 179.344 447.641 178.878 447.333 178.267C447.026 177.652 446.872 176.908 446.872 176.037V169.091H449.443V175.639C449.443 176.33 449.632 176.88 450.011 177.287C450.39 177.694 450.887 177.898 451.502 177.898C451.881 177.898 452.248 177.805 452.603 177.621C452.958 177.436 453.25 177.161 453.477 176.797C453.709 176.428 453.825 175.966 453.825 175.412ZM463.784 184.318C462.861 184.318 462.068 184.193 461.405 183.942C460.742 183.696 460.209 183.364 459.807 182.947C459.404 182.531 459.125 182.069 458.969 181.562L461.284 181.001C461.388 181.214 461.54 181.425 461.739 181.634C461.938 181.847 462.205 182.022 462.541 182.159C462.882 182.301 463.311 182.372 463.827 182.372C464.556 182.372 465.16 182.195 465.638 181.839C466.116 181.489 466.355 180.911 466.355 180.107V178.04H466.227C466.095 178.305 465.901 178.577 465.645 178.857C465.394 179.136 465.06 179.37 464.643 179.56C464.232 179.749 463.713 179.844 463.088 179.844C462.25 179.844 461.49 179.647 460.808 179.254C460.131 178.857 459.591 178.265 459.189 177.479C458.791 176.688 458.592 175.698 458.592 174.51C458.592 173.312 458.791 172.301 459.189 171.477C459.591 170.649 460.134 170.021 460.815 169.595C461.497 169.164 462.257 168.949 463.095 168.949C463.734 168.949 464.26 169.058 464.672 169.276C465.089 169.489 465.42 169.747 465.666 170.05C465.912 170.348 466.099 170.63 466.227 170.895H466.369V169.091H468.905V180.178C468.905 181.11 468.682 181.882 468.237 182.493C467.792 183.104 467.184 183.561 466.412 183.864C465.64 184.167 464.764 184.318 463.784 184.318ZM463.805 177.827C464.35 177.827 464.814 177.694 465.197 177.429C465.581 177.164 465.872 176.783 466.071 176.286C466.27 175.788 466.369 175.192 466.369 174.496C466.369 173.809 466.27 173.208 466.071 172.692C465.877 172.176 465.588 171.776 465.205 171.491C464.826 171.203 464.359 171.058 463.805 171.058C463.232 171.058 462.754 171.207 462.371 171.506C461.987 171.804 461.698 172.214 461.504 172.734C461.31 173.25 461.213 173.838 461.213 174.496C461.213 175.163 461.31 175.748 461.504 176.25C461.703 176.747 461.994 177.135 462.378 177.415C462.766 177.689 463.242 177.827 463.805 177.827ZM473.124 180.156C472.693 180.156 472.323 180.005 472.016 179.702C471.708 179.399 471.556 179.029 471.561 178.594C471.556 178.168 471.708 177.803 472.016 177.5C472.323 177.197 472.693 177.045 473.124 177.045C473.54 177.045 473.902 177.197 474.21 177.5C474.523 177.803 474.681 178.168 474.686 178.594C474.681 178.883 474.606 179.145 474.459 179.382C474.317 179.619 474.127 179.808 473.891 179.95C473.659 180.088 473.403 180.156 473.124 180.156ZM480.48 180.22C479.788 180.22 479.166 180.097 478.612 179.851C478.063 179.6 477.627 179.231 477.305 178.743C476.988 178.255 476.829 177.654 476.829 176.939C476.829 176.323 476.943 175.814 477.17 175.412C477.397 175.009 477.708 174.688 478.1 174.446C478.493 174.205 478.936 174.022 479.429 173.899C479.926 173.771 480.44 173.679 480.97 173.622C481.609 173.556 482.127 173.497 482.525 173.445C482.923 173.388 483.212 173.303 483.392 173.189C483.576 173.071 483.669 172.888 483.669 172.642V172.599C483.669 172.064 483.51 171.65 483.193 171.357C482.876 171.063 482.419 170.916 481.822 170.916C481.192 170.916 480.693 171.054 480.324 171.328C479.959 171.603 479.713 171.927 479.585 172.301L477.184 171.96C477.374 171.297 477.686 170.743 478.122 170.298C478.557 169.848 479.09 169.512 479.72 169.29C480.35 169.062 481.046 168.949 481.808 168.949C482.333 168.949 482.857 169.01 483.377 169.134C483.898 169.257 484.374 169.46 484.805 169.744C485.236 170.024 485.582 170.405 485.842 170.888C486.107 171.371 486.24 171.974 486.24 172.699V180H483.768V178.501H483.683C483.527 178.804 483.306 179.089 483.022 179.354C482.743 179.614 482.39 179.825 481.964 179.986C481.543 180.142 481.048 180.22 480.48 180.22ZM481.147 178.331C481.663 178.331 482.111 178.229 482.49 178.026C482.868 177.817 483.16 177.543 483.363 177.202C483.572 176.861 483.676 176.489 483.676 176.087V174.801C483.595 174.867 483.458 174.929 483.264 174.986C483.074 175.043 482.861 175.092 482.625 175.135C482.388 175.178 482.154 175.215 481.922 175.249C481.69 175.282 481.488 175.31 481.318 175.334C480.934 175.386 480.591 175.471 480.288 175.589C479.985 175.708 479.746 175.874 479.571 176.087C479.395 176.295 479.308 176.565 479.308 176.896C479.308 177.37 479.481 177.727 479.826 177.969C480.172 178.21 480.612 178.331 481.147 178.331ZM488.825 184.091V169.091H491.353V170.895H491.502C491.635 170.63 491.822 170.348 492.064 170.05C492.305 169.747 492.632 169.489 493.044 169.276C493.456 169.058 493.981 168.949 494.62 168.949C495.463 168.949 496.223 169.164 496.9 169.595C497.582 170.021 498.122 170.653 498.52 171.491C498.922 172.325 499.123 173.348 499.123 174.56C499.123 175.758 498.927 176.776 498.534 177.614C498.141 178.452 497.606 179.091 496.929 179.531C496.252 179.972 495.484 180.192 494.627 180.192C494.002 180.192 493.484 180.088 493.072 179.879C492.66 179.671 492.329 179.42 492.078 179.126C491.832 178.828 491.64 178.546 491.502 178.281H491.396V184.091H488.825ZM491.346 174.545C491.346 175.251 491.446 175.869 491.645 176.399C491.848 176.929 492.139 177.344 492.518 177.642C492.902 177.936 493.366 178.082 493.91 178.082C494.478 178.082 494.954 177.931 495.338 177.628C495.721 177.32 496.01 176.901 496.204 176.371C496.403 175.836 496.502 175.227 496.502 174.545C496.502 173.868 496.405 173.267 496.211 172.741C496.017 172.216 495.728 171.804 495.345 171.506C494.961 171.207 494.483 171.058 493.91 171.058C493.361 171.058 492.895 171.203 492.511 171.491C492.127 171.78 491.836 172.185 491.637 172.706C491.443 173.227 491.346 173.84 491.346 174.545ZM503.669 176.577L503.662 173.473H504.074L507.994 169.091H510.998L506.176 174.46H505.643L503.669 176.577ZM501.325 180V165.455H503.896V180H501.325ZM508.172 180L504.62 175.036L506.353 173.224L511.247 180H508.172Z" fill="#F2EEFF"/>
</g>
<defs>
<linearGradient id="paint0_linear_10_17" x1="9.32031" y1="250" x2="19.614" y2="159.112" gradientUnits="userSpaceOnUse">
<stop stop-color="#FFD1A7"/>
<stop offset="1" stop-color="#FF5A8B"/>
</linearGradient>
<clipPath id="clip0_10_17">
<rect width="646" height="250" fill="white"/>
</clipPath>
</defs>
</svg>
