<svg width="646" height="250" viewBox="0 0 646 250" fill="none" xmlns="http://www.w3.org/2000/svg">
<g clip-path="url(#clip0_10_17)">
<path d="M636.68 229H9.32031C9.99939 229.951 10.6756 230.905 11.418 231.805C12.4369 233.039 13.5135 234.224 14.6445 235.355C15.7756 236.486 16.9606 237.563 18.1953 238.582C19.43 239.601 20.7149 240.562 22.0449 241.461C23.3749 242.359 24.751 243.195 26.168 243.965C27.5849 244.735 29.0416 245.438 30.5371 246.07C32.0326 246.703 33.5652 247.265 35.1309 247.752C36.6965 248.239 38.2964 248.651 39.9238 248.984C41.5513 249.317 43.2078 249.571 44.8887 249.742C46.5695 249.913 48.2741 250 50 250H596C597.726 250 599.43 249.913 601.111 249.742C602.792 249.571 604.449 249.317 606.076 248.984C607.704 248.651 609.304 248.239 610.869 247.752C612.435 247.265 613.967 246.703 615.463 246.07C616.958 245.438 618.415 244.735 619.832 243.965C621.249 243.195 622.625 242.359 623.955 241.461C625.285 240.562 626.57 239.601 627.805 238.582C629.039 237.563 630.224 236.486 631.355 235.355C632.486 234.224 633.563 233.039 634.582 231.805C635.324 230.905 636.001 229.951 636.68 229Z" fill="url(#paint0_linear_10_17)"/>
<path d="M50 0C48.2741 0 46.5695 0.0871124 44.8887 0.257812C43.2078 0.428513 41.5513 0.682602 39.9238 1.01562C38.2964 1.34865 36.6965 1.76108 35.1309 2.24805C33.5652 2.73501 32.0326 3.29715 30.5371 3.92969C29.0416 4.56222 27.5849 5.26543 26.168 6.03516C24.751 6.80488 23.3749 7.64053 22.0449 8.53906C20.7149 9.4376 19.43 10.399 18.1953 11.418C16.9606 12.4369 15.7756 13.5135 14.6445 14.6445C13.5135 15.7756 12.4369 16.9606 11.418 18.1953C10.399 19.43 9.4376 20.7149 8.53906 22.0449C7.64053 23.3749 6.80488 24.751 6.03516 26.168C5.26543 27.5849 4.56222 29.0416 3.92969 30.5371C3.29715 32.0326 2.73501 33.5652 2.24805 35.1309C1.76108 36.6965 1.34865 38.2964 1.01562 39.9238C0.682602 41.5513 0.428513 43.2078 0.257812 44.8887C0.0871124 46.5695 0 48.2741 0 50V200C0 201.726 0.0871124 203.43 0.257812 205.111C0.428513 206.792 0.682602 208.449 1.01562 210.076C1.34865 211.704 1.76108 213.304 2.24805 214.869C2.73501 216.435 3.29715 217.967 3.92969 219.463C4.56222 220.958 5.26543 222.415 6.03516 223.832C6.80488 225.249 7.64053 226.625 8.53906 227.955C8.78294 228.316 9.06734 228.646 9.32031 229H636.68C636.933 228.646 637.217 228.316 637.461 227.955C638.359 226.625 639.195 225.249 639.965 223.832C640.735 222.415 641.438 220.958 642.07 219.463C642.703 217.967 643.265 216.435 643.752 214.869C644.239 213.304 644.651 211.704 644.984 210.076C645.317 208.449 645.571 206.792 645.742 205.111C645.913 203.43 646 201.726 646 200V50C646 48.2741 645.913 46.5695 645.742 44.8887C645.571 43.2078 645.317 41.5513 644.984 39.9238C644.651 38.2964 644.239 36.6965 643.752 35.1309C643.265 33.5652 642.703 32.0326 642.07 30.5371C641.438 29.0416 640.735 27.5849 639.965 26.168C639.195 24.751 638.359 23.3749 637.461 22.0449C636.562 20.7149 635.601 19.43 634.582 18.1953C633.563 16.9606 632.486 15.7756 631.355 14.6445C630.224 13.5135 629.039 12.4369 627.805 11.418C626.57 10.399 625.285 9.4376 623.955 8.53906C622.625 7.64053 621.249 6.80488 619.832 6.03516C618.415 5.26543 616.958 4.56222 615.463 3.92969C613.967 3.29715 612.435 2.73501 610.869 2.24805C609.304 1.76108 607.704 1.34865 606.076 1.01562C604.449 0.682602 602.792 0.428513 601.111 0.257812C599.43 0.0871124 597.726 0 596 0H50Z" fill="#161316"/>
<path fill-rule="evenodd" clip-rule="evenodd" d="M125.044 73C95.712 73 72 96.8332 72 126.318C72 149.887 87.1931 169.838 108.27 176.899C110.905 177.43 111.87 175.752 111.87 174.34C111.87 173.104 111.783 168.867 111.783 164.452C97.0279 167.631 93.9552 158.097 93.9552 158.097C91.5839 151.917 88.0704 150.329 88.0704 150.329C83.2409 147.063 88.4222 147.063 88.4222 147.063C93.7793 147.416 96.5904 152.536 96.5904 152.536C101.332 160.656 108.972 158.362 112.046 156.949C112.485 153.506 113.891 151.123 115.384 149.799C103.615 148.563 91.2332 143.973 91.2332 123.493C91.2332 117.667 93.3396 112.9 96.6772 109.193C96.1506 107.869 94.3059 102.395 97.2049 95.0685C97.2049 95.0685 101.684 93.6558 111.782 100.541C116.106 99.3744 120.565 98.7806 125.044 98.7756C129.523 98.7756 134.088 99.3942 138.304 100.541C148.404 93.6558 152.883 95.0685 152.883 95.0685C155.782 102.395 153.936 107.869 153.409 109.193C156.835 112.9 158.855 117.667 158.855 123.493C158.855 143.973 146.472 148.474 134.616 149.799C136.549 151.476 138.216 154.654 138.216 159.686C138.216 166.836 138.129 172.574 138.129 174.339C138.129 175.752 139.096 177.43 141.73 176.9C162.807 169.837 178 149.887 178 126.318C178.087 96.8332 154.288 73 125.044 73Z" fill="#F2EEFF"/>
<path d="M252.619 147H237.666V104.818H252.743C256.986 104.818 260.638 105.663 263.7 107.352C266.762 109.027 269.117 111.437 270.765 114.581C272.426 117.725 273.257 121.488 273.257 125.868C273.257 130.262 272.426 134.038 270.765 137.196C269.117 140.354 266.749 142.778 263.659 144.467C260.583 146.156 256.903 147 252.619 147ZM246.585 139.359H252.249C254.885 139.359 257.103 138.892 258.901 137.958C260.714 137.011 262.073 135.548 262.979 133.571C263.899 131.58 264.359 129.012 264.359 125.868C264.359 122.751 263.899 120.204 262.979 118.227C262.073 116.249 260.721 114.794 258.922 113.86C257.123 112.926 254.906 112.46 252.269 112.46H246.585V139.359ZM319.206 125.909C319.206 130.509 318.334 134.422 316.59 137.649C314.86 140.876 312.499 143.341 309.505 145.043C306.526 146.732 303.175 147.577 299.454 147.577C295.706 147.577 292.341 146.725 289.362 145.023C286.382 143.32 284.027 140.855 282.297 137.629C280.567 134.402 279.702 130.495 279.702 125.909C279.702 121.309 280.567 117.396 282.297 114.169C284.027 110.942 286.382 108.484 289.362 106.795C292.341 105.093 295.706 104.241 299.454 104.241C303.175 104.241 306.526 105.093 309.505 106.795C312.499 108.484 314.86 110.942 316.59 114.169C318.334 117.396 319.206 121.309 319.206 125.909ZM310.164 125.909C310.164 122.929 309.718 120.417 308.826 118.371C307.947 116.325 306.704 114.773 305.098 113.716C303.491 112.659 301.61 112.13 299.454 112.13C297.298 112.13 295.417 112.659 293.811 113.716C292.204 114.773 290.955 116.325 290.062 118.371C289.183 120.417 288.744 122.929 288.744 125.909C288.744 128.889 289.183 131.402 290.062 133.447C290.955 135.493 292.204 137.045 293.811 138.102C295.417 139.16 297.298 139.688 299.454 139.688C301.61 139.688 303.491 139.16 305.098 138.102C306.704 137.045 307.947 135.493 308.826 133.447C309.718 131.402 310.164 128.889 310.164 125.909ZM334.302 147L322.232 104.818H331.974L338.957 134.127H339.307L347.01 104.818H355.351L363.034 134.189H363.405L370.387 104.818H380.129L368.06 147H359.368L351.335 119.421H351.006L342.993 147H334.302ZM420.764 104.818V147H413.061L394.71 120.451H394.401V147H385.482V104.818H393.309L411.516 131.347H411.887V104.818H420.764ZM428.713 147V104.818H437.631V139.647H455.715V147H428.713ZM499.321 125.909C499.321 130.509 498.449 134.422 496.705 137.649C494.975 140.876 492.614 143.341 489.62 145.043C486.641 146.732 483.29 147.577 479.569 147.577C475.82 147.577 472.456 146.725 469.477 145.023C466.497 143.32 464.142 140.855 462.412 137.629C460.682 134.402 459.817 130.495 459.817 125.909C459.817 121.309 460.682 117.396 462.412 114.169C464.142 110.942 466.497 108.484 469.477 106.795C472.456 105.093 475.82 104.241 479.569 104.241C483.29 104.241 486.641 105.093 489.62 106.795C492.614 108.484 494.975 110.942 496.705 114.169C498.449 117.396 499.321 121.309 499.321 125.909ZM490.279 125.909C490.279 122.929 489.833 120.417 488.94 118.371C488.062 116.325 486.819 114.773 485.212 113.716C483.606 112.659 481.725 112.13 479.569 112.13C477.413 112.13 475.532 112.659 473.926 113.716C472.319 114.773 471.07 116.325 470.177 118.371C469.298 120.417 468.859 122.929 468.859 125.909C468.859 128.889 469.298 131.402 470.177 133.447C471.07 135.493 472.319 137.045 473.926 138.102C475.532 139.16 477.413 139.688 479.569 139.688C481.725 139.688 483.606 139.16 485.212 138.102C486.819 137.045 488.062 135.493 488.94 133.447C489.833 131.402 490.279 128.889 490.279 125.909ZM511.399 147H501.842L516.404 104.818H527.897L542.438 147H532.881L522.315 114.457H521.986L511.399 147ZM510.802 130.42H533.376V137.381H510.802V130.42ZM563.048 147H548.095V104.818H563.172C567.415 104.818 571.067 105.663 574.129 107.352C577.191 109.027 579.546 111.437 581.194 114.581C582.856 117.725 583.686 121.488 583.686 125.868C583.686 130.262 582.856 134.038 581.194 137.196C579.546 140.354 577.178 142.778 574.088 144.467C571.012 146.156 567.333 147 563.048 147ZM557.014 139.359H562.678C565.314 139.359 567.532 138.892 569.33 137.958C571.143 137.011 572.502 135.548 573.409 133.571C574.329 131.58 574.789 129.012 574.789 125.868C574.789 122.751 574.329 120.204 573.409 118.227C572.502 116.249 571.15 114.794 569.351 113.86C567.552 112.926 565.335 112.46 562.698 112.46H557.014V139.359Z" fill="#F2EEFF"/>
<path d="M360.423 169.091L362.625 173.118L364.862 169.091H367.582L364.294 174.545L367.639 180H364.933L362.625 176.072L360.338 180H357.611L360.935 174.545L357.696 169.091H360.423ZM374.713 180.199C373.657 180.199 372.72 180.021 371.901 179.666C371.086 179.311 370.447 178.826 369.983 178.21C369.524 177.59 369.296 176.887 369.301 176.101C369.296 175.49 369.429 174.929 369.699 174.418C369.969 173.906 370.333 173.48 370.793 173.139C371.257 172.794 371.773 172.573 372.341 172.479V172.379C371.593 172.214 370.987 171.832 370.523 171.236C370.063 170.634 369.836 169.941 369.841 169.155C369.836 168.407 370.045 167.739 370.466 167.152C370.887 166.565 371.465 166.103 372.199 165.767C372.933 165.426 373.771 165.256 374.713 165.256C375.646 165.256 376.477 165.426 377.206 165.767C377.94 166.103 378.518 166.565 378.939 167.152C379.365 167.739 379.578 168.407 379.578 169.155C379.578 169.941 379.344 170.634 378.875 171.236C378.411 171.832 377.812 172.214 377.078 172.379V172.479C377.646 172.573 378.158 172.794 378.612 173.139C379.071 173.48 379.436 173.906 379.706 174.418C379.981 174.929 380.118 175.49 380.118 176.101C380.118 176.887 379.886 177.59 379.422 178.21C378.958 178.826 378.319 179.311 377.504 179.666C376.695 180.021 375.764 180.199 374.713 180.199ZM374.713 178.168C375.258 178.168 375.731 178.075 376.134 177.891C376.536 177.701 376.848 177.436 377.071 177.095C377.294 176.754 377.407 176.361 377.412 175.916C377.407 175.452 377.286 175.043 377.05 174.688C376.818 174.328 376.498 174.046 376.091 173.842C375.688 173.639 375.229 173.537 374.713 173.537C374.192 173.537 373.728 173.639 373.321 173.842C372.914 174.046 372.592 174.328 372.355 174.688C372.123 175.043 372.009 175.452 372.014 175.916C372.009 176.361 372.118 176.754 372.341 177.095C372.563 177.431 372.876 177.694 373.278 177.884C373.686 178.073 374.164 178.168 374.713 178.168ZM374.713 171.541C375.158 171.541 375.551 171.451 375.892 171.271C376.238 171.091 376.51 170.84 376.709 170.518C376.908 170.196 377.009 169.825 377.014 169.403C377.009 168.987 376.91 168.622 376.716 168.31C376.522 167.992 376.252 167.749 375.906 167.578C375.561 167.403 375.163 167.315 374.713 167.315C374.254 167.315 373.849 167.403 373.499 167.578C373.153 167.749 372.883 167.992 372.689 168.31C372.5 168.622 372.407 168.987 372.412 169.403C372.407 169.825 372.502 170.196 372.696 170.518C372.895 170.836 373.167 171.087 373.513 171.271C373.863 171.451 374.263 171.541 374.713 171.541ZM387.779 180.199C387.083 180.194 386.404 180.073 385.741 179.837C385.078 179.595 384.482 179.205 383.951 178.665C383.421 178.12 383 177.398 382.687 176.499C382.375 175.594 382.221 174.474 382.225 173.139C382.225 171.894 382.358 170.784 382.623 169.808C382.888 168.833 383.27 168.009 383.767 167.337C384.264 166.66 384.863 166.143 385.564 165.788C386.269 165.433 387.057 165.256 387.929 165.256C388.842 165.256 389.652 165.436 390.358 165.795C391.068 166.155 391.641 166.648 392.076 167.273C392.512 167.893 392.782 168.594 392.886 169.375H390.294C390.161 168.816 389.889 168.371 389.477 168.04C389.07 167.704 388.554 167.536 387.929 167.536C386.92 167.536 386.144 167.973 385.599 168.849C385.059 169.725 384.787 170.928 384.782 172.457H384.882C385.114 172.041 385.414 171.683 385.784 171.385C386.153 171.087 386.57 170.857 387.034 170.696C387.502 170.53 387.997 170.447 388.518 170.447C389.37 170.447 390.135 170.651 390.812 171.058C391.494 171.465 392.034 172.027 392.431 172.741C392.829 173.452 393.026 174.266 393.021 175.185C393.026 176.141 392.808 177 392.368 177.763C391.927 178.52 391.314 179.117 390.528 179.553C389.742 179.988 388.826 180.204 387.779 180.199ZM387.765 178.068C388.281 178.068 388.743 177.943 389.15 177.692C389.557 177.441 389.879 177.102 390.116 176.676C390.353 176.25 390.469 175.772 390.464 175.241C390.469 174.721 390.355 174.25 390.123 173.828C389.896 173.407 389.581 173.073 389.179 172.827C388.776 172.58 388.317 172.457 387.801 172.457C387.417 172.457 387.06 172.531 386.728 172.678C386.397 172.824 386.108 173.028 385.862 173.288C385.616 173.544 385.422 173.842 385.279 174.183C385.142 174.519 385.071 174.879 385.066 175.263C385.071 175.769 385.19 176.236 385.422 176.662C385.654 177.088 385.973 177.429 386.38 177.685C386.788 177.94 387.249 178.068 387.765 178.068ZM402.062 172.884V175H395.514V172.884H402.062ZM408.815 180.192C407.958 180.192 407.191 179.972 406.513 179.531C405.836 179.091 405.301 178.452 404.908 177.614C404.515 176.776 404.319 175.758 404.319 174.56C404.319 173.348 404.518 172.325 404.915 171.491C405.318 170.653 405.86 170.021 406.542 169.595C407.224 169.164 407.984 168.949 408.822 168.949C409.461 168.949 409.987 169.058 410.398 169.276C410.81 169.489 411.137 169.747 411.379 170.05C411.62 170.348 411.807 170.63 411.94 170.895H412.046V165.455H414.624V180H412.096V178.281H411.94C411.807 178.546 411.615 178.828 411.364 179.126C411.113 179.42 410.782 179.671 410.37 179.879C409.958 180.088 409.44 180.192 408.815 180.192ZM409.532 178.082C410.076 178.082 410.54 177.936 410.924 177.642C411.308 177.344 411.599 176.929 411.798 176.399C411.996 175.869 412.096 175.251 412.096 174.545C412.096 173.84 411.996 173.227 411.798 172.706C411.603 172.185 411.315 171.78 410.931 171.491C410.552 171.203 410.086 171.058 409.532 171.058C408.959 171.058 408.481 171.207 408.097 171.506C407.714 171.804 407.425 172.216 407.231 172.741C407.037 173.267 406.94 173.868 406.94 174.545C406.94 175.227 407.037 175.836 407.231 176.371C407.43 176.901 407.721 177.32 408.104 177.628C408.493 177.931 408.969 178.082 409.532 178.082ZM422.194 180.213C421.1 180.213 420.155 179.986 419.36 179.531C418.569 179.072 417.961 178.423 417.534 177.585C417.108 176.742 416.895 175.75 416.895 174.609C416.895 173.487 417.108 172.502 417.534 171.655C417.965 170.803 418.567 170.14 419.338 169.666C420.11 169.188 421.017 168.949 422.059 168.949C422.731 168.949 423.365 169.058 423.962 169.276C424.563 169.489 425.094 169.82 425.553 170.27C426.017 170.72 426.382 171.293 426.647 171.989C426.912 172.68 427.044 173.504 427.044 174.46V175.249H418.103V173.516H424.58C424.575 173.023 424.469 172.585 424.26 172.202C424.052 171.813 423.761 171.508 423.387 171.286C423.017 171.063 422.587 170.952 422.094 170.952C421.569 170.952 421.107 171.08 420.709 171.335C420.311 171.586 420.001 171.918 419.779 172.33C419.561 172.737 419.45 173.184 419.445 173.672V175.185C419.445 175.819 419.561 176.364 419.793 176.818C420.025 177.268 420.349 177.614 420.766 177.855C421.183 178.092 421.67 178.21 422.229 178.21C422.603 178.21 422.942 178.158 423.245 178.054C423.548 177.945 423.81 177.786 424.033 177.578C424.256 177.37 424.424 177.112 424.537 176.804L426.938 177.074C426.786 177.708 426.498 178.262 426.071 178.736C425.65 179.205 425.11 179.569 424.452 179.83C423.794 180.085 423.041 180.213 422.194 180.213ZM429.333 180V165.455H431.904V170.895H432.011C432.143 170.63 432.33 170.348 432.572 170.05C432.813 169.747 433.14 169.489 433.552 169.276C433.964 169.058 434.489 168.949 435.129 168.949C435.971 168.949 436.731 169.164 437.408 169.595C438.09 170.021 438.63 170.653 439.028 171.491C439.43 172.325 439.631 173.348 439.631 174.56C439.631 175.758 439.435 176.776 439.042 177.614C438.649 178.452 438.114 179.091 437.437 179.531C436.76 179.972 435.993 180.192 435.136 180.192C434.511 180.192 433.992 180.088 433.58 179.879C433.168 179.671 432.837 179.42 432.586 179.126C432.34 178.828 432.148 178.546 432.011 178.281H431.862V180H429.333ZM431.854 174.545C431.854 175.251 431.954 175.869 432.153 176.399C432.356 176.929 432.647 177.344 433.026 177.642C433.41 177.936 433.874 178.082 434.418 178.082C434.987 178.082 435.462 177.931 435.846 177.628C436.229 177.32 436.518 176.901 436.712 176.371C436.911 175.836 437.011 175.227 437.011 174.545C437.011 173.868 436.914 173.267 436.719 172.741C436.525 172.216 436.237 171.804 435.853 171.506C435.469 171.207 434.991 171.058 434.418 171.058C433.869 171.058 433.403 171.203 433.019 171.491C432.636 171.78 432.344 172.185 432.146 172.706C431.951 173.227 431.854 173.84 431.854 174.545ZM448.77 175.412V169.091H451.341V180H448.848V178.061H448.735C448.489 178.672 448.084 179.171 447.52 179.56C446.962 179.948 446.273 180.142 445.453 180.142C444.739 180.142 444.106 179.983 443.557 179.666C443.013 179.344 442.587 178.878 442.279 178.267C441.971 177.652 441.817 176.908 441.817 176.037V169.091H444.388V175.639C444.388 176.33 444.578 176.88 444.956 177.287C445.335 177.694 445.832 177.898 446.448 177.898C446.827 177.898 447.194 177.805 447.549 177.621C447.904 177.436 448.195 177.161 448.422 176.797C448.654 176.428 448.77 175.966 448.77 175.412ZM458.729 184.318C457.806 184.318 457.013 184.193 456.35 183.942C455.687 183.696 455.155 183.364 454.752 182.947C454.35 182.531 454.07 182.069 453.914 181.562L456.229 181.001C456.334 181.214 456.485 181.425 456.684 181.634C456.883 181.847 457.15 182.022 457.487 182.159C457.827 182.301 458.256 182.372 458.772 182.372C459.501 182.372 460.105 182.195 460.583 181.839C461.061 181.489 461.3 180.911 461.3 180.107V178.04H461.173C461.04 178.305 460.846 178.577 460.59 178.857C460.339 179.136 460.005 179.37 459.589 179.56C459.177 179.749 458.658 179.844 458.033 179.844C457.195 179.844 456.435 179.647 455.754 179.254C455.076 178.857 454.537 178.265 454.134 177.479C453.737 176.688 453.538 175.698 453.538 174.51C453.538 173.312 453.737 172.301 454.134 171.477C454.537 170.649 455.079 170.021 455.761 169.595C456.442 169.164 457.202 168.949 458.04 168.949C458.68 168.949 459.205 169.058 459.617 169.276C460.034 169.489 460.365 169.747 460.612 170.05C460.858 170.348 461.045 170.63 461.173 170.895H461.315V169.091H463.85V180.178C463.85 181.11 463.628 181.882 463.183 182.493C462.737 183.104 462.129 183.561 461.357 183.864C460.585 184.167 459.71 184.318 458.729 184.318ZM458.751 177.827C459.295 177.827 459.759 177.694 460.143 177.429C460.526 177.164 460.817 176.783 461.016 176.286C461.215 175.788 461.315 175.192 461.315 174.496C461.315 173.809 461.215 173.208 461.016 172.692C460.822 172.176 460.533 171.776 460.15 171.491C459.771 171.203 459.305 171.058 458.751 171.058C458.178 171.058 457.7 171.207 457.316 171.506C456.933 171.804 456.644 172.214 456.45 172.734C456.255 173.25 456.158 173.838 456.158 174.496C456.158 175.163 456.255 175.748 456.45 176.25C456.648 176.747 456.94 177.135 457.323 177.415C457.711 177.689 458.187 177.827 458.751 177.827Z" fill="#F2EEFF"/>
</g>
<defs>
<linearGradient id="paint0_linear_10_17" x1="9.32031" y1="250" x2="19.614" y2="159.112" gradientUnits="userSpaceOnUse">
<stop stop-color="#FFD1A7"/>
<stop offset="1" stop-color="#FF5A8B"/>
</linearGradient>
<clipPath id="clip0_10_17">
<rect width="646" height="250" fill="white"/>
</clipPath>
</defs>
</svg>
