<svg width="646" height="250" viewBox="0 0 646 250" fill="none" xmlns="http://www.w3.org/2000/svg">
<g clip-path="url(#clip0_10_17)">
<path d="M636.68 229H9.32031C9.99939 229.951 10.6756 230.905 11.418 231.805C12.4369 233.039 13.5135 234.224 14.6445 235.355C15.7756 236.486 16.9606 237.563 18.1953 238.582C19.43 239.601 20.7149 240.562 22.0449 241.461C23.3749 242.359 24.751 243.195 26.168 243.965C27.5849 244.735 29.0416 245.438 30.5371 246.07C32.0326 246.703 33.5652 247.265 35.1309 247.752C36.6965 248.239 38.2964 248.651 39.9238 248.984C41.5513 249.317 43.2078 249.571 44.8887 249.742C46.5695 249.913 48.2741 250 50 250H596C597.726 250 599.43 249.913 601.111 249.742C602.792 249.571 604.449 249.317 606.076 248.984C607.704 248.651 609.304 248.239 610.869 247.752C612.435 247.265 613.967 246.703 615.463 246.07C616.958 245.438 618.415 244.735 619.832 243.965C621.249 243.195 622.625 242.359 623.955 241.461C625.285 240.562 626.57 239.601 627.805 238.582C629.039 237.563 630.224 236.486 631.355 235.355C632.486 234.224 633.563 233.039 634.582 231.805C635.324 230.905 636.001 229.951 636.68 229Z" fill="url(#paint0_linear_10_17)"/>
<path d="M50 0C48.2741 0 46.5695 0.0871124 44.8887 0.257812C43.2078 0.428513 41.5513 0.682602 39.9238 1.01562C38.2964 1.34865 36.6965 1.76108 35.1309 2.24805C33.5652 2.73501 32.0326 3.29715 30.5371 3.92969C29.0416 4.56222 27.5849 5.26543 26.168 6.03516C24.751 6.80488 23.3749 7.64053 22.0449 8.53906C20.7149 9.4376 19.43 10.399 18.1953 11.418C16.9606 12.4369 15.7756 13.5135 14.6445 14.6445C13.5135 15.7756 12.4369 16.9606 11.418 18.1953C10.399 19.43 9.4376 20.7149 8.53906 22.0449C7.64053 23.3749 6.80488 24.751 6.03516 26.168C5.26543 27.5849 4.56222 29.0416 3.92969 30.5371C3.29715 32.0326 2.73501 33.5652 2.24805 35.1309C1.76108 36.6965 1.34865 38.2964 1.01562 39.9238C0.682602 41.5513 0.428513 43.2078 0.257812 44.8887C0.0871124 46.5695 0 48.2741 0 50V200C0 201.726 0.0871124 203.43 0.257812 205.111C0.428513 206.792 0.682602 208.449 1.01562 210.076C1.34865 211.704 1.76108 213.304 2.24805 214.869C2.73501 216.435 3.29715 217.967 3.92969 219.463C4.56222 220.958 5.26543 222.415 6.03516 223.832C6.80488 225.249 7.64053 226.625 8.53906 227.955C8.78294 228.316 9.06734 228.646 9.32031 229H636.68C636.933 228.646 637.217 228.316 637.461 227.955C638.359 226.625 639.195 225.249 639.965 223.832C640.735 222.415 641.438 220.958 642.07 219.463C642.703 217.967 643.265 216.435 643.752 214.869C644.239 213.304 644.651 211.704 644.984 210.076C645.317 208.449 645.571 206.792 645.742 205.111C645.913 203.43 646 201.726 646 200V50C646 48.2741 645.913 46.5695 645.742 44.8887C645.571 43.2078 645.317 41.5513 644.984 39.9238C644.651 38.2964 644.239 36.6965 643.752 35.1309C643.265 33.5652 642.703 32.0326 642.07 30.5371C641.438 29.0416 640.735 27.5849 639.965 26.168C639.195 24.751 638.359 23.3749 637.461 22.0449C636.562 20.7149 635.601 19.43 634.582 18.1953C633.563 16.9606 632.486 15.7756 631.355 14.6445C630.224 13.5135 629.039 12.4369 627.805 11.418C626.57 10.399 625.285 9.4376 623.955 8.53906C622.625 7.64053 621.249 6.80488 619.832 6.03516C618.415 5.26543 616.958 4.56222 615.463 3.92969C613.967 3.29715 612.435 2.73501 610.869 2.24805C609.304 1.76108 607.704 1.34865 606.076 1.01562C604.449 0.682602 602.792 0.428513 601.111 0.257812C599.43 0.0871124 597.726 0 596 0H50Z" fill="#161316"/>
<path fill-rule="evenodd" clip-rule="evenodd" d="M125.044 73C95.712 73 72 96.8332 72 126.318C72 149.887 87.1931 169.838 108.27 176.899C110.905 177.43 111.87 175.752 111.87 174.34C111.87 173.104 111.783 168.867 111.783 164.452C97.0279 167.631 93.9552 158.097 93.9552 158.097C91.5839 151.917 88.0704 150.329 88.0704 150.329C83.2409 147.063 88.4222 147.063 88.4222 147.063C93.7793 147.416 96.5904 152.536 96.5904 152.536C101.332 160.656 108.972 158.362 112.046 156.949C112.485 153.506 113.891 151.123 115.384 149.799C103.615 148.563 91.2332 143.973 91.2332 123.493C91.2332 117.667 93.3396 112.9 96.6772 109.193C96.1506 107.869 94.3059 102.395 97.2049 95.0685C97.2049 95.0685 101.684 93.6558 111.782 100.541C116.106 99.3744 120.565 98.7806 125.044 98.7756C129.523 98.7756 134.088 99.3942 138.304 100.541C148.404 93.6558 152.883 95.0685 152.883 95.0685C155.782 102.395 153.936 107.869 153.409 109.193C156.835 112.9 158.855 117.667 158.855 123.493C158.855 143.973 146.472 148.474 134.616 149.799C136.549 151.476 138.216 154.654 138.216 159.686C138.216 166.836 138.129 172.574 138.129 174.339C138.129 175.752 139.096 177.43 141.73 176.9C162.807 169.837 178 149.887 178 126.318C178.087 96.8332 154.288 73 125.044 73Z" fill="#F2EEFF"/>
<path d="M252.619 147H237.666V104.818H252.743C256.986 104.818 260.638 105.663 263.7 107.352C266.762 109.027 269.117 111.437 270.765 114.581C272.426 117.725 273.257 121.488 273.257 125.868C273.257 130.262 272.426 134.038 270.765 137.196C269.117 140.354 266.749 142.778 263.659 144.467C260.583 146.156 256.903 147 252.619 147ZM246.585 139.359H252.249C254.885 139.359 257.103 138.892 258.901 137.958C260.714 137.011 262.073 135.548 262.979 133.571C263.899 131.58 264.359 129.012 264.359 125.868C264.359 122.751 263.899 120.204 262.979 118.227C262.073 116.249 260.721 114.794 258.922 113.86C257.123 112.926 254.906 112.46 252.269 112.46H246.585V139.359ZM319.206 125.909C319.206 130.509 318.334 134.422 316.59 137.649C314.86 140.876 312.499 143.341 309.505 145.043C306.526 146.732 303.175 147.577 299.454 147.577C295.706 147.577 292.341 146.725 289.362 145.023C286.382 143.32 284.027 140.855 282.297 137.629C280.567 134.402 279.702 130.495 279.702 125.909C279.702 121.309 280.567 117.396 282.297 114.169C284.027 110.942 286.382 108.484 289.362 106.795C292.341 105.093 295.706 104.241 299.454 104.241C303.175 104.241 306.526 105.093 309.505 106.795C312.499 108.484 314.86 110.942 316.59 114.169C318.334 117.396 319.206 121.309 319.206 125.909ZM310.164 125.909C310.164 122.929 309.718 120.417 308.826 118.371C307.947 116.325 306.704 114.773 305.098 113.716C303.491 112.659 301.61 112.13 299.454 112.13C297.298 112.13 295.417 112.659 293.811 113.716C292.204 114.773 290.955 116.325 290.062 118.371C289.183 120.417 288.744 122.929 288.744 125.909C288.744 128.889 289.183 131.402 290.062 133.447C290.955 135.493 292.204 137.045 293.811 138.102C295.417 139.16 297.298 139.688 299.454 139.688C301.61 139.688 303.491 139.16 305.098 138.102C306.704 137.045 307.947 135.493 308.826 133.447C309.718 131.402 310.164 128.889 310.164 125.909ZM334.302 147L322.232 104.818H331.974L338.957 134.127H339.307L347.01 104.818H355.351L363.034 134.189H363.405L370.387 104.818H380.129L368.06 147H359.368L351.335 119.421H351.006L342.993 147H334.302ZM420.764 104.818V147H413.061L394.71 120.451H394.401V147H385.482V104.818H393.309L411.516 131.347H411.887V104.818H420.764ZM428.713 147V104.818H437.631V139.647H455.715V147H428.713ZM499.321 125.909C499.321 130.509 498.449 134.422 496.705 137.649C494.975 140.876 492.614 143.341 489.62 145.043C486.641 146.732 483.29 147.577 479.569 147.577C475.82 147.577 472.456 146.725 469.477 145.023C466.497 143.32 464.142 140.855 462.412 137.629C460.682 134.402 459.817 130.495 459.817 125.909C459.817 121.309 460.682 117.396 462.412 114.169C464.142 110.942 466.497 108.484 469.477 106.795C472.456 105.093 475.82 104.241 479.569 104.241C483.29 104.241 486.641 105.093 489.62 106.795C492.614 108.484 494.975 110.942 496.705 114.169C498.449 117.396 499.321 121.309 499.321 125.909ZM490.279 125.909C490.279 122.929 489.833 120.417 488.94 118.371C488.062 116.325 486.819 114.773 485.212 113.716C483.606 112.659 481.725 112.13 479.569 112.13C477.413 112.13 475.532 112.659 473.926 113.716C472.319 114.773 471.07 116.325 470.177 118.371C469.298 120.417 468.859 122.929 468.859 125.909C468.859 128.889 469.298 131.402 470.177 133.447C471.07 135.493 472.319 137.045 473.926 138.102C475.532 139.16 477.413 139.688 479.569 139.688C481.725 139.688 483.606 139.16 485.212 138.102C486.819 137.045 488.062 135.493 488.94 133.447C489.833 131.402 490.279 128.889 490.279 125.909ZM511.399 147H501.842L516.404 104.818H527.897L542.438 147H532.881L522.315 114.457H521.986L511.399 147ZM510.802 130.42H533.376V137.381H510.802V130.42ZM563.048 147H548.095V104.818H563.172C567.415 104.818 571.067 105.663 574.129 107.352C577.191 109.027 579.546 111.437 581.194 114.581C582.856 117.725 583.686 121.488 583.686 125.868C583.686 130.262 582.856 134.038 581.194 137.196C579.546 140.354 577.178 142.778 574.088 144.467C571.012 146.156 567.333 147 563.048 147ZM557.014 139.359H562.678C565.314 139.359 567.532 138.892 569.33 137.958C571.143 137.011 572.502 135.548 573.409 133.571C574.329 131.58 574.789 129.012 574.789 125.868C574.789 122.751 574.329 120.204 573.409 118.227C572.502 116.249 571.15 114.794 569.351 113.86C567.552 112.926 565.335 112.46 562.698 112.46H557.014V139.359Z" fill="#F2EEFF"/>
<path d="M359.423 169.091L361.625 173.118L363.862 169.091H366.582L363.294 174.545L366.639 180H363.933L361.625 176.072L359.338 180H356.611L359.935 174.545L356.696 169.091H359.423ZM373.713 180.199C372.657 180.199 371.72 180.021 370.901 179.666C370.086 179.311 369.447 178.826 368.983 178.21C368.524 177.59 368.296 176.887 368.301 176.101C368.296 175.49 368.429 174.929 368.699 174.418C368.969 173.906 369.333 173.48 369.793 173.139C370.257 172.794 370.773 172.573 371.341 172.479V172.379C370.593 172.214 369.987 171.832 369.523 171.236C369.063 170.634 368.836 169.941 368.841 169.155C368.836 168.407 369.045 167.739 369.466 167.152C369.887 166.565 370.465 166.103 371.199 165.767C371.933 165.426 372.771 165.256 373.713 165.256C374.646 165.256 375.477 165.426 376.206 165.767C376.94 166.103 377.518 166.565 377.939 167.152C378.365 167.739 378.578 168.407 378.578 169.155C378.578 169.941 378.344 170.634 377.875 171.236C377.411 171.832 376.812 172.214 376.078 172.379V172.479C376.646 172.573 377.158 172.794 377.612 173.139C378.071 173.48 378.436 173.906 378.706 174.418C378.981 174.929 379.118 175.49 379.118 176.101C379.118 176.887 378.886 177.59 378.422 178.21C377.958 178.826 377.319 179.311 376.504 179.666C375.695 180.021 374.764 180.199 373.713 180.199ZM373.713 178.168C374.258 178.168 374.731 178.075 375.134 177.891C375.536 177.701 375.848 177.436 376.071 177.095C376.294 176.754 376.407 176.361 376.412 175.916C376.407 175.452 376.286 175.043 376.05 174.688C375.818 174.328 375.498 174.046 375.091 173.842C374.688 173.639 374.229 173.537 373.713 173.537C373.192 173.537 372.728 173.639 372.321 173.842C371.914 174.046 371.592 174.328 371.355 174.688C371.123 175.043 371.009 175.452 371.014 175.916C371.009 176.361 371.118 176.754 371.341 177.095C371.563 177.431 371.876 177.694 372.278 177.884C372.686 178.073 373.164 178.168 373.713 178.168ZM373.713 171.541C374.158 171.541 374.551 171.451 374.892 171.271C375.238 171.091 375.51 170.84 375.709 170.518C375.908 170.196 376.009 169.825 376.014 169.403C376.009 168.987 375.91 168.622 375.716 168.31C375.522 167.992 375.252 167.749 374.906 167.578C374.561 167.403 374.163 167.315 373.713 167.315C373.254 167.315 372.849 167.403 372.499 167.578C372.153 167.749 371.883 167.992 371.689 168.31C371.5 168.622 371.407 168.987 371.412 169.403C371.407 169.825 371.502 170.196 371.696 170.518C371.895 170.836 372.167 171.087 372.513 171.271C372.863 171.451 373.263 171.541 373.713 171.541ZM386.779 180.199C386.083 180.194 385.404 180.073 384.741 179.837C384.078 179.595 383.482 179.205 382.951 178.665C382.421 178.12 382 177.398 381.687 176.499C381.375 175.594 381.221 174.474 381.225 173.139C381.225 171.894 381.358 170.784 381.623 169.808C381.888 168.833 382.27 168.009 382.767 167.337C383.264 166.66 383.863 166.143 384.564 165.788C385.269 165.433 386.057 165.256 386.929 165.256C387.842 165.256 388.652 165.436 389.358 165.795C390.068 166.155 390.641 166.648 391.076 167.273C391.512 167.893 391.782 168.594 391.886 169.375H389.294C389.161 168.816 388.889 168.371 388.477 168.04C388.07 167.704 387.554 167.536 386.929 167.536C385.92 167.536 385.144 167.973 384.599 168.849C384.059 169.725 383.787 170.928 383.782 172.457H383.882C384.114 172.041 384.414 171.683 384.784 171.385C385.153 171.087 385.57 170.857 386.034 170.696C386.502 170.53 386.997 170.447 387.518 170.447C388.37 170.447 389.135 170.651 389.812 171.058C390.494 171.465 391.034 172.027 391.431 172.741C391.829 173.452 392.026 174.266 392.021 175.185C392.026 176.141 391.808 177 391.368 177.763C390.927 178.52 390.314 179.117 389.528 179.553C388.742 179.988 387.826 180.204 386.779 180.199ZM386.765 178.068C387.281 178.068 387.743 177.943 388.15 177.692C388.557 177.441 388.879 177.102 389.116 176.676C389.353 176.25 389.469 175.772 389.464 175.241C389.469 174.721 389.355 174.25 389.123 173.828C388.896 173.407 388.581 173.073 388.179 172.827C387.776 172.58 387.317 172.457 386.801 172.457C386.417 172.457 386.06 172.531 385.728 172.678C385.397 172.824 385.108 173.028 384.862 173.288C384.616 173.544 384.422 173.842 384.279 174.183C384.142 174.519 384.071 174.879 384.066 175.263C384.071 175.769 384.19 176.236 384.422 176.662C384.654 177.088 384.973 177.429 385.38 177.685C385.788 177.94 386.249 178.068 386.765 178.068ZM401.593 180V182.053H392.197V180H401.593ZM407.268 180.199C406.572 180.194 405.892 180.073 405.229 179.837C404.567 179.595 403.97 179.205 403.44 178.665C402.909 178.12 402.488 177.398 402.175 176.499C401.863 175.594 401.709 174.474 401.714 173.139C401.714 171.894 401.846 170.784 402.112 169.808C402.377 168.833 402.758 168.009 403.255 167.337C403.752 166.66 404.351 166.143 405.052 165.788C405.757 165.433 406.546 165.256 407.417 165.256C408.331 165.256 409.14 165.436 409.846 165.795C410.556 166.155 411.129 166.648 411.565 167.273C412 167.893 412.27 168.594 412.374 169.375H409.782C409.649 168.816 409.377 168.371 408.965 168.04C408.558 167.704 408.042 167.536 407.417 167.536C406.408 167.536 405.632 167.973 405.087 168.849C404.548 169.725 404.275 170.928 404.271 172.457H404.37C404.602 172.041 404.903 171.683 405.272 171.385C405.641 171.087 406.058 170.857 406.522 170.696C406.991 170.53 407.486 170.447 408.006 170.447C408.859 170.447 409.623 170.651 410.3 171.058C410.982 171.465 411.522 172.027 411.92 172.741C412.317 173.452 412.514 174.266 412.509 175.185C412.514 176.141 412.296 177 411.856 177.763C411.415 178.52 410.802 179.117 410.016 179.553C409.23 179.988 408.314 180.204 407.268 180.199ZM407.254 178.068C407.77 178.068 408.231 177.943 408.638 177.692C409.046 177.441 409.368 177.102 409.604 176.676C409.841 176.25 409.957 175.772 409.952 175.241C409.957 174.721 409.844 174.25 409.612 173.828C409.384 173.407 409.069 173.073 408.667 172.827C408.264 172.58 407.805 172.457 407.289 172.457C406.906 172.457 406.548 172.531 406.217 172.678C405.885 172.824 405.596 173.028 405.35 173.288C405.104 173.544 404.91 173.842 404.768 174.183C404.63 174.519 404.559 174.879 404.555 175.263C404.559 175.769 404.678 176.236 404.91 176.662C405.142 177.088 405.461 177.429 405.869 177.685C406.276 177.94 406.737 178.068 407.254 178.068ZM414.647 177.301V175.206L420.819 165.455H422.566V168.438H421.501L417.346 175.021V175.135H425.961V177.301H414.647ZM421.586 180V176.662L421.614 175.724V165.455H424.1V180H421.586ZM434.871 172.884V175H428.322V172.884H434.871ZM441.623 180.192C440.766 180.192 439.999 179.972 439.322 179.531C438.645 179.091 438.11 178.452 437.717 177.614C437.324 176.776 437.127 175.758 437.127 174.56C437.127 173.348 437.326 172.325 437.724 171.491C438.127 170.653 438.669 170.021 439.35 169.595C440.032 169.164 440.792 168.949 441.63 168.949C442.27 168.949 442.795 169.058 443.207 169.276C443.619 169.489 443.946 169.747 444.187 170.05C444.429 170.348 444.616 170.63 444.748 170.895H444.855V165.455H447.433V180H444.904V178.281H444.748C444.616 178.546 444.424 178.828 444.173 179.126C443.922 179.42 443.591 179.671 443.179 179.879C442.767 180.088 442.248 180.192 441.623 180.192ZM442.341 178.082C442.885 178.082 443.349 177.936 443.733 177.642C444.116 177.344 444.407 176.929 444.606 176.399C444.805 175.869 444.904 175.251 444.904 174.545C444.904 173.84 444.805 173.227 444.606 172.706C444.412 172.185 444.123 171.78 443.74 171.491C443.361 171.203 442.895 171.058 442.341 171.058C441.768 171.058 441.289 171.207 440.906 171.506C440.522 171.804 440.234 172.216 440.039 172.741C439.845 173.267 439.748 173.868 439.748 174.545C439.748 175.227 439.845 175.836 440.039 176.371C440.238 176.901 440.529 177.32 440.913 177.628C441.301 177.931 441.777 178.082 442.341 178.082ZM455.002 180.213C453.908 180.213 452.964 179.986 452.168 179.531C451.378 179.072 450.769 178.423 450.343 177.585C449.917 176.742 449.704 175.75 449.704 174.609C449.704 173.487 449.917 172.502 450.343 171.655C450.774 170.803 451.375 170.14 452.147 169.666C452.919 169.188 453.826 168.949 454.867 168.949C455.54 168.949 456.174 169.058 456.771 169.276C457.372 169.489 457.902 169.82 458.362 170.27C458.826 170.72 459.19 171.293 459.455 171.989C459.72 172.68 459.853 173.504 459.853 174.46V175.249H450.911V173.516H457.388C457.384 173.023 457.277 172.585 457.069 172.202C456.861 171.813 456.569 171.508 456.195 171.286C455.826 171.063 455.395 170.952 454.903 170.952C454.377 170.952 453.915 171.08 453.518 171.335C453.12 171.586 452.81 171.918 452.587 172.33C452.37 172.737 452.258 173.184 452.254 173.672V175.185C452.254 175.819 452.37 176.364 452.602 176.818C452.834 177.268 453.158 177.614 453.575 177.855C453.991 178.092 454.479 178.21 455.038 178.21C455.412 178.21 455.75 178.158 456.053 178.054C456.356 177.945 456.619 177.786 456.842 177.578C457.064 177.37 457.232 177.112 457.346 176.804L459.746 177.074C459.595 177.708 459.306 178.262 458.88 178.736C458.459 179.205 457.919 179.569 457.261 179.83C456.603 180.085 455.85 180.213 455.002 180.213ZM462.142 180V165.455H464.713V170.895H464.819C464.952 170.63 465.139 170.348 465.38 170.05C465.622 169.747 465.949 169.489 466.36 169.276C466.772 169.058 467.298 168.949 467.937 168.949C468.78 168.949 469.54 169.164 470.217 169.595C470.899 170.021 471.439 170.653 471.836 171.491C472.239 172.325 472.44 173.348 472.44 174.56C472.44 175.758 472.243 176.776 471.85 177.614C471.458 178.452 470.922 179.091 470.245 179.531C469.568 179.972 468.801 180.192 467.944 180.192C467.319 180.192 466.801 180.088 466.389 179.879C465.977 179.671 465.645 179.42 465.395 179.126C465.148 178.828 464.957 178.546 464.819 178.281H464.67V180H462.142ZM464.663 174.545C464.663 175.251 464.762 175.869 464.961 176.399C465.165 176.929 465.456 177.344 465.835 177.642C466.218 177.936 466.682 178.082 467.227 178.082C467.795 178.082 468.271 177.931 468.654 177.628C469.038 177.32 469.327 176.901 469.521 176.371C469.72 175.836 469.819 175.227 469.819 174.545C469.819 173.868 469.722 173.267 469.528 172.741C469.334 172.216 469.045 171.804 468.662 171.506C468.278 171.207 467.8 171.058 467.227 171.058C466.678 171.058 466.211 171.203 465.828 171.491C465.444 171.78 465.153 172.185 464.954 172.706C464.76 173.227 464.663 173.84 464.663 174.545ZM481.579 175.412V169.091H484.15V180H481.657V178.061H481.543C481.297 178.672 480.892 179.171 480.329 179.56C479.77 179.948 479.081 180.142 478.262 180.142C477.547 180.142 476.915 179.983 476.366 179.666C475.821 179.344 475.395 178.878 475.087 178.267C474.78 177.652 474.626 176.908 474.626 176.037V169.091H477.197V175.639C477.197 176.33 477.386 176.88 477.765 177.287C478.144 177.694 478.641 177.898 479.256 177.898C479.635 177.898 480.002 177.805 480.357 177.621C480.712 177.436 481.004 177.161 481.231 176.797C481.463 176.428 481.579 175.966 481.579 175.412ZM491.538 184.318C490.615 184.318 489.822 184.193 489.159 183.942C488.496 183.696 487.963 183.364 487.561 182.947C487.158 182.531 486.879 182.069 486.723 181.562L489.038 181.001C489.142 181.214 489.294 181.425 489.493 181.634C489.691 181.847 489.959 182.022 490.295 182.159C490.636 182.301 491.065 182.372 491.581 182.372C492.31 182.372 492.913 182.195 493.392 181.839C493.87 181.489 494.109 180.911 494.109 180.107V178.04H493.981C493.849 178.305 493.654 178.577 493.399 178.857C493.148 179.136 492.814 179.37 492.397 179.56C491.985 179.749 491.467 179.844 490.842 179.844C490.004 179.844 489.244 179.647 488.562 179.254C487.885 178.857 487.345 178.265 486.943 177.479C486.545 176.688 486.346 175.698 486.346 174.51C486.346 173.312 486.545 172.301 486.943 171.477C487.345 170.649 487.887 170.021 488.569 169.595C489.251 169.164 490.011 168.949 490.849 168.949C491.488 168.949 492.014 169.058 492.426 169.276C492.842 169.489 493.174 169.747 493.42 170.05C493.666 170.348 493.853 170.63 493.981 170.895H494.123V169.091H496.659V180.178C496.659 181.11 496.436 181.882 495.991 182.493C495.546 183.104 494.938 183.561 494.166 183.864C493.394 184.167 492.518 184.318 491.538 184.318ZM491.559 177.827C492.104 177.827 492.568 177.694 492.951 177.429C493.335 177.164 493.626 176.783 493.825 176.286C494.024 175.788 494.123 175.192 494.123 174.496C494.123 173.809 494.024 173.208 493.825 172.692C493.631 172.176 493.342 171.776 492.958 171.491C492.58 171.203 492.113 171.058 491.559 171.058C490.986 171.058 490.508 171.207 490.125 171.506C489.741 171.804 489.452 172.214 489.258 172.734C489.064 173.25 488.967 173.838 488.967 174.496C488.967 175.163 489.064 175.748 489.258 176.25C489.457 176.747 489.748 177.135 490.132 177.415C490.52 177.689 490.996 177.827 491.559 177.827Z" fill="#F2EEFF"/>
</g>
<defs>
<linearGradient id="paint0_linear_10_17" x1="9.32031" y1="250" x2="19.614" y2="159.112" gradientUnits="userSpaceOnUse">
<stop stop-color="#FFD1A7"/>
<stop offset="1" stop-color="#FF5A8B"/>
</linearGradient>
<clipPath id="clip0_10_17">
<rect width="646" height="250" fill="white"/>
</clipPath>
</defs>
</svg>
