<svg xmlns="http://www.w3.org/2000/svg" width="72" height="72" fill="none" viewBox="0 0 72 72"><path fill="#CD201F" d="M44.0447 53.3653L44.0302 53.3165C43.6693 53.3807 43.3036 53.4146 42.937 53.4179C42.5819 53.446 42.2248 53.401 41.8877 53.2857C41.5507 53.1704 41.2408 52.9873 40.9773 52.7476C40.7137 52.5079 40.5021 52.2167 40.3555 51.8921C40.2089 51.5674 40.1303 51.2162 40.1247 50.86C40.1247 49.32 40.9447 48.6543 42.449 47.9927L42.4082 47.8555C41.754 45.9683 40.1236 45.0755 37.363 45.0755H31.9885C31.405 45.0719 30.8271 45.1891 30.2911 45.4197C29.7551 45.6503 29.2727 45.9894 28.8741 46.4155L28.8735 46.4183C28.991 46.4783 29.1076 46.5356 29.2201 46.5846C30.7536 47.2527 31.5877 47.9165 31.5877 49.472C31.5779 49.8269 31.4965 50.1761 31.3485 50.4988C31.2004 50.8214 30.9887 51.1109 30.7261 51.3497C30.4635 51.5886 30.1554 51.772 29.8202 51.8889C29.485 52.0058 29.1296 52.0538 28.7754 52.03C28.3766 52.0214 27.9789 51.9844 27.5854 51.9192L26.544 58.2671H45.0076L44.0447 53.3653Z"/><path fill="url(#paint0_linear_1_63)" d="M42.4608 47.9876C40.9274 48.6557 40.1248 49.304 40.1248 50.8596C40.1304 51.2158 40.2088 51.5671 40.3554 51.8918C40.5021 52.2165 40.7136 52.5077 40.9772 52.7474C41.2407 52.9872 41.5506 53.1703 41.8876 53.2857C42.2247 53.401 42.5819 53.446 42.937 53.4179C48.0922 53.4179 54.3799 46.95 54.3799 38.2779C54.3799 30.059 49.0351 27.2587 46.2844 27.2587H39.9438L36.929 27.8521C36.4815 27.0533 35.8308 26.387 35.0427 25.9207C34.2547 25.4545 33.3574 25.2049 32.4418 25.1973H25.428C22.6774 25.1973 17.3325 28.086 17.3325 36.8896C17.3325 45.5621 23.6202 52.0296 28.7754 52.0296C29.1296 52.0534 29.485 52.0053 29.8202 51.8884C30.1555 51.7715 30.4636 51.5881 30.7262 51.3492C30.9889 51.1103 31.2005 50.8208 31.3486 50.4981C31.4966 50.1755 31.5779 49.8262 31.5877 49.4713C31.5516 48.2313 31.2169 47.3869 28.8741 46.4147C29.0016 45.9761 30.3213 45.0747 32.3251 45.0747C32.3251 45.0747 37.1051 45.0617 37.7032 45.0747C42.0348 45.17 42.4608 47.9876 42.4608 47.9876Z"/><path fill="url(#paint1_linear_1_63)" d="M29.5155 21.7385C31.4725 21.7385 33.0589 20.1521 33.0589 18.1951C33.0589 16.2381 31.4725 14.6517 29.5155 14.6517C27.5585 14.6517 25.9721 16.2381 25.9721 18.1951C25.9721 20.1521 27.5585 21.7385 29.5155 21.7385Z"/><path fill="url(#paint2_linear_1_63)" d="M42.7382 23.5972C44.6952 23.5972 46.2816 22.0108 46.2816 20.0538C46.2816 18.0968 44.6952 16.5104 42.7382 16.5104C40.7812 16.5104 39.1948 18.0968 39.1948 20.0538C39.1948 22.0108 40.7812 23.5972 42.7382 23.5972Z"/><path stroke="#000" stroke-linecap="round" stroke-linejoin="round" stroke-width="2" d="M44.0447 53.3654L45.0076 57.6073"/><path stroke="#000" stroke-linecap="round" stroke-linejoin="round" stroke-width="2" d="M27.5069 52.3557L26.544 57.6073"/><path stroke="#000" stroke-linecap="round" stroke-linejoin="round" stroke-width="2" d="M44.0447 53.3654L45.0076 57.6073"/><path stroke="#000" stroke-linecap="round" stroke-linejoin="round" stroke-width="2" d="M27.5069 52.3557L26.544 57.6073"/><path stroke="#000" stroke-linecap="round" stroke-linejoin="round" stroke-width="2" d="M31.9885 45.0752H37.363C40.1236 45.0752 41.7539 45.9678 42.4083 47.8552"/><path stroke="#000" stroke-linecap="round" stroke-linejoin="round" stroke-width="2" d="M23.9418 35.9037V37.6037C23.8564 39.4511 24.3099 41.2834 25.247 42.8778C26.1842 44.4721 27.5645 45.7596 29.2201 46.5837C30.7536 47.2518 31.5877 47.9156 31.5877 49.4712C31.578 49.8261 31.4967 50.1755 31.3487 50.4982C31.2007 50.821 30.989 51.1105 30.7264 51.3494C30.4638 51.5884 30.1556 51.7719 29.8203 51.8888C29.4851 52.0057 29.1297 52.0538 28.7754 52.03C23.6202 52.03 17.3325 45.5621 17.3325 36.89C17.3325 28.0864 22.6774 25.1977 25.428 25.1977H32.4418C33.7784 25.2034 35.061 25.7264 36.0206 26.6569C36.9801 27.5874 37.5422 28.8533 37.589 30.1891V31.6121"/><path stroke="#000" stroke-linecap="round" stroke-linejoin="round" stroke-width="2" d="M47.7707 38.3017V38.9917C47.8561 40.8391 47.4026 42.6715 46.4654 44.2658C45.5283 45.8601 44.1479 47.1477 42.4923 47.9717C40.9588 48.6398 40.1248 49.3036 40.1248 50.8592C40.1303 51.2154 40.2088 51.5667 40.3554 51.8914C40.502 52.2161 40.7136 52.5073 40.9772 52.747C41.2407 52.9868 41.5506 53.17 41.8876 53.2853C42.2247 53.4006 42.5819 53.4456 42.937 53.4175C48.0922 53.4175 54.3799 46.9496 54.3799 38.2775C54.3799 30.0586 49.0351 27.2583 46.2844 27.2583H40.28"/><path stroke="#000" stroke-linecap="round" stroke-linejoin="round" stroke-width="2" d="M29.5155 21.7385C31.4725 21.7385 33.0589 20.1521 33.0589 18.1951C33.0589 16.2381 31.4725 14.6517 29.5155 14.6517C27.5585 14.6517 25.9721 16.2381 25.9721 18.1951C25.9721 20.1521 27.5585 21.7385 29.5155 21.7385Z"/><path stroke="#000" stroke-linecap="round" stroke-linejoin="round" stroke-width="2" d="M35.2544 42.1909C37.2114 42.1909 38.7978 40.6045 38.7978 38.6475C38.7978 36.6905 37.2114 35.1041 35.2544 35.1041C33.2974 35.1041 31.711 36.6905 31.711 38.6475C31.711 40.6045 33.2974 42.1909 35.2544 42.1909Z"/><path stroke="#000" stroke-linecap="round" stroke-linejoin="round" stroke-width="2" d="M42.7382 23.5972C44.6952 23.5972 46.2816 22.0108 46.2816 20.0538C46.2816 18.0968 44.6952 16.5104 42.7382 16.5104C40.7812 16.5104 39.1948 18.0968 39.1948 20.0538C39.1948 22.0108 40.7812 23.5972 42.7382 23.5972Z"/><defs><linearGradient id="paint0_linear_1_63" x1="35.856" x2="35.856" y1="25.197" y2="53.426" gradientUnits="userSpaceOnUse"><stop stop-color="#FF5A8B"/><stop offset="1" stop-color="#FFD1A7"/></linearGradient><linearGradient id="paint1_linear_1_63" x1="29.515" x2="29.515" y1="14.652" y2="21.738" gradientUnits="userSpaceOnUse"><stop stop-color="#FF5A8B"/><stop offset="1" stop-color="#FFD1A7"/></linearGradient><linearGradient id="paint2_linear_1_63" x1="42.738" x2="42.738" y1="16.51" y2="23.597" gradientUnits="userSpaceOnUse"><stop stop-color="#FF5A8B"/><stop offset="1" stop-color="#FFD1A7"/></linearGradient></defs></svg>