<svg width="72" height="72" viewBox="0 0 72 72" fill="none" xmlns="http://www.w3.org/2000/svg">
<path d="M13 41C13 40.4477 13.4477 40 14 40H17C19.2091 40 21 41.7909 21 44V52C21 54.2091 19.2091 56 17 56H14C13.4477 56 13 55.5523 13 55V41Z" fill="white"/>
<mask id="path-2-inside-1_102_8" fill="white">
<path d="M28.8408 37.2888C28.3626 37.2888 27.9057 37.3083 27.4693 37.3445C27.0329 37.3808 26.6173 37.4337 26.2219 37.5001C25.8265 37.5666 25.4513 37.6469 25.0959 37.7376C24.7405 37.8284 24.4044 37.9296 24.0881 38.0387C23.7717 38.1478 23.4748 38.2647 23.1966 38.3862C22.9184 38.5077 22.6591 38.6339 22.4182 38.7618C22.1772 38.8897 21.9548 39.0192 21.7501 39.1476C21.5454 39.2759 21.3585 39.4031 21.1892 39.5259C21.0495 39.3861 20.9034 39.2534 20.7515 39.1278C20.5995 39.0022 20.4418 38.8838 20.2784 38.7733C20.1149 38.6629 19.9459 38.5602 19.7717 38.4659C19.5975 38.3715 19.4183 38.2859 19.2342 38.2085C19.0501 38.1312 18.861 38.0626 18.6678 38.0032C18.4745 37.9439 18.2771 37.8937 18.0756 37.8532C17.874 37.8127 17.6686 37.7818 17.4595 37.7611C17.2504 37.7404 17.0376 37.7298 16.8217 37.7298H13.944C13.8191 37.7298 13.6953 37.7358 13.5734 37.7482C13.4515 37.7606 13.3312 37.7792 13.213 37.8035C13.0947 37.8277 12.9785 37.8578 12.8644 37.8932C12.7504 37.9287 12.6388 37.9696 12.5297 38.0157C12.4206 38.0617 12.3142 38.1128 12.2106 38.169C12.1071 38.2251 12.0064 38.2862 11.909 38.3517C11.8116 38.4172 11.7177 38.4872 11.6272 38.5616C11.5366 38.636 11.4495 38.7147 11.3665 38.7973C11.2834 38.8799 11.2042 38.9666 11.1292 39.0569C11.0543 39.1472 10.9834 39.2408 10.9173 39.3381C10.8511 39.4355 10.7897 39.5363 10.7329 39.6401C10.6762 39.7439 10.6242 39.8508 10.5775 39.9605C10.5308 40.0701 10.4893 40.1825 10.4534 40.2974C10.4174 40.4123 10.387 40.5295 10.3623 40.6491C10.3377 40.7687 10.3189 40.8905 10.3062 41.0141C10.2936 41.1377 10.2874 41.2631 10.2874 41.3902V54.8473C10.2874 54.9744 10.2945 55.1005 10.3081 55.2257C10.3217 55.3508 10.3419 55.4748 10.3683 55.5971C10.3948 55.7195 10.4273 55.8402 10.4658 55.9589C10.5043 56.0777 10.5485 56.1944 10.5982 56.3088C10.6479 56.4232 10.7031 56.5356 10.7633 56.6448C10.8234 56.754 10.8888 56.8601 10.9587 56.9633C11.0285 57.0666 11.103 57.1669 11.1817 57.2634C11.2603 57.36 11.3432 57.453 11.4299 57.5419C11.5167 57.6309 11.6072 57.7158 11.7012 57.7965C11.7952 57.8771 11.8926 57.9533 11.9932 58.0248C12.0937 58.0963 12.1973 58.163 12.3035 58.2246C12.4097 58.2861 12.5184 58.3427 12.6295 58.3935C12.7406 58.4444 12.8541 58.4895 12.9693 58.5288C13.0845 58.5682 13.2016 58.6017 13.3201 58.6287C13.4386 58.6557 13.5586 58.6765 13.6796 58.6904C13.8006 58.7043 13.9224 58.7111 14.0451 58.7111H16.9234C17.118 58.7111 17.3104 58.7017 17.5004 58.683C17.6904 58.6644 17.8779 58.6367 18.0622 58.6002C18.2466 58.5636 18.4279 58.5185 18.6057 58.4649C18.7835 58.4112 18.9576 58.3493 19.128 58.2794C19.2983 58.2094 19.4649 58.1314 19.6269 58.046C19.7888 57.9606 19.9464 57.8676 20.099 57.7675C20.2517 57.6674 20.3994 57.5602 20.5418 57.4462C20.6842 57.3322 20.8212 57.2115 20.9524 57.0844C21.1471 57.1649 21.367 57.2495 21.6136 57.3362C21.8601 57.4228 22.1335 57.5113 22.4343 57.5995C22.735 57.6877 23.0633 57.7754 23.4205 57.8605C23.7776 57.9455 24.1633 58.028 24.5791 58.1054C24.9949 58.1827 25.4408 58.2549 25.9175 58.3199C26.3942 58.3848 26.9018 58.4427 27.4417 58.4906C27.9816 58.5386 28.5537 58.5767 29.159 58.6029C29.7642 58.6292 30.4029 58.6435 31.0758 58.6435H46.3114C46.554 58.6145 46.7968 58.5725 47.0393 58.5178C47.2817 58.4631 47.5239 58.3959 47.7657 58.3171C48.0075 58.2383 48.2487 58.1478 48.4894 58.0464C48.7301 57.9451 48.9699 57.8331 49.209 57.7109C49.448 57.5887 49.6861 57.4565 49.923 57.315C50.1599 57.1735 50.3958 57.0226 50.6301 56.8634C50.8644 56.7043 51.0973 56.5369 51.3285 56.3617C51.5597 56.1865 51.7892 56.004 52.0168 55.8144C52.2444 55.6248 52.4701 55.4285 52.6936 55.2261C52.9171 55.0238 53.1386 54.8155 53.3575 54.602C53.5765 54.3884 53.7929 54.1695 54.0067 53.9465C54.2206 53.7234 54.432 53.4962 54.6403 53.2652C55.0569 52.8033 55.4618 52.3268 55.8532 51.8429C56.2446 51.359 56.6225 50.8674 56.9847 50.3745C57.3469 49.8816 57.6933 49.3876 58.0224 48.8987C58.3516 48.4099 58.6632 47.9262 58.9553 47.4543C59.2474 46.9824 59.5203 46.5222 59.7714 46.0803C60.0226 45.6383 60.2521 45.2144 60.4583 44.8153C60.6646 44.4163 60.8476 44.0423 61.005 43.6991C61.1624 43.3559 61.2944 43.0436 61.399 42.7693C61.5037 42.495 61.581 42.2584 61.6289 42.0659C61.6529 41.9697 61.6695 41.8847 61.6786 41.8114C61.6876 41.738 61.6891 41.6765 61.6827 41.6277C61.67 41.5345 61.6525 41.4355 61.6289 41.3317C61.6054 41.2279 61.5759 41.119 61.5388 41.0068C61.5018 40.8945 61.4573 40.7788 61.4041 40.6601C61.3509 40.5415 61.2889 40.4198 61.217 40.297C61.145 40.1741 61.063 40.05 60.9696 39.925C60.8762 39.8 60.7716 39.6744 60.6542 39.5494C60.5368 39.4244 60.4066 39.2999 60.2625 39.177C60.1183 39.0542 59.9601 38.9329 59.7866 38.8143C59.6131 38.6957 59.4418 38.5888 59.2735 38.4935C59.1052 38.3981 58.9397 38.314 58.7769 38.2403C58.6142 38.1666 58.4543 38.1034 58.2974 38.0497C58.1405 37.996 57.9869 37.9521 57.8362 37.9167C57.6856 37.8814 57.538 37.8548 57.3939 37.8362C57.2499 37.8175 57.109 37.8066 56.9718 37.803C56.8347 37.7995 56.7012 37.8032 56.5714 37.8131C56.4415 37.823 56.3156 37.8393 56.1934 37.861C56.0712 37.8827 55.9527 37.9097 55.8385 37.9416C55.7243 37.9735 55.6143 38.0102 55.5084 38.0507C55.2966 38.1315 55.1018 38.2277 54.9254 38.3328C54.7489 38.438 54.591 38.5521 54.4527 38.6684C54.3144 38.7847 54.196 38.9034 54.0987 39.0178L49.0536 44.2717C49.0028 44.0683 48.9374 43.8712 48.8586 43.6816C48.7798 43.492 48.6878 43.3099 48.5841 43.1361C48.4804 42.9624 48.3651 42.797 48.2397 42.6413C48.1144 42.4856 47.9786 42.3396 47.8347 42.204C47.731 42.1045 47.6246 42.0112 47.5156 41.9242C47.4065 41.8371 47.2952 41.7564 47.1823 41.6811C47.0693 41.6058 46.9543 41.536 46.8388 41.4717C46.7233 41.4073 46.6073 41.3483 46.4907 41.294C46.2577 41.1854 46.0242 41.0961 45.7956 41.0229C45.567 40.9497 45.3434 40.8924 45.1307 40.848C44.9181 40.8035 44.7159 40.7718 44.5307 40.7494C44.3455 40.7271 44.1772 40.714 44.0309 40.7071C43.7384 40.6933 43.535 40.7042 43.4673 40.7126L42.7224 40.7462C42.0791 40.7462 40.8262 40.7465 38.2869 40.7126C38.0161 40.7084 37.7689 40.6949 37.5412 40.6735C37.3135 40.6521 37.1057 40.6228 36.9145 40.586C36.7233 40.5492 36.5482 40.5049 36.3867 40.4544C36.2251 40.4039 36.077 40.347 35.9384 40.2845C35.7998 40.222 35.6709 40.1538 35.5485 40.0811C35.4261 40.0083 35.3102 39.9308 35.1972 39.8495C34.9713 39.6869 34.7577 39.5089 34.5292 39.3225C34.398 39.2081 34.262 39.0908 34.1181 38.9727C33.9742 38.8545 33.8222 38.7355 33.6593 38.6187C33.4963 38.5019 33.3225 38.3874 33.1342 38.2771C32.9459 38.1669 32.7432 38.0612 32.5232 37.9627C32.3031 37.8642 32.0654 37.7728 31.8073 37.6912C31.5491 37.6095 31.2703 37.5376 30.9677 37.478C30.6651 37.4184 30.3386 37.3714 29.9852 37.339C29.6318 37.3066 29.2513 37.2888 28.8408 37.2888ZM14.0451 40.441H16.9234C17.044 40.441 17.1632 40.4471 17.2806 40.459C17.398 40.4709 17.5136 40.4887 17.6273 40.5119C17.7409 40.5351 17.8523 40.5641 17.9615 40.598C18.0708 40.6319 18.1781 40.6708 18.2825 40.7149C18.3868 40.759 18.4885 40.8081 18.5873 40.8618C18.6861 40.9154 18.7819 40.974 18.8747 41.0367C18.9674 41.0993 19.0571 41.1663 19.1432 41.2374C19.2292 41.3085 19.3117 41.3836 19.3905 41.4625C19.4693 41.5414 19.5444 41.6239 19.6154 41.7101C19.6864 41.7963 19.7532 41.8861 19.8158 41.9789C19.8784 42.0718 19.9369 42.1677 19.9905 42.2666C20.0441 42.3656 20.0932 42.4673 20.1372 42.5718C20.1812 42.6763 20.2201 42.7837 20.254 42.8931C20.2879 43.0025 20.3168 43.114 20.34 43.2278C20.3631 43.3415 20.3805 43.4573 20.3924 43.5748C20.4043 43.6924 20.4103 43.8117 20.4103 43.9325V52.305C20.4082 52.43 20.4003 52.5538 20.3869 52.676C20.3734 52.7983 20.3545 52.919 20.3303 53.0378C20.3061 53.1567 20.2765 53.2738 20.242 53.3886C20.2076 53.5034 20.1684 53.616 20.1243 53.726C20.0803 53.836 20.0317 53.9436 19.9786 54.0482C19.9255 54.1528 19.8682 54.2545 19.8066 54.3529C19.7451 54.4514 19.6792 54.5466 19.6098 54.6383C19.5404 54.73 19.4672 54.8179 19.3905 54.9021C19.3138 54.9863 19.2335 55.0668 19.1501 55.1428C19.0666 55.2189 18.9803 55.2906 18.8907 55.3578C18.8012 55.425 18.7086 55.4879 18.6135 55.5456C18.5184 55.6033 18.4203 55.6559 18.3202 55.7035C18.22 55.751 18.118 55.7934 18.0135 55.8301C17.909 55.8667 17.8023 55.8979 17.6939 55.923C17.5856 55.9482 17.4754 55.9672 17.3638 55.9801C17.2522 55.993 17.1392 55.9995 17.025 55.9995H14.1468C14.0833 55.9995 14.0194 55.99 13.956 55.9723C13.8925 55.9545 13.8299 55.9287 13.7688 55.8959C13.7077 55.863 13.6483 55.8233 13.5918 55.778C13.5353 55.7328 13.4815 55.6817 13.4318 55.6266C13.3821 55.5715 13.3364 55.5125 13.2957 55.4503C13.255 55.3881 13.2193 55.3228 13.19 55.2561C13.1606 55.1893 13.1373 55.1212 13.1215 55.0526C13.1056 54.984 13.0975 54.9151 13.0975 54.8473V41.3902C13.0975 41.3266 13.1038 41.2645 13.1159 41.2038C13.1281 41.1431 13.146 41.0839 13.1693 41.0275C13.1925 40.9711 13.221 40.917 13.2543 40.8664C13.2877 40.8157 13.326 40.7685 13.3684 40.725C13.4107 40.6816 13.457 40.6424 13.5072 40.6077C13.5575 40.5729 13.6115 40.5425 13.6686 40.5179C13.7257 40.4933 13.7863 40.4743 13.8493 40.4613C13.9122 40.4483 13.9774 40.441 14.0451 40.441Z"/>
</mask>
<path d="M28.8408 37.2888C28.3626 37.2888 27.9057 37.3083 27.4693 37.3445C27.0329 37.3808 26.6173 37.4337 26.2219 37.5001C25.8265 37.5666 25.4513 37.6469 25.0959 37.7376C24.7405 37.8284 24.4044 37.9296 24.0881 38.0387C23.7717 38.1478 23.4748 38.2647 23.1966 38.3862C22.9184 38.5077 22.6591 38.6339 22.4182 38.7618C22.1772 38.8897 21.9548 39.0192 21.7501 39.1476C21.5454 39.2759 21.3585 39.4031 21.1892 39.5259C21.0495 39.3861 20.9034 39.2534 20.7515 39.1278C20.5995 39.0022 20.4418 38.8838 20.2784 38.7733C20.1149 38.6629 19.9459 38.5602 19.7717 38.4659C19.5975 38.3715 19.4183 38.2859 19.2342 38.2085C19.0501 38.1312 18.861 38.0626 18.6678 38.0032C18.4745 37.9439 18.2771 37.8937 18.0756 37.8532C17.874 37.8127 17.6686 37.7818 17.4595 37.7611C17.2504 37.7404 17.0376 37.7298 16.8217 37.7298H13.944C13.8191 37.7298 13.6953 37.7358 13.5734 37.7482C13.4515 37.7606 13.3312 37.7792 13.213 37.8035C13.0947 37.8277 12.9785 37.8578 12.8644 37.8932C12.7504 37.9287 12.6388 37.9696 12.5297 38.0157C12.4206 38.0617 12.3142 38.1128 12.2106 38.169C12.1071 38.2251 12.0064 38.2862 11.909 38.3517C11.8116 38.4172 11.7177 38.4872 11.6272 38.5616C11.5366 38.636 11.4495 38.7147 11.3665 38.7973C11.2834 38.8799 11.2042 38.9666 11.1292 39.0569C11.0543 39.1472 10.9834 39.2408 10.9173 39.3381C10.8511 39.4355 10.7897 39.5363 10.7329 39.6401C10.6762 39.7439 10.6242 39.8508 10.5775 39.9605C10.5308 40.0701 10.4893 40.1825 10.4534 40.2974C10.4174 40.4123 10.387 40.5295 10.3623 40.6491C10.3377 40.7687 10.3189 40.8905 10.3062 41.0141C10.2936 41.1377 10.2874 41.2631 10.2874 41.3902V54.8473C10.2874 54.9744 10.2945 55.1005 10.3081 55.2257C10.3217 55.3508 10.3419 55.4748 10.3683 55.5971C10.3948 55.7195 10.4273 55.8402 10.4658 55.9589C10.5043 56.0777 10.5485 56.1944 10.5982 56.3088C10.6479 56.4232 10.7031 56.5356 10.7633 56.6448C10.8234 56.754 10.8888 56.8601 10.9587 56.9633C11.0285 57.0666 11.103 57.1669 11.1817 57.2634C11.2603 57.36 11.3432 57.453 11.4299 57.5419C11.5167 57.6309 11.6072 57.7158 11.7012 57.7965C11.7952 57.8771 11.8926 57.9533 11.9932 58.0248C12.0937 58.0963 12.1973 58.163 12.3035 58.2246C12.4097 58.2861 12.5184 58.3427 12.6295 58.3935C12.7406 58.4444 12.8541 58.4895 12.9693 58.5288C13.0845 58.5682 13.2016 58.6017 13.3201 58.6287C13.4386 58.6557 13.5586 58.6765 13.6796 58.6904C13.8006 58.7043 13.9224 58.7111 14.0451 58.7111H16.9234C17.118 58.7111 17.3104 58.7017 17.5004 58.683C17.6904 58.6644 17.8779 58.6367 18.0622 58.6002C18.2466 58.5636 18.4279 58.5185 18.6057 58.4649C18.7835 58.4112 18.9576 58.3493 19.128 58.2794C19.2983 58.2094 19.4649 58.1314 19.6269 58.046C19.7888 57.9606 19.9464 57.8676 20.099 57.7675C20.2517 57.6674 20.3994 57.5602 20.5418 57.4462C20.6842 57.3322 20.8212 57.2115 20.9524 57.0844C21.1471 57.1649 21.367 57.2495 21.6136 57.3362C21.8601 57.4228 22.1335 57.5113 22.4343 57.5995C22.735 57.6877 23.0633 57.7754 23.4205 57.8605C23.7776 57.9455 24.1633 58.028 24.5791 58.1054C24.9949 58.1827 25.4408 58.2549 25.9175 58.3199C26.3942 58.3848 26.9018 58.4427 27.4417 58.4906C27.9816 58.5386 28.5537 58.5767 29.159 58.6029C29.7642 58.6292 30.4029 58.6435 31.0758 58.6435H46.3114C46.554 58.6145 46.7968 58.5725 47.0393 58.5178C47.2817 58.4631 47.5239 58.3959 47.7657 58.3171C48.0075 58.2383 48.2487 58.1478 48.4894 58.0464C48.7301 57.9451 48.9699 57.8331 49.209 57.7109C49.448 57.5887 49.6861 57.4565 49.923 57.315C50.1599 57.1735 50.3958 57.0226 50.6301 56.8634C50.8644 56.7043 51.0973 56.5369 51.3285 56.3617C51.5597 56.1865 51.7892 56.004 52.0168 55.8144C52.2444 55.6248 52.4701 55.4285 52.6936 55.2261C52.9171 55.0238 53.1386 54.8155 53.3575 54.602C53.5765 54.3884 53.7929 54.1695 54.0067 53.9465C54.2206 53.7234 54.432 53.4962 54.6403 53.2652C55.0569 52.8033 55.4618 52.3268 55.8532 51.8429C56.2446 51.359 56.6225 50.8674 56.9847 50.3745C57.3469 49.8816 57.6933 49.3876 58.0224 48.8987C58.3516 48.4099 58.6632 47.9262 58.9553 47.4543C59.2474 46.9824 59.5203 46.5222 59.7714 46.0803C60.0226 45.6383 60.2521 45.2144 60.4583 44.8153C60.6646 44.4163 60.8476 44.0423 61.005 43.6991C61.1624 43.3559 61.2944 43.0436 61.399 42.7693C61.5037 42.495 61.581 42.2584 61.6289 42.0659C61.6529 41.9697 61.6695 41.8847 61.6786 41.8114C61.6876 41.738 61.6891 41.6765 61.6827 41.6277C61.67 41.5345 61.6525 41.4355 61.6289 41.3317C61.6054 41.2279 61.5759 41.119 61.5388 41.0068C61.5018 40.8945 61.4573 40.7788 61.4041 40.6601C61.3509 40.5415 61.2889 40.4198 61.217 40.297C61.145 40.1741 61.063 40.05 60.9696 39.925C60.8762 39.8 60.7716 39.6744 60.6542 39.5494C60.5368 39.4244 60.4066 39.2999 60.2625 39.177C60.1183 39.0542 59.9601 38.9329 59.7866 38.8143C59.6131 38.6957 59.4418 38.5888 59.2735 38.4935C59.1052 38.3981 58.9397 38.314 58.7769 38.2403C58.6142 38.1666 58.4543 38.1034 58.2974 38.0497C58.1405 37.996 57.9869 37.9521 57.8362 37.9167C57.6856 37.8814 57.538 37.8548 57.3939 37.8362C57.2499 37.8175 57.109 37.8066 56.9718 37.803C56.8347 37.7995 56.7012 37.8032 56.5714 37.8131C56.4415 37.823 56.3156 37.8393 56.1934 37.861C56.0712 37.8827 55.9527 37.9097 55.8385 37.9416C55.7243 37.9735 55.6143 38.0102 55.5084 38.0507C55.2966 38.1315 55.1018 38.2277 54.9254 38.3328C54.7489 38.438 54.591 38.5521 54.4527 38.6684C54.3144 38.7847 54.196 38.9034 54.0987 39.0178L49.0536 44.2717C49.0028 44.0683 48.9374 43.8712 48.8586 43.6816C48.7798 43.492 48.6878 43.3099 48.5841 43.1361C48.4804 42.9624 48.3651 42.797 48.2397 42.6413C48.1144 42.4856 47.9786 42.3396 47.8347 42.204C47.731 42.1045 47.6246 42.0112 47.5156 41.9242C47.4065 41.8371 47.2952 41.7564 47.1823 41.6811C47.0693 41.6058 46.9543 41.536 46.8388 41.4717C46.7233 41.4073 46.6073 41.3483 46.4907 41.294C46.2577 41.1854 46.0242 41.0961 45.7956 41.0229C45.567 40.9497 45.3434 40.8924 45.1307 40.848C44.9181 40.8035 44.7159 40.7718 44.5307 40.7494C44.3455 40.7271 44.1772 40.714 44.0309 40.7071C43.7384 40.6933 43.535 40.7042 43.4673 40.7126L42.7224 40.7462C42.0791 40.7462 40.8262 40.7465 38.2869 40.7126C38.0161 40.7084 37.7689 40.6949 37.5412 40.6735C37.3135 40.6521 37.1057 40.6228 36.9145 40.586C36.7233 40.5492 36.5482 40.5049 36.3867 40.4544C36.2251 40.4039 36.077 40.347 35.9384 40.2845C35.7998 40.222 35.6709 40.1538 35.5485 40.0811C35.4261 40.0083 35.3102 39.9308 35.1972 39.8495C34.9713 39.6869 34.7577 39.5089 34.5292 39.3225C34.398 39.2081 34.262 39.0908 34.1181 38.9727C33.9742 38.8545 33.8222 38.7355 33.6593 38.6187C33.4963 38.5019 33.3225 38.3874 33.1342 38.2771C32.9459 38.1669 32.7432 38.0612 32.5232 37.9627C32.3031 37.8642 32.0654 37.7728 31.8073 37.6912C31.5491 37.6095 31.2703 37.5376 30.9677 37.478C30.6651 37.4184 30.3386 37.3714 29.9852 37.339C29.6318 37.3066 29.2513 37.2888 28.8408 37.2888ZM14.0451 40.441H16.9234C17.044 40.441 17.1632 40.4471 17.2806 40.459C17.398 40.4709 17.5136 40.4887 17.6273 40.5119C17.7409 40.5351 17.8523 40.5641 17.9615 40.598C18.0708 40.6319 18.1781 40.6708 18.2825 40.7149C18.3868 40.759 18.4885 40.8081 18.5873 40.8618C18.6861 40.9154 18.7819 40.974 18.8747 41.0367C18.9674 41.0993 19.0571 41.1663 19.1432 41.2374C19.2292 41.3085 19.3117 41.3836 19.3905 41.4625C19.4693 41.5414 19.5444 41.6239 19.6154 41.7101C19.6864 41.7963 19.7532 41.8861 19.8158 41.9789C19.8784 42.0718 19.9369 42.1677 19.9905 42.2666C20.0441 42.3656 20.0932 42.4673 20.1372 42.5718C20.1812 42.6763 20.2201 42.7837 20.254 42.8931C20.2879 43.0025 20.3168 43.114 20.34 43.2278C20.3631 43.3415 20.3805 43.4573 20.3924 43.5748C20.4043 43.6924 20.4103 43.8117 20.4103 43.9325V52.305C20.4082 52.43 20.4003 52.5538 20.3869 52.676C20.3734 52.7983 20.3545 52.919 20.3303 53.0378C20.3061 53.1567 20.2765 53.2738 20.242 53.3886C20.2076 53.5034 20.1684 53.616 20.1243 53.726C20.0803 53.836 20.0317 53.9436 19.9786 54.0482C19.9255 54.1528 19.8682 54.2545 19.8066 54.3529C19.7451 54.4514 19.6792 54.5466 19.6098 54.6383C19.5404 54.73 19.4672 54.8179 19.3905 54.9021C19.3138 54.9863 19.2335 55.0668 19.1501 55.1428C19.0666 55.2189 18.9803 55.2906 18.8907 55.3578C18.8012 55.425 18.7086 55.4879 18.6135 55.5456C18.5184 55.6033 18.4203 55.6559 18.3202 55.7035C18.22 55.751 18.118 55.7934 18.0135 55.8301C17.909 55.8667 17.8023 55.8979 17.6939 55.923C17.5856 55.9482 17.4754 55.9672 17.3638 55.9801C17.2522 55.993 17.1392 55.9995 17.025 55.9995H14.1468C14.0833 55.9995 14.0194 55.99 13.956 55.9723C13.8925 55.9545 13.8299 55.9287 13.7688 55.8959C13.7077 55.863 13.6483 55.8233 13.5918 55.778C13.5353 55.7328 13.4815 55.6817 13.4318 55.6266C13.3821 55.5715 13.3364 55.5125 13.2957 55.4503C13.255 55.3881 13.2193 55.3228 13.19 55.2561C13.1606 55.1893 13.1373 55.1212 13.1215 55.0526C13.1056 54.984 13.0975 54.9151 13.0975 54.8473V41.3902C13.0975 41.3266 13.1038 41.2645 13.1159 41.2038C13.1281 41.1431 13.146 41.0839 13.1693 41.0275C13.1925 40.9711 13.221 40.917 13.2543 40.8664C13.2877 40.8157 13.326 40.7685 13.3684 40.725C13.4107 40.6816 13.457 40.6424 13.5072 40.6077C13.5575 40.5729 13.6115 40.5425 13.6686 40.5179C13.7257 40.4933 13.7863 40.4743 13.8493 40.4613C13.9122 40.4483 13.9774 40.441 14.0451 40.441Z" fill="url(#paint0_linear_102_8)" stroke="black" stroke-width="4" mask="url(#path-2-inside-1_102_8)"/>
<path d="M23.0237 21.7491L23.0115 21.7217L22.9976 21.695C22.4719 20.6811 22.2015 19.5001 22.2015 18.3054C22.2015 14.2724 25.4739 11 29.5069 11C31.6858 11 33.5043 12.2711 34.8271 13.9146L35.6061 14.8824L36.3851 13.9146C37.7079 12.2711 39.5264 11 41.7054 11C45.7384 11 49.0108 14.2724 49.0108 18.3054C49.0108 20.2746 48.0419 21.9195 47.2072 23.0881L47.2072 23.088L47.2025 23.0947C45.8443 25.0291 42.9379 28.4592 36.7375 33.3364C36.2765 33.6616 35.8751 33.7864 35.4764 33.7864C35.0979 33.7864 34.6625 33.6473 34.312 33.3876C25.3086 26.2688 23.28 22.3259 23.0237 21.7491Z" fill="#CD201F" stroke="black" stroke-width="2"/>
<defs>
<linearGradient id="paint0_linear_102_8" x1="35.987" y1="37.2888" x2="35.987" y2="58.7111" gradientUnits="userSpaceOnUse">
<stop stop-color="#FF5A8B"/>
<stop offset="1" stop-color="#FFD1A7"/>
</linearGradient>
</defs>
</svg>
