<svg xmlns="http://www.w3.org/2000/svg" width="72" height="72" fill="none" viewBox="0 0 72 72"><path fill="#FCEA2B" d="M21.5485 30.1243C21.9373 30.1108 22.3057 29.9469 22.576 29.6671C22.8463 29.3872 22.9974 29.0134 22.9974 28.6243C22.9974 28.2352 22.8463 27.8614 22.576 27.5815C22.3057 27.3017 21.9373 27.1378 21.5485 27.1243C21.1597 27.1378 20.7913 27.3017 20.521 27.5815C20.2506 27.8614 20.0996 28.2352 20.0996 28.6243C20.0996 29.0134 20.2506 29.3872 20.521 29.6671C20.7913 29.9469 21.1597 30.1108 21.5485 30.1243Z"/><path fill="url(#paint0_linear_1_2)" d="M8 36C8 43.4261 10.95 50.548 16.201 55.799C21.452 61.05 28.5739 64 36 64V8C28.5739 8 21.452 10.95 16.201 16.201C10.95 21.452 8 28.5739 8 36V36Z"/><path fill="#CD201F" d="M64 36C64 28.5739 61.05 21.452 55.799 16.201C50.548 10.95 43.4261 8 36 8V64C43.4261 64 50.548 61.05 55.799 55.799C61.05 50.548 64 43.4261 64 36Z"/><path stroke="#000" stroke-linecap="round" stroke-linejoin="round" stroke-width="2" d="M36 64C51.464 64 64 51.464 64 36C64 20.536 51.464 8 36 8C20.536 8 8 20.536 8 36C8 51.464 20.536 64 36 64Z"/><path stroke="#000" stroke-linecap="round" stroke-linejoin="round" stroke-width="2" d="M8 36C8 43.4261 10.95 50.548 16.201 55.799C21.452 61.05 28.5739 64 36 64V8C28.5739 8 21.452 10.95 16.201 16.201C10.95 21.452 8 28.5739 8 36V36Z"/><defs><linearGradient id="paint0_linear_1_2" x1="22" x2="22" y1="8" y2="64" gradientUnits="userSpaceOnUse"><stop stop-color="#FF5A8B"/><stop offset="1" stop-color="#FFD1A7"/></linearGradient></defs></svg>