<svg xmlns="http://www.w3.org/2000/svg" width="72" height="72" fill="none" viewBox="0 0 72 72"><path fill="url(#paint0_linear_1_40)" d="M52.5 64.7644H19.5C18.9477 64.7644 18.5 64.3167 18.5 63.7644V7.7644C18.5 7.2121 18.9477 6.7644 19.5 6.7644H52.5C53.0523 6.7644 53.5 7.2121 53.5 7.7644V63.7644C53.5 64.3167 53.0523 64.7644 52.5 64.7644Z"/><path fill="#FCFCFC" d="M48.0339 55H23.9661C23.4325 55 23 54.5675 23 54.0339V13.9661C23 13.4325 23.4325 13 23.9661 13H48.0339C48.5675 13 49 13.4325 49 13.9661V54.0339C49 54.5675 48.5675 55 48.0339 55Z"/><path stroke="#000" stroke-linecap="round" stroke-linejoin="round" stroke-miterlimit="10" stroke-width="2" d="M52.5 64.7644H19.5C18.9477 64.7644 18.5 64.3167 18.5 63.7644V7.7644C18.5 7.2121 18.9477 6.7644 19.5 6.7644H52.5C53.0523 6.7644 53.5 7.2121 53.5 7.7644V63.7644C53.5 64.3167 53.0523 64.7644 52.5 64.7644Z"/><path stroke="#000" stroke-linecap="round" stroke-linejoin="round" stroke-miterlimit="10" stroke-width="2" d="M48.0339 55H23.9661C23.4325 55 23 54.5675 23 54.0339V13.9661C23 13.4325 23.4325 13 23.9661 13H48.0339C48.5675 13 49 13.4325 49 13.9661V54.0339C49 54.5675 48.5675 55 48.0339 55Z"/><path stroke="#000" stroke-miterlimit="10" d="M36 62C37.1046 62 38 61.1046 38 60C38 58.8954 37.1046 58 36 58C34.8954 58 34 58.8954 34 60C34 61.1046 34.8954 62 36 62Z"/><path stroke="#000" stroke-linecap="round" stroke-linejoin="round" stroke-miterlimit="10" stroke-width="2" d="M31 10H41H31Z"/><defs><linearGradient id="paint0_linear_1_40" x1="36" x2="36" y1="6.764" y2="64.764" gradientUnits="userSpaceOnUse"><stop stop-color="#FF5A8B"/><stop offset="1" stop-color="#FFD1A7"/></linearGradient></defs></svg>