<svg xmlns="http://www.w3.org/2000/svg" width="72" height="72" fill="none" viewBox="0 0 72 72"><path fill="#DADADA" d="M21.3751 31.1747C21.025 22.4039 27.8242 12.6352 35.7621 12.3953C43.7668 12.1534 52.3033 23.3651 50.0951 31.4473H46.0557C46.0557 31.4473 47.6176 23.5253 43.8393 20.1938C41.9899 18.5631 38.5837 15.4228 35.1997 15.9016C32.9168 16.2246 28.332 19.3534 27.2726 21.3225C25.2083 25.1592 25.5478 31.1394 25.5478 31.1394L21.3751 31.1747Z"/><path fill="url(#paint0_linear_1_28)" d="M53 32.2969H54.875V59.1719H16.875V32.2969H18.75H53Z"/><path stroke="#000" stroke-linecap="round" stroke-linejoin="round" stroke-miterlimit="10" stroke-width="2" d="M53 32.25H54.875V59.125H16.875V32.25H18.75H53Z"/><path stroke="#000" stroke-linecap="round" stroke-linejoin="round" stroke-miterlimit="10" stroke-width="2" d="M21.3751 28.9146C21.3751 20.536 27.7902 12.6402 35.6935 12.3916C43.6632 12.1409 51.1033 19.6763 50.4351 28.9146"/><path stroke="#000" stroke-linecap="round" stroke-linejoin="round" stroke-miterlimit="10" stroke-width="2" d="M25.5478 28.9146C25.5478 22.5794 30.1233 16.6092 35.7601 16.4212C41.4444 16.2316 46.7509 21.9293 46.2743 28.9146"/><defs><linearGradient id="paint0_linear_1_28" x1="35.875" x2="35.875" y1="32.297" y2="59.172" gradientUnits="userSpaceOnUse"><stop stop-color="#FF5A8B"/><stop offset="1" stop-color="#FFD1A7"/></linearGradient></defs></svg>