<svg xmlns="http://www.w3.org/2000/svg" width="72" height="72" fill="none" viewBox="0 0 72 72"><path fill="url(#paint0_linear_1_10)" d="M60 12H17.5625V59.5H60V12Z"/><path fill="url(#paint1_linear_1_10)" d="M17.9479 12H12V59.5H17.9479V12Z"/><path fill="#000" fill-opacity=".2" d="M17.9479 12H12V59.5H17.9479V12Z"/><path fill="#000" fill-opacity=".2" d="M17.9479 12H12V59.5H17.9479V12Z"/><path fill="#fff" d="M59.9896 23.8761H17.5729V37.6886H59.9896V23.8761Z"/><path fill="#000" d="M24.256 35.688V36H21.976V35.688L22.624 35.616C22.712 35.608 22.776 35.596 22.816 35.58C22.856 35.556 22.892 35.508 22.924 35.436C22.964 35.356 23.012 35.22 23.068 35.028L25.384 27.84H26.14L28.48 35.028C28.536 35.22 28.58 35.356 28.612 35.436C28.652 35.508 28.692 35.556 28.732 35.58C28.772 35.596 28.832 35.608 28.912 35.616L29.572 35.688V36H26.656V35.688L27.316 35.616C27.444 35.6 27.512 35.568 27.52 35.52C27.536 35.464 27.5 35.3 27.412 35.028L26.92 33.492H23.992L23.5 35.028C23.412 35.3 23.372 35.464 23.38 35.52C23.396 35.568 23.468 35.6 23.596 35.616L24.256 35.688ZM24.112 33.108H26.8L25.456 28.932L24.112 33.108ZM29.7872 27.444V27.12H31.6952V30.924C31.9272 30.58 32.1912 30.332 32.4872 30.18C32.7832 30.02 33.1032 29.94 33.4472 29.94C34.1352 29.94 34.6672 30.2 35.0432 30.72C35.4272 31.24 35.6192 31.968 35.6192 32.904V33.144C35.6192 34.056 35.3992 34.78 34.9592 35.316C34.5272 35.852 33.9192 36.12 33.1352 36.12C32.5112 36.12 31.9992 35.916 31.5992 35.508C31.4872 35.572 31.3832 35.652 31.2872 35.748C31.1912 35.844 31.0952 35.948 30.9992 36.06H30.7112V28.092C30.7112 27.812 30.6992 27.648 30.6752 27.6C30.6512 27.552 30.5752 27.52 30.4472 27.504L29.7872 27.444ZM33.2912 30.372C33.0432 30.372 32.7832 30.452 32.5112 30.612C32.2472 30.772 31.9752 31.096 31.6952 31.584V35.016C32.0392 35.488 32.4952 35.724 33.0632 35.724C33.5832 35.724 33.9592 35.528 34.1912 35.136C34.4232 34.736 34.5392 34.192 34.5392 33.504V32.544C34.5392 31.792 34.4312 31.244 34.2152 30.9C33.9992 30.548 33.6912 30.372 33.2912 30.372ZM42.3541 32.904V33.144C42.3541 34.048 42.1261 34.772 41.6701 35.316C41.2221 35.852 40.5821 36.12 39.7501 36.12C38.9261 36.12 38.2861 35.852 37.8301 35.316C37.3821 34.772 37.1581 34.048 37.1581 33.144V32.904C37.1581 32.008 37.3821 31.292 37.8301 30.756C38.2781 30.212 38.9181 29.94 39.7501 29.94C40.5821 29.94 41.2221 30.212 41.6701 30.756C42.1261 31.292 42.3541 32.008 42.3541 32.904ZM41.2741 32.664C41.2741 31.832 41.1421 31.236 40.8781 30.876C40.6221 30.508 40.2461 30.324 39.7501 30.324C39.2621 30.324 38.8861 30.508 38.6221 30.876C38.3661 31.236 38.2381 31.832 38.2381 32.664V33.384C38.2381 34.224 38.3661 34.828 38.6221 35.196C38.8861 35.556 39.2621 35.736 39.7501 35.736C40.2461 35.736 40.6221 35.556 40.8781 35.196C41.1421 34.828 41.2741 34.224 41.2741 33.384V32.664ZM49.9338 35.688V36H48.0858V35.04C47.8058 35.416 47.4858 35.692 47.1258 35.868C46.7738 36.036 46.4218 36.12 46.0698 36.12C45.5018 36.12 45.0578 35.94 44.7378 35.58C44.4258 35.212 44.2698 34.696 44.2698 34.032V31.032C44.2698 30.752 44.2578 30.588 44.2338 30.54C44.2098 30.492 44.1338 30.46 44.0058 30.444L43.3458 30.384V30.06H45.2538V34.02C45.2538 34.612 45.3418 35.032 45.5178 35.28C45.7018 35.52 45.9658 35.64 46.3098 35.64C46.5658 35.64 46.8458 35.56 47.1498 35.4C47.4618 35.24 47.7538 34.932 48.0258 34.476V31.032C48.0258 30.752 48.0138 30.588 47.9898 30.54C47.9658 30.484 47.8898 30.452 47.7618 30.444L46.8618 30.384V30.06H49.0098V35.028C49.0098 35.308 49.0218 35.472 49.0458 35.52C49.0698 35.568 49.1458 35.6 49.2738 35.616L49.9338 35.688ZM54.6573 34.776C54.5373 35.24 54.3493 35.58 54.0933 35.796C53.8373 36.012 53.5093 36.12 53.1093 36.12C52.7253 36.12 52.4133 36.036 52.1733 35.868C51.9333 35.692 51.7573 35.464 51.6453 35.184C51.5333 34.904 51.4773 34.612 51.4773 34.308V31.032C51.4773 30.752 51.4653 30.588 51.4413 30.54C51.4253 30.492 51.3493 30.46 51.2133 30.444L50.5533 30.384V30.06H51.4773V28.488L52.4613 28.284V30.06H54.4173V30.444H52.4613V34.404C52.4613 34.908 52.5293 35.256 52.6653 35.448C52.8093 35.64 52.9973 35.736 53.2293 35.736C53.4613 35.736 53.6373 35.648 53.7573 35.472C53.8853 35.296 53.9773 35.008 54.0333 34.608L54.6573 34.776Z"/><path stroke="#000" stroke-linecap="round" stroke-linejoin="round" stroke-width="2" d="M17 13V59"/><path stroke="#000" stroke-linecap="round" stroke-linejoin="round" stroke-width="2" d="M62.9087 54.8149C63.2361 54.6497 63.5114 54.397 63.704 54.0849C63.8967 53.7728 63.9991 53.4135 64 53.0467V9.0833C64 8.53077 63.7805 8.00088 63.3898 7.61018C62.9991 7.21949 62.4692 7 61.9167 7H16.4591C15.6726 7.00004 14.8982 7.19453 14.205 7.56614C13.5118 7.93776 12.9212 8.47498 12.4858 9.13V9.13C12.2966 9.41455 12.1881 9.74509 12.1719 10.0864C12.1557 10.4277 12.2325 10.7671 12.3939 11.0682C12.5553 11.3694 12.7954 11.6212 13.0886 11.7967C13.3818 11.9722 13.7171 12.0649 14.0588 12.0649H17.8674L20.0005 12.0472H59.9167V60.0472H14.0583C13.5636 60.0476 13.0885 59.8541 12.7349 59.5083C12.3813 59.1624 12.1773 58.6917 12.1667 58.1972V10.575"/><defs><linearGradient id="paint0_linear_1_10" x1="38.781" x2="38.781" y1="12" y2="59.5" gradientUnits="userSpaceOnUse"><stop stop-color="#FF5A8B"/><stop offset="1" stop-color="#FFD1A7"/></linearGradient><linearGradient id="paint1_linear_1_10" x1="14.974" x2="14.974" y1="12" y2="59.5" gradientUnits="userSpaceOnUse"><stop stop-color="#FF5A8B"/><stop offset="1" stop-color="#FFD1A7"/></linearGradient></defs></svg>