<svg width="1280" height="1280" viewBox="0 0 1280 1280" fill="none" xmlns="http://www.w3.org/2000/svg">
<rect width="1280" height="1280" fill="#F2EEFF"/>
<path d="M880 639.642C880 637.06 878.63 634.672 876.401 633.368L495.048 410.383C488.381 406.484 480 411.293 480 419.015V515.191C480 518.798 481.942 522.125 485.083 523.898L675.134 631.209C681.911 635.036 681.911 644.798 675.134 648.625L485.083 755.936C481.942 757.709 480 761.037 480 764.644V860.798C480 868.525 488.39 873.333 495.057 869.426L876.407 645.912C878.633 644.607 880 642.221 880 639.642Z" fill="#161316"/>
<path d="M614.658 631.093C621.415 634.924 621.415 644.66 614.658 648.491L494.932 716.376C488.266 720.155 480 715.34 480 707.677V571.907C480 564.243 488.266 559.428 494.932 563.208L614.658 631.093Z" fill="#161316"/>
</svg>
