<svg width="192" height="192" viewBox="0 0 192 192" fill="none" xmlns="http://www.w3.org/2000/svg"><path d="M168.356 92.58 48.073 19.68C45.407 18.066 42 19.985 42 23.103v30.645a4 4 0 0 0 1.927 3.42l58.429 35.412c2.569 1.557 2.569 5.285 0 6.842l-58.43 35.411a4 4 0 0 0-1.926 3.42v30.645c0 3.118 3.407 5.037 6.073 3.421l120.283-72.898c2.569-1.557 2.569-5.285 0-6.842Z" stroke="#000" stroke-width="12"/><path d="M36 113.449V78.551c0-1.559 1.704-2.518 3.037-1.71l28.79 17.449c1.285.778 1.285 2.642 0 3.42l-28.79 17.45c-1.333.807-3.037-.152-3.037-1.711Z" fill="#000"/></svg>
